<mxfile modified="2023-05-14T17:43:46.015Z" host="app.diagrams.net" agent="Mozilla/5.0 (Windows NT 10.0; Win64; x64) AppleWebKit/537.36 (KHTML, like Gecko) Chrome/113.0.0.0 Safari/537.36" etag="RQJwDFQOLBEVMuVP6-4G" version="21.3.0" type="device">
  <diagram id="WI9T0HZ2pTsCkuznbFz-" name="Page-1">
    <mxGraphModel dx="1323" dy="783" grid="1" gridSize="10" guides="1" tooltips="1" connect="1" arrows="1" fold="1" page="1" pageScale="1" pageWidth="1169" pageHeight="827" math="0" shadow="0">
      <root>
        <mxCell id="0" />
        <mxCell id="1" parent="0" />
        <mxCell id="VOohrECMqtA-v3Q6aIey-12" style="edgeStyle=orthogonalEdgeStyle;rounded=0;orthogonalLoop=1;jettySize=auto;html=1;exitX=1;exitY=0.5;exitDx=0;exitDy=0;" edge="1" parent="1" source="VOohrECMqtA-v3Q6aIey-6" target="VOohrECMqtA-v3Q6aIey-1">
          <mxGeometry relative="1" as="geometry">
            <Array as="points">
              <mxPoint x="890" y="484.5" />
              <mxPoint x="890" y="484.5" />
            </Array>
          </mxGeometry>
        </mxCell>
        <mxCell id="VOohrECMqtA-v3Q6aIey-6" value="" style="whiteSpace=wrap;html=1;rounded=1;gradientColor=#CCCCCC;" vertex="1" parent="1">
          <mxGeometry x="670" y="384.5" width="130" height="200" as="geometry" />
        </mxCell>
        <mxCell id="VOohrECMqtA-v3Q6aIey-9" style="edgeStyle=orthogonalEdgeStyle;rounded=1;orthogonalLoop=1;jettySize=auto;html=1;exitX=1;exitY=0.5;exitDx=0;exitDy=0;entryX=0;entryY=0.5;entryDx=0;entryDy=0;" edge="1" parent="1" source="VOohrECMqtA-v3Q6aIey-5" target="lId9YTHrqZy0qMTVwQLb-6">
          <mxGeometry relative="1" as="geometry">
            <Array as="points">
              <mxPoint x="630" y="369.5" />
              <mxPoint x="630" y="269.5" />
            </Array>
          </mxGeometry>
        </mxCell>
        <mxCell id="VOohrECMqtA-v3Q6aIey-10" style="edgeStyle=orthogonalEdgeStyle;rounded=1;orthogonalLoop=1;jettySize=auto;html=1;exitX=1;exitY=0.5;exitDx=0;exitDy=0;entryX=0;entryY=0.5;entryDx=0;entryDy=0;" edge="1" parent="1" source="VOohrECMqtA-v3Q6aIey-5" target="VOohrECMqtA-v3Q6aIey-6">
          <mxGeometry relative="1" as="geometry" />
        </mxCell>
        <mxCell id="VOohrECMqtA-v3Q6aIey-5" value="" style="whiteSpace=wrap;html=1;rounded=1;gradientColor=#CCCCCC;" vertex="1" parent="1">
          <mxGeometry x="440" y="234.5" width="150" height="270" as="geometry" />
        </mxCell>
        <mxCell id="VOohrECMqtA-v3Q6aIey-8" style="edgeStyle=orthogonalEdgeStyle;rounded=0;orthogonalLoop=1;jettySize=auto;html=1;exitX=1;exitY=0.5;exitDx=0;exitDy=0;entryX=0;entryY=0.5;entryDx=0;entryDy=0;" edge="1" parent="1" source="VOohrECMqtA-v3Q6aIey-4" target="VOohrECMqtA-v3Q6aIey-5">
          <mxGeometry relative="1" as="geometry" />
        </mxCell>
        <mxCell id="VOohrECMqtA-v3Q6aIey-4" value="" style="whiteSpace=wrap;html=1;rounded=1;fillColor=#FFFFFF;gradientColor=#CCCCCC;" vertex="1" parent="1">
          <mxGeometry x="250" y="234.5" width="150" height="270" as="geometry" />
        </mxCell>
        <mxCell id="VOohrECMqtA-v3Q6aIey-7" style="edgeStyle=orthogonalEdgeStyle;rounded=0;orthogonalLoop=1;jettySize=auto;html=1;exitX=1;exitY=0.5;exitDx=0;exitDy=0;entryX=0;entryY=0.5;entryDx=0;entryDy=0;" edge="1" parent="1" source="lId9YTHrqZy0qMTVwQLb-1" target="VOohrECMqtA-v3Q6aIey-4">
          <mxGeometry relative="1" as="geometry" />
        </mxCell>
        <mxCell id="lId9YTHrqZy0qMTVwQLb-1" value="" style="shape=image;html=1;verticalAlign=top;verticalLabelPosition=bottom;labelBackgroundColor=#ffffff;imageAspect=0;aspect=fixed;image=https://cdn2.iconfinder.com/data/icons/social-media-2285/512/1_Twitter3_colored_svg-128.png" parent="1" vertex="1">
          <mxGeometry x="90" y="340.5" width="58" height="58" as="geometry" />
        </mxCell>
        <mxCell id="lId9YTHrqZy0qMTVwQLb-2" value="" style="dashed=0;outlineConnect=0;html=1;align=center;labelPosition=center;verticalLabelPosition=bottom;verticalAlign=top;shape=mxgraph.weblogos.github" parent="1" vertex="1">
          <mxGeometry x="281" y="300.5" width="89.5" height="90" as="geometry" />
        </mxCell>
        <mxCell id="lId9YTHrqZy0qMTVwQLb-3" value="" style="shape=image;verticalLabelPosition=bottom;labelBackgroundColor=default;verticalAlign=top;aspect=fixed;imageAspect=0;image=data:image/svg+xml,PHN2ZyB4bWxuczp4bGluaz0iaHR0cDovL3d3dy53My5vcmcvMTk5OS94bGluayIgeG1sbnM9Imh0dHA6Ly93d3cudzMub3JnLzIwMDAvc3ZnIiBwcmVzZXJ2ZUFzcGVjdFJhdGlvPSJ4TWlkWU1pZCIgdmVyc2lvbj0iMS4xIiB2aWV3Qm94PSI3LjEwNTQyNzM1NzYwMTAwMmUtMTQgMCAyNTYgMjU2IiBoZWlnaHQ9IjI1NiIgd2lkdGg9IjI1NiI+JiN4YTsgICAgPHRpdGxlPkdpdEh1YiBBY3Rpb25zPC90aXRsZT4mI3hhOyAgICA8Zz4mI3hhOwkJCQk8cGF0aCBmaWxsPSIjNEE3RUJGIiBkPSJNNTMuNjAzOTY4NSwwIEM4My4yMDgwMiwwIDEwNy4yMDc5MzcsMjMuOTkyMDk4OCAxMDcuMjA3OTM3LDUzLjU5MDU5ODcgQzEwNy4yMDc5MzcsODIuNjgwNjc1IDg0LjAxODk1MTgsMTA2LjM0MDIzNyA1NS4xMTQ5NTksMTA3LjE0MjcyMiBDNTUuMTE0OTU5LDEwOS42MDQyMjkgNTUuMjIzNjY1OCwxMTQuMjU0MzY5IDU2LjYxNjQ1MjcsMTE3LjA2MjE1IEM1OC41NDg5NDQ1LDEyMC45NTY0IDcwLjE0MDU2MzcsMTI4LjIwNzAzNCA4MS41MDgyNzAyLDEyOC4yMDcwMzQgTDgxLjUwODI3MDIsMTI4LjIwNzAzNCBMODUuNTkyMjUxMiwxMjguMjA3MDM0IEM4OC4xNTg4Mjc1LDEwOS45MzU4NDYgMTAzLjg0ODc1NSw5NS44NzQ5NTUzIDEyMi44MzE4OSw5NS44NzQ5NTUzIEMxNDEuNzM4MDU2LDk1Ljg3NDk1NTMgMTU3LjM4MjE2OCwxMDkuODIxMzM2IDE2MC4wNDMxMjQsMTI3Ljk4NDQyNyBMMTYwLjA0MzEyNCwxMjcuOTg0NDI3IEwxODEuMTcyMjUsMTI3Ljk4NDQyNyBDMTgzLjgzNDEyMywxMDkuODIxMzM2IDE5OS40NzczMTgsOTUuODc0OTU1MyAyMTguMzgzNDg0LDk1Ljg3NDk1NTMgQzIzOS4xNTgsOTUuODc0OTU1MyAyNTUuOTk5NzI1LDExMi43MTE1NjQgMjU1Ljk5OTcyNSwxMzMuNDgxODE0IEMyNTUuOTk5NzI1LDE1NC4yNTExNDkgMjM5LjE1OCwxNzEuMDg3NzU3IDIxOC4zODM0ODQsMTcxLjA4Nzc1NyBDMTk5LjQ3NzMxOCwxNzEuMDg3NzU3IDE4My44MzMyMDYsMTU3LjE0MDQ2MSAxODEuMTcyMjUsMTM4Ljk3NzM3IEwxODEuMTcyMjUsMTM4Ljk3NzM3IEwxNjAuMDQ0MDQsMTM4Ljk3NzM3IEMxNTcuMzgzMDg0LDE1Ny4xNDA0NjEgMTQxLjczODk3MiwxNzEuMDg3NzU3IDEyMi44MzE4OSwxNzEuMDg3NzU3IEMxMDMuOTYxNDYxLDE3MS4wODc3NTcgODguMzM4NDIzNywxNTcuMTk0NTA5IDg1LjYzMzQ4NSwxMzkuMDgwODg3IEw4NS42MzM0ODUsMTM5LjA4MDg4NyBMODEuMTE3OTIzNCwxMzkuMjE1NTUgQzczLjY4MzAwNzEsMTM5LjE1OTY3IDY1LjgyODQ3MjMsMTM3LjE3NDI5MyA1OS41MTk2OTc2LDEzMi44ODc5NjIgQzU3Ljc5OTc4OSwxMzEuNzE5MDQ1IDU2LjEwNTQ4NywxMzAuNDkwODggNTQuMzM3OTMwNSwxMjkuMzI3NDYgTDU0LjMzNzkzMDUsMTI5LjMyNzQ2IEw1NC4zMzc0MTc0LDEzMS43NjkyODQgQzU0LjMyNzc3NjcsMTMyLjU1ODcxNyA1NC4xODUzODE5LDE0NC40MjYxOCA1NC4xNzM5MzcxLDE1Ny42MDI0NzEgTDU0LjE3MzU1MzQsMTYwLjM5MjM4OCBDNTQuMTc4ODk3NCwxNjkuMDMzNDMgNTQuMjQ3MjE2MSwxNzcuOTM3MDk0IDU0LjQ1MDYzNjMsMTg0LjQzMTM1OSBDNTQuODk2ODc3OSwxOTguNjc4MjEzIDY2LjQ4NTQxNDQsMjEwLjE3NjgzMiA3OS4yNzMzOTcxLDIxMi44NjgyNzEgQzgwLjkzNTU3ODIsMjEzLjIxNzI5NyA4My43OTM1NDAyLDIxMy4yNjIxODUgODUuNTk0MDgzOCwyMTMuMTA2NDUxIEM4OC4xNjUyNDE3LDE5NC44NDE2NzYgMTAzLjg1MzMzNiwxODAuNzg2MjgyIDEyMi44MzE4OSwxODAuNzg2MjgyIEMxNDMuNjA2NDA2LDE4MC43ODYyODIgMTYwLjQ0ODEzMSwxOTcuNjIzODA3IDE2MC40NDgxMzEsMjE4LjM5MzE0MSBDMTYwLjQ0ODEzMSwyMzkuMTYyNDc1IDE0My42MDY0MDYsMjU2IDEyMi44MzE4OSwyNTYgQzEwNC4wNjMxNzEsMjU2IDg4LjUwODg1NjksMjQyLjI1NjA3MyA4NS42NzkzMDA0LDIyNC4yODYyNzUgTDg1LjY3OTMwMDQsMjI0LjI4NjI3NSBMODIuNDI1NDkzNywyMjQuMjg2Mjc1IEM1Ny45ODk0MTQ1LDIyMi45NTI0NjQgNDIuNzk3MDQxOSwyMDAuNTM5Njg1IDQzLjA2MTg1NDcsMTgyLjM2Mjg1MyBDNDMuMzk2MzA2OCwxNTkuNDg1NjIyIDQzLjE0NDMyMjMsMTM2LjU5OTIzIDQzLjE0MDY1NzEsMTEzLjcxNjUwMiBMNDMuMTQwNjU3MSwxMTMuNzE2NTAyIEw0My4xNDA2NTcxLDEwNi4xNTI0NDEgQzE4LjU0NjA1NjgsMTAxLjI4NjIzMiA3LjEwNTQyNzM2ZS0xNCw3OS42MDYzMTUyIDcuMTA1NDI3MzZlLTE0LDUzLjU5MDU5ODcgQzcuMTA1NDI3MzZlLTE0LDIzLjk5MjA5ODggMjMuOTk5MDAwNywwIDUzLjYwMzk2ODUsMCBaIE0xMjIuODMxODksMTkxLjc3OTIyNSBDMTA4LjEzMDY1OCwxOTEuNzc5MjI1IDk2LjIxMjI1MTEsMjAzLjY5NDY2IDk2LjIxMjI1MTEsMjE4LjM5MzE0MSBDOTYuMjEyMjUxMSwyMzMuMDkxNjIyIDEwOC4xMzA2NTgsMjQ1LjAwNzA1NyAxMjIuODMxODksMjQ1LjAwNzA1NyBDMTM3LjUzNDAzOCwyNDUuMDA3MDU3IDE0OS40NTI0NDYsMjMzLjA5MTYyMiAxNDkuNDUyNDQ2LDIxOC4zOTMxNDEgQzE0OS40NTI0NDYsMjAzLjY5NDY2IDEzNy41MzQwMzgsMTkxLjc3OTIyNSAxMjIuODMxODksMTkxLjc3OTIyNSBaIE0xMjIuODMxODksMTA2Ljg2Nzg5OSBDMTA4LjEzMDY1OCwxMDYuODY3ODk5IDk2LjIxMjI1MTEsMTE4Ljc4MzMzMyA5Ni4yMTIyNTExLDEzMy40ODE4MTQgQzk2LjIxMjI1MTEsMTQ4LjE3OTM4IDEwOC4xMzA2NTgsMTYwLjA5NDgxNCAxMjIuODMxODksMTYwLjA5NDgxNCBDMTM3LjUzNDAzOCwxNjAuMDk0ODE0IDE0OS40NTI0NDYsMTQ4LjE3OTM4IDE0OS40NTI0NDYsMTMzLjQ4MTgxNCBDMTQ5LjQ1MjQ0NiwxMTguNzgzMzMzIDEzNy41MzQwMzgsMTA2Ljg2Nzg5OSAxMjIuODMxODksMTA2Ljg2Nzg5OSBaIE0yMTguMzgzNDg0LDEwNi44Njc4OTkgQzIwMy42ODEzMzYsMTA2Ljg2Nzg5OSAxOTEuNzYzODQ1LDExOC43ODMzMzMgMTkxLjc2Mzg0NSwxMzMuNDgxODE0IEMxOTEuNzYzODQ1LDE0OC4xNzkzOCAyMDMuNjgxMzM2LDE2MC4wOTQ4MTQgMjE4LjM4MzQ4NCwxNjAuMDk0ODE0IEMyMzMuMDg1NjMyLDE2MC4wOTQ4MTQgMjQ1LjAwNDAzOSwxNDguMTc5MzggMjQ1LjAwNDAzOSwxMzMuNDgxODE0IEMyNDUuMDA0MDM5LDExOC43ODMzMzMgMjMzLjA4NTYzMiwxMDYuODY3ODk5IDIxOC4zODM0ODQsMTA2Ljg2Nzg5OSBaIE0yMzMuNTQ0MDYxLDEyMi4yNzY0MzIgQzIzNS42Mzg3MzksMTI0LjM2NjAwOCAyMzUuNjk2NDY2LDEyNy43MjM0MzYgMjMzLjcxNDQ5NCwxMjkuODgxNzE3IEwyMzMuNTU0MTQsMTMwLjA1MDI3NiBMMjE3LjI0NDc4OSwxNDYuMzk0OTUgQzIxNS4xNjY2MDQsMTQ4LjQ3ODExMyAyMTEuODMwMzMsMTQ4LjU0NzczNSAyMDkuNjY3ODQ1LDE0Ni41OTI4MjMgTDIwOS40OTU1NzksMTQ2LjQyOTc2MSBMMjAxLjUxMDg3OSwxMzguNTY5ODA3IEMxOTkuMzQ3NDc4LDEzNi40Mzk5MjQgMTk5LjMxOTk4OCwxMzIuOTU5NzQxIDIwMS40NTA0MDMsMTMwLjc5Njg4IEMyMDMuNTI2NzU1LDEyOC42ODg5ODMgMjA2Ljg4NDEwNCwxMjguNjA5Mjg0IDIwOS4wNTY2NjgsMTMwLjU3NzAyMSBMMjA5LjIyNTI2OSwxMzAuNzM3MzM0IEwyMTMuMzE3NDk2LDEzNC43NjQ0MTYgTDIyNS43NjkxOTQsMTIyLjI4NjUwOSBDMjI3LjkxMzM1MywxMjAuMTM2NDczIDIzMS4zOTQ0MDQsMTIwLjEzMjgwOCAyMzMuNTQ0MDYxLDEyMi4yNzY0MzIgWiBNMTM3LjU1NDE5NywxMjIuMTk1OTA5IEMxMzkuNjQ4ODc1LDEyNC4yODU0ODQgMTM5LjcwNjYwMywxMjcuNjQyOTEzIDEzNy43MjQ2MywxMjkuODAyMTEgTDEzNy41NjQyNzcsMTI5Ljk2OTc1MiBMMTIxLjI1NDkyNiwxNDYuMzE0NDI3IEMxMTkuMTc2NzQxLDE0OC4zOTc1OSAxMTUuODQwNDY3LDE0OC40NjcyMTIgMTEzLjY3Nzk4MiwxNDYuNTEyMyBMMTEzLjUwNTcxNiwxNDYuMzQ5MjM4IEwxMDUuNTIxMDE1LDEzOC40ODkyODMgQzEwMy4zNTc2MTQsMTM2LjM1OTQwMSAxMDMuMzMwMTI1LDEzMi44NzkyMTggMTA1LjQ2MDUzOSwxMzAuNzE2MzU2IEMxMDcuNTM1OTc1LDEyOC42MDg0NTkgMTEwLjg5NDI0MSwxMjguNTI4NzYxIDExMy4wNjY4MDUsMTMwLjQ5NzQxNCBMMTEzLjIzNTQwNSwxMzAuNjU2ODExIEwxMTcuMzI3NjMzLDEzNC42ODM4OTMgTDEyOS43NzkzMzEsMTIyLjIwNTk4NiBDMTMxLjkyMzQ5LDEyMC4wNTY4NjYgMTM1LjQwNDU0MSwxMjAuMDUyMjg1IDEzNy41NTQxOTcsMTIyLjE5NTkwOSBaIE01My42MDM5Njg1LDEwLjk5Mjk0MzMgQzMwLjA3MjI4NDUsMTAuOTkyOTQzMyAxMC45OTU2ODU4LDMwLjA2Mzg2NzkgMTAuOTk1Njg1OCw1My41OTA1OTg3IEMxMC45OTU2ODU4LDc3LjExNjQxMzYgMzAuMDcyMjg0NSw5Ni4xODgyNTQyIDUzLjYwMzk2ODUsOTYuMTg4MjU0MiBDNzcuMTM1NjUyNSw5Ni4xODgyNTQyIDk2LjIxMjI1MTEsNzcuMTE2NDEzNiA5Ni4yMTIyNTExLDUzLjU5MDU5ODcgQzk2LjIxMjI1MTEsMzAuMDYzODY3OSA3Ny4xMzU2NTI1LDEwLjk5Mjk0MzMgNTMuNjAzOTY4NSwxMC45OTI5NDMzIFogTTQ5LjE3MDU5OTYsMjguMTMwMzkyMyBDNTguMTM0ODMyNSwzMy41MTYwMTg1IDY2Ljk3ODExMjgsMzkuMDg2NjkyNSA3NS43MDEzNTY5LDQ0Ljg0MTQ5ODQgQzgzLjAwODkwNjQsNDkuNjYxOTA0IDgyLjk5MDU4MDMsNTguNDA0MDQyMiA3NS42MDE0Nzk0LDYzLjIzNTQ0MDggQzY2LjcyMjQ2MzEsNjkuMDQ1MjExMyA1Ny43MDIzMzU1LDc0LjYxNTg4NTQgNDguNTQyOTI5Miw3OS45NDc0NjI5IEM0MS4wODc4NTQyLDg0LjI4NjkyNzMgMzIuNzQzMDQ0OSw3OS4yOTcwNDcxIDMyLjU0MDU0MSw3MC42MDM0NjExIEMzMi40MTA0MjU0LDY1LjAwMDcyNDMgMzIuNTE2NzE3MSw1OS4zOTI0OTEgMzIuNTA5Mzg2Niw1My43ODYwODk5IEMzMi41MDI5NzI1LDQ4LjMzMTc1NzkgMzIuMzk1NzY0NSw0Mi44NzQ2Nzc2IDMyLjUyNzcxMjcsMzcuNDIzMDkzOCBDMzIuNzUwMzc1NCwyOC4xNzUyODAyIDQxLjI2Mzc4NTEsMjMuMzU2NzA2NyA0OS4xNzA1OTk2LDI4LjEzMDM5MjMgWiBNNDMuMjYxMzM0NywzNy4wMDE2OTc2IEw0My4yNjEzMzQ3LDQwLjg3MDI5NzYgQzQzLjI2MDQxODQsNDIuNzg1ODE4IDQzLjI2MDQxODQsNDQuNjc1Njg4MSA0My4yNTk1MDIxLDQ2LjU0NDQ4ODUgTDQzLjI1ODU4NTgsNTAuMjU0NjA2OSBMNDMuMjU4NTg1OCw1NS43MzU1MDUyIEM0My4yNTk1MDIxLDU5Ljk2NTk1NjIgNDMuMjYxMzM0Nyw2NC4xMjk1MzM1IDQzLjI2ODY2NTIsNjguMjkzMTEwOCBDNDMuMjcyMzMwNCw3MC4yNTI2MDMgNDQuMjkyMTgwMyw3MC4xNzI5MDQxIDQ1LjYxMTY2MjYsNjkuMzU1NzYyIEM1My4yMTcwMTIsNjQuNjQxNjIxNSA2MC44MjYwMjY2LDU5LjkzMjk3NzQgNjguNDM4NzA2NCw1NS4yMjg5MTM3IEM2OS42OTY3OTYxLDU0LjQ1Mjk5NTEgNjkuNzMyNTMyMSw1My42NDIyNjU2IDY4LjQ5ODI2NjQsNTIuODYzNTk4OCBDNjAuMzQ0OTY1Myw0Ny43MjUzMTM4IDUyLjE4MDY2ODYsNDIuNjA0NDM0NCA0My4yNjEzMzQ3LDM3LjAwMTY5NzYgWiIvPiYjeGE7CQkJCTxwYXRoIGZpbGw9IiM4NUIzREYiIGQ9Ik0xMzMuMjI3MTIsMjIzLjg3OTA3OCBDMTM2LjI2Mjg0NiwyMjMuODc5MDc4IDEzOC43MjQ5NjMsMjIxLjQxODQ5IDEzOC43MjQ5NjMsMjE4LjM4MjYwNiBDMTM4LjcyNDk2MywyMTUuMzQ3NjM4IDEzNi4yNjI4NDYsMjEyLjg4NjEzNCAxMzMuMjI3MTIsMjEyLjg4NjEzNCBDMTMwLjE5MTM5NCwyMTIuODg2MTM0IDEyNy43MjkyNzcsMjE1LjM0NzYzOCAxMjcuNzI5Mjc3LDIxOC4zODI2MDYgQzEyNy43MjkyNzcsMjIxLjQxODQ5IDEzMC4xOTEzOTQsMjIzLjg3OTA3OCAxMzMuMjI3MTIsMjIzLjg3OTA3OCIvPiYjeGE7CQkJCTxwYXRoIGZpbGw9IiM4NUIzREYiIGQ9Ik0xMTIuMTc4OTAzLDIyMy44NzkwNzggQzExNS4yMTQ2MjksMjIzLjg3OTA3OCAxMTcuNjc2NzQ2LDIyMS40MTg0OSAxMTcuNjc2NzQ2LDIxOC4zODI2MDYgQzExNy42NzY3NDYsMjE1LjM0NzYzOCAxMTUuMjE0NjI5LDIxMi44ODYxMzQgMTEyLjE3ODkwMywyMTIuODg2MTM0IEMxMDkuMTQzMTc4LDIxMi44ODYxMzQgMTA2LjY4MTA2LDIxNS4zNDc2MzggMTA2LjY4MTA2LDIxOC4zODI2MDYgQzEwNi42ODEwNiwyMjEuNDE4NDkgMTA5LjE0MzE3OCwyMjMuODc5MDc4IDExMi4xNzg5MDMsMjIzLjg3OTA3OCIvPiYjeGE7CQkJCTxwYXRoIGZpbGw9IiM4NUIzREYiIGQ9Ik0yMTguMzgzNzU5LDI0NS4wMDcwNTcgQzIwMy42ODE2MSwyNDUuMDA3MDU3IDE5MS43NjQxMiwyMzMuMDkxNjIyIDE5MS43NjQxMiwyMTguMzkzMTQxIEMxOTEuNzY0MTIsMjAzLjY5NDY2IDIwMy42ODE2MSwxOTEuNzc5MjI1IDIxOC4zODM3NTksMTkxLjc3OTIyNSBDMjMzLjA4NDk5MSwxOTEuNzc5MjI1IDI0NS4wMDQzMTQsMjAzLjY5NDY2IDI0NS4wMDQzMTQsMjE4LjM5MzE0MSBDMjQ1LjAwNDMxNCwyMzMuMDkxNjIyIDIzMy4wODQ5OTEsMjQ1LjAwNzA1NyAyMTguMzgzNzU5LDI0NS4wMDcwNTcgTTIxOC4zODM3NTksMTgwLjc4NjI4MiBDMTk5LjQ3NzU5MywxODAuNzg2MjgyIDE4My44MzM0ODEsMTk0LjczMzU3OSAxODEuMTcyNTI1LDIxMi44OTY2NjkgTDE3NS4wMjA0MzksMjEyLjg5NjY2OSBDMTcyLjMzNDc0MywyMTIuODk2NjY5IDE3MC4xNTU3NjQsMjE1LjM1ODE3MiAxNzAuMTU1NzY0LDIxOC4zOTMxNDEgQzE3MC4xNTU3NjQsMjIxLjQyOTAyNSAxNzIuMzM0NzQzLDIyMy44ODk2MTMgMTc1LjAyMDQzOSwyMjMuODg5NjEzIEwxODEuMTcyNTI1LDIyMy44ODk2MTMgQzE4My44MzM0ODEsMjQyLjA1MjcwMyAxOTkuNDc3NTkzLDI1NiAyMTguMzgzNzU5LDI1NiBDMjM5LjE1ODI3NSwyNTYgMjU2LDIzOS4xNjI0NzUgMjU2LDIxOC4zOTMxNDEgQzI1NiwxOTcuNjIzODA3IDIzOS4xNTgyNzUsMTgwLjc4NjI4MiAyMTguMzgzNzU5LDE4MC43ODYyODIiLz4mI3hhOyAgICA8L2c+JiN4YTs8L3N2Zz4=;" parent="1" vertex="1">
          <mxGeometry x="293" y="416" width="64" height="64" as="geometry" />
        </mxCell>
        <mxCell id="lId9YTHrqZy0qMTVwQLb-4" value="" style="outlineConnect=0;dashed=0;verticalLabelPosition=bottom;verticalAlign=top;align=center;html=1;shape=mxgraph.aws3.rds;fillColor=#2E73B8;gradientColor=none;" parent="1" vertex="1">
          <mxGeometry x="470" y="295.5" width="90" height="100" as="geometry" />
        </mxCell>
        <mxCell id="lId9YTHrqZy0qMTVwQLb-5" value="" style="shape=image;verticalLabelPosition=bottom;labelBackgroundColor=#ffffff;verticalAlign=top;aspect=fixed;imageAspect=0;image=data:image/svg+xml,PHN2ZyB4bWxuczpkYz0iaHR0cDovL3B1cmwub3JnL2RjL2VsZW1lbnRzLzEuMS8iIHhtbG5zOmNjPSJodHRwOi8vY3JlYXRpdmVjb21tb25zLm9yZy9ucyMiIHhtbG5zOnJkZj0iaHR0cDovL3d3dy53My5vcmcvMTk5OS8wMi8yMi1yZGYtc3ludGF4LW5zIyIgeG1sbnM6c3ZnPSJodHRwOi8vd3d3LnczLm9yZy8yMDAwL3N2ZyIgeG1sbnM9Imh0dHA6Ly93d3cudzMub3JnLzIwMDAvc3ZnIiB4bWxuczp4bGluaz0iaHR0cDovL3d3dy53My5vcmcvMTk5OS94bGluayIgeG1sbnM6c29kaXBvZGk9Imh0dHA6Ly9zb2RpcG9kaS5zb3VyY2Vmb3JnZS5uZXQvRFREL3NvZGlwb2RpLTAuZHRkIiB4bWxuczppbmtzY2FwZT0iaHR0cDovL3d3dy5pbmtzY2FwZS5vcmcvbmFtZXNwYWNlcy9pbmtzY2FwZSIgdmVyc2lvbj0iMS4xIiBpZD0iTGF5ZXJfMSIgeD0iMHB4IiB5PSIwcHgiIHZpZXdCb3g9IjAgMCA0Mi43NyA0NC4xMTAwMDEiIHhtbDpzcGFjZT0icHJlc2VydmUiIHNvZGlwb2RpOmRvY25hbWU9InNhcF9zZV9wb3N0cmVzcWwuc3ZnIiB3aWR0aD0iNDIuNzciIGhlaWdodD0iNDQuMTEwMDAxIiBpbmtzY2FwZTp2ZXJzaW9uPSIwLjkyLjMgKDI0MDU1NDYsIDIwMTgtMDMtMTEpIj48bWV0YWRhdGEgaWQ9Im1ldGFkYXRhNjA0NDkiPjxyZGY6UkRGPjxjYzpXb3JrIHJkZjphYm91dD0iIj48ZGM6Zm9ybWF0PmltYWdlL3N2Zyt4bWw8L2RjOmZvcm1hdD48ZGM6dHlwZSByZGY6cmVzb3VyY2U9Imh0dHA6Ly9wdXJsLm9yZy9kYy9kY21pdHlwZS9TdGlsbEltYWdlIi8+PGRjOnRpdGxlLz48L2NjOldvcms+PC9yZGY6UkRGPjwvbWV0YWRhdGE+PGRlZnMgaWQ9ImRlZnM2MDQ0NyIvPjxzb2RpcG9kaTpuYW1lZHZpZXcgcGFnZWNvbG9yPSIjZmZmZmZmIiBib3JkZXJjb2xvcj0iIzY2NjY2NiIgYm9yZGVyb3BhY2l0eT0iMSIgb2JqZWN0dG9sZXJhbmNlPSIxMCIgZ3JpZHRvbGVyYW5jZT0iMTAiIGd1aWRldG9sZXJhbmNlPSIxMCIgaW5rc2NhcGU6cGFnZW9wYWNpdHk9IjAiIGlua3NjYXBlOnBhZ2VzaGFkb3c9IjIiIGlua3NjYXBlOndpbmRvdy13aWR0aD0iMTkyMCIgaW5rc2NhcGU6d2luZG93LWhlaWdodD0iMTAxNyIgaWQ9Im5hbWVkdmlldzYwNDQ1IiBzaG93Z3JpZD0iZmFsc2UiIGZpdC1tYXJnaW4tdG9wPSIwIiBmaXQtbWFyZ2luLWxlZnQ9IjAiIGZpdC1tYXJnaW4tcmlnaHQ9IjAiIGZpdC1tYXJnaW4tYm90dG9tPSIwIiBpbmtzY2FwZTp6b29tPSIxLjAzMDMwMyIgaW5rc2NhcGU6Y3g9Ii0xOC4xNzUiIGlua3NjYXBlOmN5PSItMTc3LjIyIiBpbmtzY2FwZTp3aW5kb3cteD0iLTgiIGlua3NjYXBlOndpbmRvdy15PSItOCIgaW5rc2NhcGU6d2luZG93LW1heGltaXplZD0iMSIgaW5rc2NhcGU6Y3VycmVudC1sYXllcj0iTGF5ZXJfMSIvPiYjeGE7JiN4YTs8ZyBpZD0iZzYwNDQyIiB0cmFuc2Zvcm09InRyYW5zbGF0ZSgtMzE1LjU1LC0xOTkuNDIpIj4mI3hhOwk8ZGVmcyBpZD0iZGVmczYwNDAxIj4mI3hhOwkJPHJlY3QgaWQ9IlNWR0lEXzNfIiB4PSIzMTUuNSIgeT0iMTk5LjQyIiB3aWR0aD0iNDIuOTU5OTk5IiBoZWlnaHQ9IjQ0LjM2MDAwMSIvPiYjeGE7CTwvZGVmcz4mI3hhOwk8Y2xpcFBhdGggaWQ9IlNWR0lEXzRfIj4mI3hhOwkJPHVzZSB4bGluazpocmVmPSIjU1ZHSURfM18iIHN0eWxlPSJvdmVyZmxvdzp2aXNpYmxlIiBpZD0idXNlNjA0MDMiIHg9IjAiIHk9IjAiIHdpZHRoPSIxMDAlIiBoZWlnaHQ9IjEwMCUiLz4mI3hhOwk8L2NsaXBQYXRoPiYjeGE7CTxnIGNsaXAtcGF0aD0idXJsKCNTVkdJRF80XykiIGlkPSJnNjA0NDAiPiYjeGE7CQk8ZGVmcyBpZD0iZGVmczYwNDA3Ij4mI3hhOwkJCTxyZWN0IGlkPSJTVkdJRF81XyIgeD0iMzE1LjUiIHk9IjE5OS40MiIgd2lkdGg9IjQyLjk1OTk5OSIgaGVpZ2h0PSI0NC4zNjAwMDEiLz4mI3hhOwkJPC9kZWZzPiYjeGE7CQk8Y2xpcFBhdGggaWQ9IlNWR0lEXzZfIj4mI3hhOwkJCTx1c2UgeGxpbms6aHJlZj0iI1NWR0lEXzVfIiBzdHlsZT0ib3ZlcmZsb3c6dmlzaWJsZSIgaWQ9InVzZTYwNDA5IiB4PSIwIiB5PSIwIiB3aWR0aD0iMTAwJSIgaGVpZ2h0PSIxMDAlIi8+JiN4YTsJCTwvY2xpcFBhdGg+JiN4YTsJCTxwYXRoIGQ9Im0gMzQ3LjUxLDIzMS41MyBjIDAuMjgsLTIuMzQgMC4yLC0yLjY4IDEuOTQsLTIuMzEgbCAwLjQ0LDAuMDQgYyAxLjM0LDAuMDYgMy4wOSwtMC4yMSA0LjEyLC0wLjcgMi4yMiwtMS4wMyAzLjUzLC0yLjc0IDEuMzQsLTIuMjkgLTQuOTgsMS4wMiAtNS4zMiwtMC42NiAtNS4zMiwtMC42NiA1LjI2LC03LjgxIDcuNDYsLTE3LjcxIDUuNTYsLTIwLjE0IC01LjE4LC02LjYxIC0xNC4xNCwtMy40OSAtMTQuMjksLTMuNCBsIC0wLjA1LDAuMDEgYyAtMC45OSwtMC4yIC0yLjA5LC0wLjMzIC0zLjMyLC0wLjM0IC0yLjI2LC0wLjA0IC0zLjk2LDAuNTkgLTUuMjYsMS41NyAwLDAgLTE1Ljk4LC02LjU4IC0xNS4yNCw4LjI4IDAuMTYsMy4xNiA0LjUzLDIzLjkzIDkuNzUsMTcuNjYgMS45MSwtMi4yOSAzLjc2LC00LjI0IDMuNzYsLTQuMjQgMC45MiwwLjYxIDIuMDEsMC45MiAzLjE2LDAuODEgbCAwLjA5LC0wLjA4IGMgLTAuMDIsMC4yOSAtMC4wMSwwLjU2IDAuMDQsMC45IC0xLjM0LDEuNSAtMC45NCwxLjc2IC0zLjY0LDIuMzIgLTIuNzIsMC41NiAtMS4xMiwxLjU2IC0wLjA4LDEuODIgMS4yNywwLjMxIDQuMTksMC43NyA2LjE3LC0yIGwgLTAuMDgsMC4zMSBjIDAuNTIsMC40MiAwLjQ5LDMuMDMgMC41Niw0LjkgMC4wOCwxLjg3IDAuMiwzLjYxIDAuNTgsNC42NCAwLjM4LDEuMDIgMC44MywzLjY3IDQuMzYsMi45MSAyLjk0LC0wLjYzIDUuMiwtMS41NCA1LjQxLC0xMC4wMSIgY2xpcC1wYXRoPSJ1cmwoI1NWR0lEXzZfKSIgaWQ9InBhdGg2MDQxMiIgaW5rc2NhcGU6Y29ubmVjdG9yLWN1cnZhdHVyZT0iMCIvPiYjeGE7CQk8cG9seWdvbiBwb2ludHM9IjM0NS43MiwyMzAuOSAzNDUuNzIsMjMwLjkxIDM0NS43NCwyMzAuNzIgMzQ1Ljc0LDIzMC43MSAzNDUuNzYsMjMwLjUzIDM0NS43OSwyMzAuMzUgMzQ1Ljc5LDIzMC4zNCAzNDUuODEsMjMwLjE5IDM0NS44MSwyMzAuMTUgMzQ1LjgzLDIzMCAzNDUuODQsMjI5Ljk4IDM0NS44NiwyMjkuODUgMzQ1Ljg2LDIyOS44MSAzNDUuODksMjI5LjY5IDM0NS44OSwyMjkuNjQgMzQ1LjkyLDIyOS41MiAzNDUuOTMsMjI5LjQ2IDM0NS45NiwyMjkuMzUgMzQ1Ljk4LDIyOS4yNyAzNDYuMDEsMjI5LjE3IDM0Ni4wNCwyMjkuMDggMzQ2LjA3LDIyOC45OSAzNDYuMTEsMjI4Ljg4IDM0Ni4xNCwyMjguNzkgMzQ2LjIsMjI4LjY3IDM0Ni4yMywyMjguNiAzNDYuMzIsMjI4LjQ0IDM0Ni4zNiwyMjguMzggMzQ2LjQ3LDIyOC4yMiAzNDYuNTIsMjI4LjE2IDM0Ni42NywyMjcuOTkgMzQ2LjcyLDIyNy45NCAzNDYuODksMjI3Ljc5IDM0Ni45NSwyMjcuNzUgMzQ3LjE2LDIyNy42IDM0Ny4yMiwyMjcuNTcgMzQ3LjQxLDIyNy40OCAzNDcuNDcsMjI3LjQ1IDM0Ny42OSwyMjcuMzcgMzQ3Ljc2LDIyNy4zNSAzNDcuOTMsMjI3LjMxIDM0OC4wMSwyMjcuMjkgMzQ4LjE3LDIyNy4yNyAzNDguMjYsMjI3LjI2IDM0OC4zOSwyMjcuMjUgMzQ4LjQ5LDIyNy4yNSAzNDguNiwyMjcuMjUgMzQ4LjcsMjI3LjI1IDM0OC44LDIyNy4yNiAzNDguOTEsMjI3LjI2IDM0OC45NiwyMjcuMjcgMzQ5LjA4LDIyNy4yOCAzNDkuMTUsMjI3LjI5IDM0OS4yOCwyMjcuMzEgMzQ5LjMyLDIyNy4zMiAzNDkuNDYsMjI3LjM0IDM0OS41LDIyNy4zNSAzNDkuNjUsMjI3LjM4IDM0OS42NiwyMjcuMzggMzQ5LjgyLDIyNy40MSAzNDkuNjIsMjI3LjM4IDM1MC4wNiwyMjcuNDMgMzQ5Ljk0LDIyNy40MiAzNTAuMiwyMjcuNDMgMzUwLjE0LDIyNy40MiAzNTAuNCwyMjcuNDIgMzUwLjM2LDIyNy40MiAzNTAuNjIsMjI3LjQyIDM1MC41OCwyMjcuNDIgMzUwLjg1LDIyNy40IDM1MC44LDIyNy40MSAzNTEuMDgsMjI3LjM5IDM1MS4wNCwyMjcuMzkgMzUxLjMyLDIyNy4zNiAzNTEuMjcsMjI3LjM3IDM1MS41NSwyMjcuMzMgMzUxLjUxLDIyNy4zNCAzNTEuNzgsMjI3LjI5IDM1MS43NCwyMjcuMyAzNTIuMDEsMjI3LjI1IDM1MS45NiwyMjcuMjYgMzUyLjIzLDIyNy4yMSAzNTIuMTgsMjI3LjIyIDM1Mi40NCwyMjcuMTYgMzUyLjQsMjI3LjE3IDM1Mi42NSwyMjcuMSAzNTIuNTksMjI3LjEyIDM1Mi44MywyMjcuMDUgMzUyLjc3LDIyNy4wNyAzNTMsMjI2Ljk5IDM1Mi45MiwyMjcuMDIgMzUzLjE0LDIyNi45MyAzNTMuMDcsMjI2Ljk2IDM1My4yNywyMjYuODggMzUzLjIxLDIyNi45IDM1My40MSwyMjYuODEgMzUzLjM3LDIyNi44MyAzNTMuNTcsMjI2LjczIDM1My41MywyMjYuNzUgMzUzLjcyLDIyNi42NCAzNTMuNjgsMjI2LjY3IDM1My44NiwyMjYuNTYgMzUzLjgzLDIyNi41OCAzNTQsMjI2LjQ3IDM1My45NywyMjYuNDkgMzU0LjE0LDIyNi4zOCAzNTQuMSwyMjYuNDEgMzU0LjI2LDIyNi4zIDM1NC4yMiwyMjYuMzMgMzU0LjM3LDIyNi4yMiAzNTQuMzMsMjI2LjI1IDM1NC40OCwyMjYuMTQgMzU0LjQ0LDIyNi4xNyAzNTQuNTgsMjI2LjA2IDM1NC41MiwyMjYuMSAzNTQuNjUsMjI1Ljk5IDM1NC42MSwyMjYuMDMgMzU0LjcyLDIyNS45MiAzNTQuNjYsMjI1Ljk4IDM1NC43NywyMjUuODcgMzU0LjcxLDIyNS45NCAzNTQuOCwyMjUuODMgMzU0Ljc1LDIyNS45IDM1NC44MywyMjUuOCAzNTQuNzUsMjI1LjkgMzU0LjgyLDIyNS44IDM1NC43NSwyMjUuOTEgMzU0LjgsMjI1LjgyIDM1NC43MiwyMjUuOTcgMzU0Ljc2LDIyNS44OSAzNTQuNjgsMjI2LjA5IDM1NC43MSwyMjYuMDEgMzU0LjYzLDIyNi4yOCAzNTQuNjUsMjI2LjIgMzU0LjYyLDIyNi41NCAzNTQuNjIsMjI2LjQ3IDM1NC42OCwyMjYuOTQgMzU0LjY2LDIyNi44OCAzNTQuODUsMjI3LjMzIDM1NC44MiwyMjcuMjggMzU1LjEzLDIyNy42OCAzNTUuMDgsMjI3LjY0IDM1NS40NCwyMjcuOSAzNTUuMzcsMjI3Ljg3IDM1NS42OSwyMjguMDEgMzU1LjYxLDIyNy45OSAzNTUuOCwyMjguMDQgMzU1Ljc2LDIyOC4wMyAzNTUuODksMjI4LjA2IDM1NS44NCwyMjguMDUgMzU1LjkzLDIyOC4wNiAzNTUuODgsMjI4LjA2IDM1NS45NiwyMjguMDYgMzU1LjksMjI4LjA2IDM1NS45OSwyMjguMDYgMzU1LjkyLDIyOC4wNiAzNTYsMjI4LjA2IDM1NS45MywyMjguMDYgMzU1Ljk4LDIyOC4wNiAzNTUuOTEsMjI4LjA3IDM1NS45NywyMjguMDYgMzU1Ljg5LDIyOC4wNyAzNTUuOTQsMjI4LjA2IDM1NS44NiwyMjguMDcgMzU1LjkxLDIyOC4wNyAzNTUuODIsMjI4LjA4IDM1NS44NywyMjguMDcgMzU1Ljc4LDIyOC4wOSAzNTUuOCwyMjguMDggMzU1LjcsMjI4LjEgMzU1LjcxLDIyOC4xIDM1NS40OCwyMjguMTUgMzU1LjQ2LDIyOC4xNSAzNTUuMjQsMjI4LjE5IDM1NS4yMSwyMjguMiAzNTUsMjI4LjIzIDM1NC45OCwyMjguMjQgMzU0Ljc3LDIyOC4yNyAzNTQuNzUsMjI4LjI4IDM1NC41NCwyMjguMzEgMzU0LjUyLDIyOC4zMSAzNTQuMzIsMjI4LjM0IDM1NC4zLDIyOC4zNCAzNTQuMTEsMjI4LjM3IDM1NC4wOCwyMjguMzcgMzUzLjksMjI4LjM5IDM1My44NywyMjguMzkgMzUzLjY5LDIyOC40MSAzNTMuNjcsMjI4LjQxIDM1My41LDIyOC40MyAzNTMuNDcsMjI4LjQzIDM1My4zLDIyOC40NCAzNTMuMjcsMjI4LjQ0IDM1My4xMSwyMjguNDUgMzUzLjA4LDIyOC40NSAzNTIuOTIsMjI4LjQ2IDM1Mi45LDIyOC40NiAzNTIuNzUsMjI4LjQ2IDM1Mi43MiwyMjguNDYgMzUyLjU4LDIyOC40NyAzNTIuNTQsMjI4LjQ3IDM1Mi40LDIyOC40NiAzNTIuMzcsMjI4LjQ2IDM1Mi4yMywyMjguNDYgMzUyLjIsMjI4LjQ2IDM1Mi4wNywyMjguNDUgMzUyLjAzLDIyOC40NSAzNTEuOTEsMjI4LjQ0IDM1MS44NywyMjguNDQgMzUxLjc1LDIyOC40MyAzNTEuNzEsMjI4LjQzIDM1MS41OSwyMjguNDEgMzUxLjU2LDIyOC40MSAzNTEuNDUsMjI4LjQgMzUxLjQxLDIyOC4zOSAzNTEuMzEsMjI4LjM3IDM1MS4yNywyMjguMzcgMzUxLjE3LDIyOC4zNSAzNTEuMSwyMjguMzQgMzUwLjkxLDIyOC4zIDM1MC44MiwyMjguMjggMzUwLjY1LDIyOC4yMyAzNTAuNTYsMjI4LjIxIDM1MC40MSwyMjguMTYgMzUwLjMsMjI4LjEyIDM1MC4xNiwyMjguMDcgMzUwLjA2LDIyOC4wMyAzNDkuOTQsMjI3Ljk3IDM0OS44NCwyMjcuOTIgMzQ5LjczLDIyNy44NyAzNDkuNjIsMjI3LjgxIDM0OS41MiwyMjcuNzUgMzQ5LjQzLDIyNy42OCAzNDkuMzQsMjI3LjYyIDM0OS4yNCwyMjcuNTUgMzQ5LjE3LDIyNy40OSAzNDkuMDcsMjI3LjQxIDM0OS4wMSwyMjcuMzUgMzQ4LjkyLDIyNy4yNiAzNDguODYsMjI3LjIgMzQ4Ljc4LDIyNy4xIDM0OC43MywyMjcuMDUgMzQ4LjY2LDIyNi45NiAzNDguNjMsMjI2LjkxIDM0OC41NiwyMjYuODEgMzQ4LjUzLDIyNi43NyAzNDguNDcsMjI2LjY2IDM0OC40NCwyMjYuNjIgMzQ4LjM5LDIyNi41IDM0OC4zNywyMjYuNDcgMzQ4LjM0LDIyNi4zOCAzNDguMzIsMjI2LjM1IDM0OC4yOSwyMjYuMjUgMzQ4LjI4LDIyNi4yMyAzNDguMjcsMjI2LjIgMzQ4LjI3LDIyNi4xOSAzNDguMjEsMjI1Ljk0IDM0OC4yLDIyNS45MyAzNDguNDgsMjI0LjYxIDM0OC45NywyMjMuODcgMzQ4Ljk0LDIyMy45MSAzNDkuNDEsMjIzLjE2IDM0OS4zOSwyMjMuMiAzNDkuODMsMjIyLjQ0IDM0OS44MSwyMjIuNDggMzUwLjI0LDIyMS43MSAzNTAuMjIsMjIxLjc1IDM1MC42MywyMjAuOTggMzUwLjYyLDIyMS4wMSAzNTEuMDEsMjIwLjI0IDM1MC45OSwyMjAuMjcgMzUxLjM2LDIxOS41IDM1MS4zNSwyMTkuNTMgMzUxLjcsMjE4Ljc2IDM1MS42OSwyMTguNzkgMzUyLjAyLDIxOC4wMiAzNTIsMjE4LjA1IDM1Mi4zMiwyMTcuMjggMzUyLjMxLDIxNy4zMiAzNTIuNiwyMTYuNTUgMzUyLjU5LDIxNi41OSAzNTIuODYsMjE1LjgzIDM1Mi44NSwyMTUuODcgMzUzLjEsMjE1LjEyIDM1My4wOSwyMTUuMTYgMzUzLjMyLDIxNC40MiAzNTMuMzEsMjE0LjQ1IDM1My41MywyMTMuNzMgMzUzLjUxLDIxMy43NyAzNTMuNzEsMjEzLjA1IDM1My43LDIxMy4wOSAzNTMuODcsMjEyLjQgMzUzLjg2LDIxMi40NCAzNTQuMDEsMjExLjc2IDM1NCwyMTEuODEgMzU0LjEzLDIxMS4xNSAzNTQuMTIsMjExLjIgMzU0LjIyLDIxMC41NiAzNTQuMjIsMjEwLjYxIDM1NC4zLDIxMCAzNTQuMywyMTAuMDUgMzU0LjM2LDIwOS40NiAzNTQuMzUsMjA5LjUzIDM1NC4zOSwyMDguOTYgMzU0LjM5LDIwOS4wMyAzNTQuNDEsMjA4LjQ5IDM1NC40MSwyMDguNTcgMzU0LjQxLDIwOC4wNyAzNTQuNDEsMjA4LjE1IDM1NC4zOCwyMDcuNjggMzU0LjM5LDIwNy43OCAzNTQuMzQsMjA3LjM0IDM1NC4zNiwyMDcuNDYgMzU0LjI5LDIwNy4wNSAzNTQuMzIsMjA3LjE5IDM1NC4yMiwyMDYuODIgMzU0LjI3LDIwNi45OCAzNTQuMTUsMjA2LjY1IDM1NC4yMywyMDYuODQgMzU0LjA5LDIwNi41NSAzNTQuMjEsMjA2Ljc2IDM1NC4wNSwyMDYuNTIgMzU0LjE1LDIwNi42NSAzNTMuOSwyMDYuMzUgMzUzLjk0LDIwNi40IDM1My42OSwyMDYuMTEgMzUzLjczLDIwNi4xNiAzNTMuNDgsMjA1Ljg4IDM1My41MiwyMDUuOTIgMzUzLjI2LDIwNS42NiAzNTMuMzEsMjA1LjcxIDM1My4wNCwyMDUuNDYgMzUzLjA5LDIwNS41IDM1Mi44MiwyMDUuMjYgMzUyLjg3LDIwNS4zIDM1Mi42LDIwNS4wOCAzNTIuNjUsMjA1LjEyIDM1Mi4zNywyMDQuOTEgMzUyLjQyLDIwNC45NSAzNTIuMTQsMjA0Ljc1IDM1Mi4xOSwyMDQuNzggMzUxLjkxLDIwNC41OSAzNTEuOTgsMjA0LjY0IDM1MS40MSwyMDQuMyAzNTEuNTEsMjA0LjM2IDM1MC45MywyMDQuMDYgMzUxLjAzLDIwNC4xMSAzNTAuNDUsMjAzLjg1IDM1MC41NSwyMDMuODkgMzQ5Ljk2LDIwMy42NyAzNTAuMDUsMjAzLjcgMzQ5LjQ2LDIwMy41MiAzNDkuNTUsMjAzLjU0IDM0OC45NiwyMDMuMzkgMzQ5LjA1LDIwMy40MSAzNDguNDYsMjAzLjMgMzQ4LjU1LDIwMy4zMSAzNDcuOTcsMjAzLjIyIDM0OC4wNSwyMDMuMjMgMzQ3LjQ4LDIwMy4xNyAzNDcuNTUsMjAzLjE4IDM0Ni45OCwyMDMuMTQgMzQ3LjA1LDIwMy4xNCAzNDYuNSwyMDMuMTIgMzQ2LjU3LDIwMy4xMiAzNDYuMDMsMjAzLjEzIDM0Ni4wOSwyMDMuMTMgMzQ1LjU3LDIwMy4xNSAzNDUuNjMsMjAzLjE0IDM0NS4xMywyMDMuMTggMzQ1LjE4LDIwMy4xNyAzNDQuNzEsMjAzLjIyIDM0NC43NiwyMDMuMjIgMzQ0LjMsMjAzLjI3IDM0NC4zNSwyMDMuMjcgMzQzLjkyLDIwMy4zMyAzNDMuOTYsMjAzLjMzIDM0My41NiwyMDMuNCAzNDMuNjEsMjAzLjM5IDM0My4yNCwyMDMuNDYgMzQzLjI3LDIwMy40NiAzNDIuOTQsMjAzLjUzIDM0Mi45NywyMDMuNTIgMzQyLjY3LDIwMy42IDM0Mi43MSwyMDMuNTkgMzQyLjQ1LDIwMy42NiAzNDIuNDgsMjAzLjY1IDM0Mi4yNiwyMDMuNzEgMzQyLjI5LDIwMy43IDM0Mi4xMSwyMDMuNzYgMzQyLjE0LDIwMy43NSAzNDIuMDEsMjAzLjc5IDM0Mi4wNSwyMDMuNzggMzQyLDIwMy43OSAzNDIuMDEsMjAzLjc5IDM0MS45OCwyMDMuOCAzNDIuMDMsMjAzLjc4IDM0MiwyMDMuNzkgMzQyLjA3LDIwMy43NyAzNDIuMDUsMjAzLjc3IDM0MS41MywyMDMuOTIgMzQxLjQ4LDIwMy45MiAzNDAuOSwyMDMuOTEgMzQwLjUzLDIwMy44MyAzNDAuNTcsMjAzLjg0IDM0MC4xOSwyMDMuNzggMzQwLjIzLDIwMy43OCAzMzkuODMsMjAzLjczIDMzOS44OCwyMDMuNzMgMzM5LjQ3LDIwMy42OCAzMzkuNTEsMjAzLjY5IDMzOS4wOSwyMDMuNjUgMzM5LjEzLDIwMy42NSAzMzguNywyMDMuNjIgMzM4Ljc1LDIwMy42MyAzMzguMywyMDMuNiAzMzguMzQsMjAzLjYxIDMzNy44OCwyMDMuNTkgMzM3LjkzLDIwMy41OSAzMzcuNTIsMjAzLjYgMzM3LjU5LDIwMy41OSAzMzcuMTksMjAzLjYxIDMzNy4yNSwyMDMuNjEgMzM2Ljg2LDIwMy42NCAzMzYuOTMsMjAzLjYzIDMzNi41NiwyMDMuNjcgMzM2LjYzLDIwMy42NiAzMzYuMjcsMjAzLjcyIDMzNi4zNCwyMDMuNzEgMzM1Ljk4LDIwMy43OCAzMzYuMDYsMjAzLjc2IDMzNS43MSwyMDMuODUgMzM1Ljc5LDIwMy44MyAzMzUuNDYsMjAzLjkyIDMzNS41NCwyMDMuOSAzMzUuMjIsMjA0LjAxIDMzNS4yOSwyMDMuOTggMzM0Ljk4LDIwNC4xIDMzNS4wNSwyMDQuMDcgMzM0Ljc1LDIwNC4yIDMzNC44MywyMDQuMTcgMzM0LjU0LDIwNC4zMSAzMzQuNjEsMjA0LjI4IDMzNC4zMywyMDQuNDMgMzM0LjQsMjA0LjM5IDMzNC4xMywyMDQuNTUgMzM0LjIsMjA0LjUxIDMzMy45NCwyMDQuNjggMzM0LDIwNC42NCAzMzMuNzUsMjA0LjgyIDMzMi4wMiwyMDUuMDUgMzMyLjAxLDIwNS4wNSAzMzEuOTUsMjA1LjAyIDMzMS45MSwyMDUuMDEgMzMxLjkzLDIwNS4wMiAzMzEuODgsMjA1IDMzMS45LDIwNS4wMSAzMzEuODIsMjA0Ljk4IDMzMS44NCwyMDQuOTggMzMxLjc1LDIwNC45NSAzMzEuNjMsMjA0LjkgMzMxLjY1LDIwNC45MSAzMzEuNTEsMjA0Ljg2IDMzMS41MiwyMDQuODcgMzMxLjM3LDIwNC44MSAzMzEuMzgsMjA0LjgyIDMzMS4yMSwyMDQuNzYgMzMxLjIzLDIwNC43NiAzMzEuMDQsMjA0LjcgMzMxLjA1LDIwNC43IDMzMC44NSwyMDQuNjQgMzMwLjg3LDIwNC42NCAzMzAuNjUsMjA0LjU4IDMzMC42NiwyMDQuNTggMzMwLjQzLDIwNC41MSAzMzAuNDUsMjA0LjUyIDMzMC4yLDIwNC40NSAzMzAuMjIsMjA0LjQ1IDMyOS45NiwyMDQuMzggMzI5Ljk4LDIwNC4zOCAzMjkuNzEsMjA0LjMxIDMyOS43NCwyMDQuMzIgMzI5LjE2LDIwNC4xOCAzMjkuMjEsMjA0LjE5IDMyOC41OSwyMDQuMDUgMzI4LjY0LDIwNC4wNiAzMjcuOTksMjAzLjk0IDMyOC4wNSwyMDMuOTUgMzI3LjM3LDIwMy44NSAzMjcuNDQsMjAzLjg2IDMyNi43MywyMDMuNzggMzI2LjgxLDIwMy43OCAzMjYuMDksMjAzLjczIDMyNi4xOCwyMDMuNzQgMzI1LjQ1LDIwMy43MiAzMjUuNTUsMjAzLjcyIDMyNC44MSwyMDMuNzQgMzI0LjksMjAzLjczIDMyNC41MywyMDMuNzYgMzI0LjU5LDIwMy43NSAzMjQuMjIsMjAzLjc5IDMyNC4yOSwyMDMuNzggMzIzLjkyLDIwMy44MyAzMjMuOTksMjAzLjgyIDMyMy42MywyMDMuODggMzIzLjcsMjAzLjg3IDMyMy4zNCwyMDMuOTQgMzIzLjQyLDIwMy45MyAzMjMuMDcsMjA0LjAyIDMyMy4xNCwyMDQgMzIyLjc5LDIwNC4xIDMyMi44NywyMDQuMDcgMzIyLjUzLDIwNC4xOSAzMjIuNjIsMjA0LjE2IDMyMi4yOCwyMDQuMyAzMjIuMzcsMjA0LjI2IDMyMi4wNCwyMDQuNDEgMzIyLjEzLDIwNC4zNyAzMjEuODEsMjA0LjU0IDMyMS45LDIwNC40OSAzMjEuNTksMjA0LjY4IDMyMS42OCwyMDQuNjIgMzIxLjM4LDIwNC44MiAzMjEuNDcsMjA0Ljc2IDMyMS4xOCwyMDQuOTkgMzIxLjI2LDIwNC45MSAzMjAuOTgsMjA1LjE2IDMyMS4wNiwyMDUuMDggMzIwLjgsMjA1LjM1IDMyMC44OCwyMDUuMjYgMzIwLjYyLDIwNS41NSAzMjAuNywyMDUuNDYgMzIwLjQ1LDIwNS43NyAzMjAuNTIsMjA1LjY4IDMyMC4yOSwyMDYuMDEgMzIwLjM2LDIwNS45MiAzMjAuMTQsMjA2LjI3IDMyMC4yLDIwNi4xNyAzMjAsMjA2LjU1IDMyMC4wNSwyMDYuNDUgMzE5Ljg3LDIwNi44NiAzMTkuOTEsMjA2Ljc2IDMxOS43NCwyMDcuMTkgMzE5Ljc4LDIwNy4wOSAzMTkuNjMsMjA3LjU1IDMxOS42NSwyMDcuNDYgMzE5LjUzLDIwNy45NCAzMTkuNTUsMjA3Ljg0IDMxOS40NCwyMDguMzUgMzE5LjQ2LDIwOC4yNyAzMTkuMzcsMjA4LjggMzE5LjM4LDIwOC43MiAzMTkuMzEsMjA5LjI4IDMxOS4zMiwyMDkuMiAzMTkuMjcsMjA5LjggMzE5LjI4LDIwOS43MiAzMTkuMjUsMjEwLjM0IDMxOS4yNSwyMTAuMjcgMzE5LjI1LDIxMC45MiAzMTkuMjUsMjEwLjg2IDMxOS4yOCwyMTEuNTQgMzE5LjI3LDIxMS40OCAzMTkuMjgsMjExLjY0IDMxOS4yOCwyMTEuNTkgMzE5LjMsMjExLjc4IDMxOS4yOSwyMTEuNzUgMzE5LjMyLDIxMS45NiAzMTkuMzEsMjExLjkzIDMxOS4zNCwyMTIuMTYgMzE5LjM0LDIxMi4xNCAzMTkuMzcsMjEyLjQgMzE5LjM3LDIxMi4zNyAzMTkuNDEsMjEyLjY0IDMxOS40MSwyMTIuNjMgMzE5LjQ1LDIxMi45MyAzMTkuNDUsMjEyLjkxIDMxOS41LDIxMy4yMyAzMTkuNSwyMTMuMjEgMzE5LjU2LDIxMy41NCAzMTkuNTYsMjEzLjUzIDMxOS42MiwyMTMuODggMzE5LjYxLDIxMy44NiAzMTkuNjgsMjE0LjIyIDMxOS42OCwyMTQuMjEgMzE5Ljc1LDIxNC41OSAzMTkuNzUsMjE0LjU4IDMxOS44MywyMTQuOTcgMzE5LjgzLDIxNC45NiAzMTkuOTEsMjE1LjM2IDMxOS45MSwyMTUuMzQgMzIwLjA5LDIxNi4xOCAzMjAuMDksMjE2LjE2IDMyMC4yOSwyMTcuMDQgMzIwLjI4LDIxNy4wMSAzMjAuNTEsMjE3LjkyIDMyMC41LDIxNy45IDMyMC43NCwyMTguODMgMzIwLjczLDIxOC44IDMyMC45OSwyMTkuNzQgMzIwLjk4LDIxOS43MiAzMjEuMjYsMjIwLjY2IDMyMS4yNSwyMjAuNjMgMzIxLjU0LDIyMS41NyAzMjEuNTMsMjIxLjU0IDMyMS44NCwyMjIuNDggMzIxLjgzLDIyMi40NCAzMjIuMTUsMjIzLjM1IDMyMi4xMywyMjMuMzEgMzIyLjQ3LDIyNC4xOSAzMjIuNDUsMjI0LjE1IDMyMi44MSwyMjUgMzIyLjc5LDIyNC45NSAzMjIuOTcsMjI1LjM2IDMyMi45NSwyMjUuMzMgMzIzLjE0LDIyNS43MyAzMjMuMTIsMjI1LjcgMzIzLjMxLDIyNi4wOCAzMjMuMjksMjI2LjA0IDMyMy40OCwyMjYuNDEgMzIzLjQ2LDIyNi4zNyAzMjMuNjYsMjI2LjczIDMyMy42NCwyMjYuNjkgMzIzLjgzLDIyNy4wMyAzMjMuOCwyMjYuOTggMzI0LDIyNy4zIDMyMy45NywyMjcuMjUgMzI0LjE3LDIyNy41NSAzMjQuMTMsMjI3LjQ5IDMyNC4zNCwyMjcuNzggMzI0LjI5LDIyNy43MiAzMjQuNSwyMjcuOTggMzI0LjQ1LDIyNy45MSAzMjQuNjYsMjI4LjE2IDMyNC41OSwyMjguMDggMzI0LjgsMjI4LjMgMzI0LjcyLDIyOC4yMyAzMjQuOTQsMjI4LjQyIDMyNC44NCwyMjguMzQgMzI1LjA2LDIyOC41MSAzMjQuOTQsMjI4LjQyIDMyNS4xNiwyMjguNTcgMzI1LjAyLDIyOC40OCAzMjUuMjQsMjI4LjYxIDMyNS4wNiwyMjguNTIgMzI1LjI5LDIyOC42MiAzMjUuMSwyMjguNTUgMzI1LjMyLDIyOC42MSAzMjUuMDksMjI4LjU2IDMyNS4zMiwyMjguNiAzMjUuMDgsMjI4LjU4IDMyNS4zMSwyMjguNTggMzI1LjA3LDIyOC41OSAzMjUuMywyMjguNTcgMzI1LjA2LDIyOC42MSAzMjUuMjksMjI4LjU1IDMyNS4wNiwyMjguNjMgMzI1LjMsMjI4LjUzIDMyNS4xMSwyMjguNjIgMzI1LjM0LDIyOC41IDMyNS4xNywyMjguNiAzMjUuNDEsMjI4LjQ0IDMyNS4yNywyMjguNTQgMzI1LjUxLDIyOC4zNCAzMjUuNCwyMjguNDQgMzI1LjY0LDIyOC4yMSAzMjUuNTUsMjI4LjMxIDMyNS43OSwyMjguMDMgMzI1Ljc2LDIyOC4wNyAzMjYuMTEsMjI3LjY1IDMyNi4xMiwyMjcuNjQgMzI2LjQ4LDIyNy4yMiAzMjYuNDgsMjI3LjIxIDMyNi44MywyMjYuODEgMzI2LjgzLDIyNi44MSAzMjcuMTcsMjI2LjQyIDMyNy4xOCwyMjYuNDEgMzI3LjM0LDIyNi4yMyAzMjcuMzUsMjI2LjIyIDMyNy41MSwyMjYuMDQgMzI3LjY2LDIyNS44NiAzMjcuODIsMjI1LjY4IDMyNy44MywyMjUuNjggMzI3Ljk3LDIyNS41MSAzMjguMTIsMjI1LjM1IDMyOC4yNiwyMjUuMiAzMjguMjcsMjI1LjE5IDMyOC40LDIyNS4wNCAzMjguNTMsMjI0LjkgMzI4LjY1LDIyNC43NiAzMjguNzcsMjI0LjYzIDMyOC43NywyMjQuNjMgMzI4Ljg4LDIyNC41MSAzMjguOTksMjI0LjQgMzI4Ljk5LDIyNC4zOSAzMjkuMDksMjI0LjI5IDMyOS4wOCwyMjQuMjkgMzI5LjE3LDIyNC4yIDMyOS4xOCwyMjQuMTkgMzI5LjI2LDIyNC4xIDMyOS4zMywyMjQuMDMgMzI5LjQsMjIzLjk2IDMyOS40NSwyMjMuOSAzMjkuNSwyMjMuODUgMzI5LjU0LDIyMy44MSAzMjkuNTcsMjIzLjc4IDMyOS42LDIyMy43NCAzMjkuNjIsMjIzLjcyIDMyOS41MywyMjMuODEgMzI5LjU0LDIyMy44MSAzMzEuOTMsMjIzLjQ3IDMzMi4xLDIyMy41OCAzMzIuMDQsMjIzLjU0IDMzMi4yMiwyMjMuNjQgMzMyLjE1LDIyMy42IDMzMi4zMywyMjMuNyAzMzIuMjcsMjIzLjY3IDMzMi40NSwyMjMuNzYgMzMyLjM4LDIyMy43MiAzMzIuNTcsMjIzLjgxIDMzMi41LDIyMy43OCAzMzIuNjksMjIzLjg1IDMzMi42MiwyMjMuODIgMzMyLjgxLDIyMy44OSAzMzIuNzMsMjIzLjg3IDMzMi45MywyMjMuOTIgMzMyLjg2LDIyMy45IDMzMy4wNiwyMjMuOTUgMzMyLjk4LDIyMy45MyAzMzMuMTgsMjIzLjk3IDMzMy4xLDIyMy45NiAzMzMuMywyMjMuOTkgMzMzLjIyLDIyMy45OCAzMzMuNDMsMjI0IDMzMy4zNSwyMjMuOTkgMzMzLjU2LDIyNC4wMSAzMzMuNDcsMjI0IDMzMy42OSwyMjQuMDEgMzMzLjYsMjI0LjAxIDMzMy44MSwyMjQgMzMzLjczLDIyNCAzMzMuOTUsMjIzLjk5IDMzMi44OCwyMjQuNDMgMzMyLjk2LDIyNC4zNiAzMzYuMDIsMjI1Ljg1IDMzNi4wMSwyMjYuMDcgMzM2LjAyLDIyNS45NSAzMzYuMDIsMjI2LjE3IDMzNi4wMSwyMjYuMDYgMzM2LjAzLDIyNi4yOSAzMzYuMDIsMjI2LjIyIDMzNi4wNCwyMjYuMzMgMzM2LjAzLDIyNi4yOSAzMzYuMDUsMjI2LjQxIDMzNS42LDIyNy44OCAzMzUuNDgsMjI4LjAyIDMzNS41LDIyOCAzMzUuMzgsMjI4LjEyIDMzNS40LDIyOC4xMSAzMzUuMywyMjguMjMgMzM1LjMxLDIyOC4yMiAzMzUuMjEsMjI4LjM0IDMzNS4yMiwyMjguMzIgMzM1LjEzLDIyOC40MyAzMzUuMTUsMjI4LjQyIDMzNS4wNiwyMjguNTIgMzM1LjA2LDIyOC41MiAzMzQuOTksMjI4LjYyIDMzNC45OCwyMjguNjMgMzM0LjkxLDIyOC43MiAzMzQuOSwyMjguNzMgMzM0LjgzLDIyOC44MiAzMzQuODIsMjI4LjgzIDMzNC43NSwyMjguOTEgMzM0LjcyLDIyOC45NSAzMzQuNTgsMjI5LjExIDMzNC41MSwyMjkuMTkgMzM0LjM3LDIyOS4zMyAzMzQuMjYsMjI5LjQzIDMzNC4xMiwyMjkuNTYgMzM0LjAyLDIyOS42NCAzMzMuOTQsMjI5LjcgMzMzLjg2LDIyOS43NiAzMzMuNzgsMjI5LjgxIDMzMy43MiwyMjkuODYgMzMzLjYzLDIyOS45MSAzMzMuNTQsMjI5Ljk2IDMzMy40NCwyMzAuMDEgMzMzLjM4LDIzMC4wNSAzMzMuMjgsMjMwLjEgMzMzLjIxLDIzMC4xMyAzMzMuMSwyMzAuMTggMzMzLjAzLDIzMC4yMSAzMzIuOTEsMjMwLjI2IDMzMi44NiwyMzAuMjggMzMyLjczLDIzMC4zMyAzMzIuNjgsMjMwLjM0IDMzMi41NCwyMzAuMzkgMzMyLjQ5LDIzMC40IDMzMi4zNCwyMzAuNDUgMzMyLjMsMjMwLjQ2IDMzMi4xMywyMzAuNTEgMzMyLjEsMjMwLjUyIDMzMS45MiwyMzAuNTcgMzMxLjg5LDIzMC41NyAzMzEuNjksMjMwLjYyIDMzMS42OCwyMzAuNjIgMzMxLjQ2LDIzMC42NyAzMzEuNDQsMjMwLjY4IDMzMS4yMSwyMzAuNzMgMzMxLjIsMjMwLjczIDMzMS4wOCwyMzAuNzYgMzMwLjk1LDIzMC43OCAzMzAuOTcsMjMwLjc4IDMzMC44NCwyMzAuODEgMzMwLjg2LDIzMC44IDMzMC43NCwyMzAuODMgMzMwLjc3LDIzMC44MiAzMzAuNjYsMjMwLjg1IDMzMC43MSwyMzAuODQgMzMwLjYxLDIzMC44NyAzMzAuNjIsMjMwLjg2IDMzMC41MiwyMzAuODkgMzMwLjU3LDIzMC44OCAzMzAuNDgsMjMwLjkgMzMwLjUxLDIzMC44OSAzMzAuNDIsMjMwLjkyIDMzMC40NywyMzAuOTEgMzMwLjM5LDIzMC45NCAzMzAuNDMsMjMwLjkyIDMzMC4zNSwyMzAuOTUgMzMwLjQxLDIzMC45MyAzMzAuMzQsMjMwLjk2IDMzMC4zOCwyMzAuOTQgMzMwLjMxLDIzMC45NyAzMzAuMzgsMjMwLjk0IDMzMC4zMiwyMzAuOTcgMzMwLjM3LDIzMC45NCAzMzAuMzIsMjMwLjk3IDMzMC40LDIzMC45MiAzMzAuMzUsMjMwLjk2IDMzMC40MSwyMzAuOTEgMzMwLjM2LDIzMC45NSAzMzAuNDMsMjMwLjkgMzMwLjM5LDIzMC45MyAzMzAuNSwyMzAuODQgMzMwLjQ2LDIzMC44OCAzMzAuNTQsMjMwLjggMzMwLjUxLDIzMC44MyAzMzAuNjMsMjMwLjcgMzMwLjU3LDIzMC43NiAzMzAuNzUsMjMwLjUxIDMzMC43MSwyMzAuNTcgMzMwLjg2LDIzMC4yNSAzMzAuODMsMjMwLjMyIDMzMC45MiwyMjkuOTUgMzMwLjkxLDIzMC4wMSAzMzAuOTIsMjI5LjY1IDMzMC45MywyMjkuNzIgMzMwLjg2LDIyOS4zNyAzMzAuODgsMjI5LjQ0IDMzMC43OSwyMjkuMTcgMzMwLjgyLDIyOS4yMyAzMzAuNywyMjkuMDEgMzMwLjc0LDIyOS4wOCAzMzAuNjIsMjI4LjkxIDMzMC42NywyMjguOTcgMzMwLjU2LDIyOC44NCAzMzAuNjIsMjI4LjkxIDMzMC41MSwyMjguOCAzMzAuNTgsMjI4Ljg3IDMzMC41LDIyOC44IDMzMC41OCwyMjguODYgMzMwLjQ5LDIyOC43OSAzMzAuNTcsMjI4Ljg1IDMzMC41LDIyOC44IDMzMC41OCwyMjguODUgMzMwLjUyLDIyOC44MiAzMzAuNjEsMjI4Ljg3IDMzMC41MiwyMjguODIgMzMwLjcyLDIyOC45MiAzMzAuNjEsMjI4Ljg3IDMzMC44MSwyMjguOTUgMzMwLjcxLDIyOC45MiAzMzAuOTIsMjI4Ljk5IDMzMC44MSwyMjguOTUgMzMxLjAxLDIyOS4wMSAzMzAuOTMsMjI4Ljk5IDMzMS4wNSwyMjkuMDIgMzMxLjAzLDIyOS4wMiAzMzEuMTcsMjI5LjA1IDMzMS4xMywyMjkuMDQgMzMxLjI3LDIyOS4wNyAzMzEuMjUsMjI5LjA2IDMzMS40LDIyOS4wOSAzMzEuMzYsMjI5LjA4IDMzMS41MSwyMjkuMTEgMzMxLjQ4LDIyOS4xIDMzMS42NCwyMjkuMTMgMzMxLjYsMjI5LjEyIDMzMS43NywyMjkuMTQgMzMxLjczLDIyOS4xNCAzMzEuOTEsMjI5LjE2IDMzMS44NiwyMjkuMTUgMzMyLjA0LDIyOS4xNyAzMzEuOTksMjI5LjE2IDMzMi4xOCwyMjkuMTcgMzMyLjEzLDIyOS4xNyAzMzIuMzMsMjI5LjE4IDMzMi4yNywyMjkuMTggMzMyLjQ2LDIyOS4xNyAzMzIuNDEsMjI5LjE3IDMzMi42MSwyMjkuMTcgMzMyLjU1LDIyOS4xNyAzMzIuNzUsMjI5LjE1IDMzMi42OCwyMjkuMTYgMzMyLjg5LDIyOS4xNCAzMzIuODMsMjI5LjE1IDMzMy4wNCwyMjkuMTEgMzMyLjk3LDIyOS4xMyAzMzMuMTgsMjI5LjA5IDMzMy4xMSwyMjkuMSAzMzMuMzIsMjI5LjA1IDMzMy4yNCwyMjkuMDcgMzMzLjQ2LDIyOS4wMSAzMzMuMzgsMjI5LjAzIDMzMy42LDIyOC45NiAzMzMuNTIsMjI4Ljk5IDMzMy43NCwyMjguOTEgMzMzLjY2LDIyOC45NCAzMzMuODcsMjI4Ljg1IDMzMy43OCwyMjguODkgMzM0LDIyOC43OCAzMzMuOTIsMjI4LjgyIDMzNC4xNCwyMjguNyAzMzQuMDUsMjI4Ljc1IDMzNC4yNywyMjguNjIgMzM0LjE5LDIyOC42NyAzMzQuNCwyMjguNTIgMzM0LjMyLDIyOC41NyAzMzQuNTMsMjI4LjQxIDMzNC40NiwyMjguNDcgMzM0LjY2LDIyOC4yOSAzMzQuNTksMjI4LjM2IDMzNC43OSwyMjguMTYgMzM0LjczLDIyOC4yMyAzMzQuOTIsMjI4LjAyIDMzNC44OCwyMjguMDcgMzM0Ljk4LDIyNy45NSAzMzQuOTUsMjI3Ljk4IDMzNS4wNSwyMjcuODcgMzM1LjAxLDIyNy45MSAzMzUuMTEsMjI3Ljc5IDMzNS4wOCwyMjcuODIgMzM1LjE3LDIyNy42OSAzMzguNDYsMjI5LjIzIDMzOC4zOSwyMjkuNTQgMzM3Ljg4LDIyNy43NyAzMzcuOTIsMjI3LjgyIDMzOC4xMSwyMjguMDMgMzM4LjE2LDIyOC4wOSAzMzguMjcsMjI4LjI2IDMzOC4zMSwyMjguMzMgMzM4LjM5LDIyOC40OCAzMzguNDMsMjI4LjU2IDMzOC40OSwyMjguNyAzMzguNTMsMjI4Ljc5IDMzOC41NSwyMjguODcgMzM4LjU5LDIyOC45NyAzMzguNjEsMjI5LjA2IDMzOC42NSwyMjkuMTcgMzM4LjY2LDIyOS4yNSAzMzguNjksMjI5LjM3IDMzOC43LDIyOS40MiAzMzguNzMsMjI5LjU1IDMzOC43NCwyMjkuNjEgMzM4Ljc2LDIyOS43NCAzMzguNzcsMjI5Ljc4IDMzOC43OSwyMjkuOTIgMzM4Ljc5LDIyOS45NiAzMzguODEsMjMwLjExIDMzOC44MiwyMzAuMTQgMzM4LjgzLDIzMC4yOSAzMzguODQsMjMwLjMyIDMzOC44NSwyMzAuNDggMzM4Ljg1LDIzMC41MSAzMzguODcsMjMwLjY4IDMzOC44NywyMzAuNjkgMzM4Ljg4LDIzMC44NyAzMzguODksMjMwLjg5IDMzOC45MSwyMzEuMjUgMzM4LjkxLDIzMS4yOCAzMzguOTMsMjMxLjY1IDMzOC45MywyMzEuNjcgMzM4Ljk0LDIzMi4wNSAzMzguOTQsMjMyLjA2IDMzOC45NiwyMzIuNDQgMzM4Ljk3LDIzMi44MyAzMzguOTcsMjMyLjg0IDMzOC45OCwyMzMuMjIgMzM4Ljk4LDIzMy4yMSAzMzguOTksMjMzLjU4IDMzOC45OSwyMzMuNTcgMzM5LDIzMy45MyAzMzksMjMzLjkyIDMzOS4wMiwyMzQuMjcgMzM5LjAyLDIzNC4yNiAzMzkuMDMsMjM0LjYgMzM5LjA1LDIzNC45MyAzMzkuMDUsMjM0LjkyIDMzOS4wNywyMzUuMjUgMzM5LjA3LDIzNS4yNCAzMzkuMDksMjM1LjU2IDMzOS4wOSwyMzUuNTUgMzM5LjEyLDIzNS44NyAzMzkuMTIsMjM1Ljg1IDMzOS4xNCwyMzYuMTYgMzM5LjE0LDIzNi4xNCAzMzkuMTcsMjM2LjQ0IDMzOS4xNywyMzYuNDEgMzM5LjIsMjM2LjcxIDMzOS4yLDIzNi42NyAzMzkuMjQsMjM2Ljk2IDMzOS4yMywyMzYuOTIgMzM5LjI4LDIzNy4xOSAzMzkuMjcsMjM3LjE0IDMzOS4zMiwyMzcuNCAzMzkuMzEsMjM3LjM1IDMzOS4zNiwyMzcuNiAzMzkuMzQsMjM3LjU0IDMzOS40LDIzNy43NyAzMzkuMzgsMjM3LjcgMzM5LjQ1LDIzNy45MiAzMzkuNDIsMjM3Ljg0IDMzOS40OSwyMzguMDQgMzM5LjQ4LDIzOC4wMSAzMzkuNTIsMjM4LjExIDMzOS41MiwyMzguMTQgMzM5LjU2LDIzOC4yNSAzMzkuNTcsMjM4LjI2IDMzOS42LDIzOC4zOCAzMzkuNjEsMjM4LjM5IDMzOS42NSwyMzguNTEgMzM5LjY0LDIzOC41IDMzOS42OSwyMzguNjMgMzM5LjY4LDIzOC42MSAzMzkuNzMsMjM4Ljc1IDMzOS43MiwyMzguNzIgMzM5Ljc3LDIzOC44NiAzMzkuNzUsMjM4LjgyIDMzOS44MSwyMzguOTYgMzM5Ljc5LDIzOC45MiAzMzkuODUsMjM5LjA3IDMzOS44MywyMzkuMDIgMzM5Ljg5LDIzOS4xNiAzMzkuODcsMjM5LjExIDMzOS45NCwyMzkuMjYgMzM5LjkxLDIzOS4xOSAzMzkuOTgsMjM5LjM0IDMzOS45NSwyMzkuMjYgMzQwLjAzLDIzOS40MSAzMzkuOTgsMjM5LjM0IDM0MC4wOCwyMzkuNDggMzQwLjAyLDIzOS40IDM0MC4xMiwyMzkuNTMgMzQwLjA2LDIzOS40NiAzNDAuMTcsMjM5LjU5IDM0MC4xLDIzOS41IDM0MC4yMSwyMzkuNjMgMzQwLjEzLDIzOS41NCAzNDAuMjUsMjM5LjY2IDM0MC4xNiwyMzkuNTggMzQwLjMsMjM5LjcgMzQwLjE5LDIzOS42MiAzNDAuMzQsMjM5LjcyIDM0MC4yMywyMzkuNjQgMzQwLjM5LDIzOS43NCAzNDAuMjYsMjM5LjY3IDM0MC40NCwyMzkuNzYgMzQwLjMxLDIzOS43IDM0MC40OSwyMzkuNzggMzQwLjM2LDIzOS43MyAzNDAuNTYsMjM5LjggMzQwLjQyLDIzOS43NiAzNDAuNjQsMjM5LjgxIDM0MC41LDIzOS43OCAzNDAuNzIsMjM5LjgyIDM0MC42LDIzOS44IDM0MC44NCwyMzkuODMgMzQwLjcyLDIzOS44MiAzNDAuOTgsMjM5LjgzIDM0MC44NiwyMzkuODMgMzQxLjEzLDIzOS44MiAzNDEuMDUsMjM5LjgzIDM0MS4xOSwyMzkuODIgMzQxLjE0LDIzOS44MiAzNDEuMjksMjM5LjgxIDM0MS4yMywyMzkuODEgMzQxLjM4LDIzOS43OSAzNDEuMzQsMjM5LjggMzQxLjUsMjM5Ljc4IDM0MS40NCwyMzkuNzggMzQxLjYsMjM5Ljc2IDM0MS41NiwyMzkuNzYgMzQxLjczLDIzOS43MyAzNDEuNjksMjM5Ljc0IDM0MS45NywyMzkuNjggMzQxLjk0LDIzOS42OCAzNDIuMjIsMjM5LjYyIDM0Mi4xOCwyMzkuNjMgMzQyLjQ0LDIzOS41NiAzNDIuNDEsMjM5LjU3IDM0Mi42NywyMzkuNSAzNDIuNiwyMzkuNTIgMzQyLjg2LDIzOS40MyAzNDIuOCwyMzkuNDUgMzQzLjA2LDIzOS4zNiAzNDIuOTgsMjM5LjM5IDM0My4yMywyMzkuMjkgMzQzLjE1LDIzOS4zMyAzNDMuMzksMjM5LjIyIDM0My4zLDIzOS4yNiAzNDMuNTMsMjM5LjE0IDM0My40NCwyMzkuMTkgMzQzLjY3LDIzOS4wNiAzNDMuNTcsMjM5LjEyIDM0My43OSwyMzguOTcgMzQzLjcsMjM5LjAzIDM0My45MiwyMzguODcgMzQzLjg0LDIzOC45MyAzNDMuOTQsMjM4Ljg0IDM0My45LDIzOC44OCAzNDQsMjM4Ljc4IDM0My45NiwyMzguODMgMzQ0LjA2LDIzOC43MyAzNDQuMDEsMjM4Ljc3IDM0NC4xMSwyMzguNjcgMzQ0LjA3LDIzOC43MSAzNDQuMTcsMjM4LjYgMzQ0LjEyLDIzOC42NiAzNDQuMjIsMjM4LjU0IDM0NC4xOSwyMzguNTggMzQ0LjI4LDIzOC40NiAzNDQuMjQsMjM4LjUxIDM0NC4zMywyMzguMzkgMzQ0LjMsMjM4LjQzIDM0NC4zOSwyMzguMyAzNDQuMzYsMjM4LjM1IDM0NC40NCwyMzguMjIgMzQ0LjQxLDIzOC4yNyAzNDQuNSwyMzguMTIgMzQ0LjQ3LDIzOC4xNyAzNDQuNTYsMjM4LjAyIDM0NC41MywyMzguMDYgMzQ0LjYxLDIzNy45MSAzNDQuNTksMjM3Ljk1IDM0NC42NywyMzcuNzkgMzQ0LjY0LDIzNy44NCAzNDQuNzIsMjM3LjY3IDM0NC43LDIzNy43MSAzNDQuNzgsMjM3LjUzIDM0NC43NiwyMzcuNTggMzQ0LjgzLDIzNy40IDM0NC44MiwyMzcuNDMgMzQ0Ljg5LDIzNy4yNCAzNDQuODcsMjM3LjI5IDM0NC45NCwyMzcuMDkgMzQ0LjkzLDIzNy4xMiAzNDQuOTksMjM2LjkyIDM0NC45OCwyMzYuOTYgMzQ1LjA0LDIzNi43NSAzNDUuMDMsMjM2Ljc4IDM0NS4wOSwyMzYuNTYgMzQ1LjA4LDIzNi41OSAzNDUuMTQsMjM2LjM2IDM0NS4xMywyMzYuNCAzNDUuMTksMjM2LjE2IDM0NS4xOCwyMzYuMTkgMzQ1LjIzLDIzNS45NSAzNDUuMjMsMjM1Ljk4IDM0NS4yOCwyMzUuNzIgMzQ1LjI3LDIzNS43NSAzNDUuMzIsMjM1LjQ5IDM0NS4zMiwyMzUuNTIgMzQ1LjM2LDIzNS4yNSAzNDUuMzYsMjM1LjI3IDM0NS40LDIzNC45OSAzNDUuNCwyMzUuMDEgMzQ1LjQzLDIzNC43MiAzNDUuNDMsMjM0Ljc1IDM0NS40NywyMzQuNDUgMzQ1LjQ3LDIzNC40NyAzNDUuNSwyMzQuMTYgMzQ1LjUsMjM0LjE5IDM0NS41MywyMzMuODcgMzQ1LjUzLDIzMy44OSAzNDUuNTYsMjMzLjU2IDM0NS41NSwyMzMuNTggMzQ1LjU4LDIzMy4yNCAzNDUuNTgsMjMzLjI2IDM0NS42LDIzMi45MSAzNDUuNiwyMzIuOTMgMzQ1LjYyLDIzMi41NyAzNDUuNjIsMjMyLjU5IDM0NS42NCwyMzIuMjIgMzQ1LjY0LDIzMi4yNCAzNDUuNjUsMjMxLjg2IDM0NS42NSwyMzEuODcgMzQ1LjY2LDIzMS40OCAzNDkuMzYsMjMxLjU5IDM0OS4zNSwyMzEuOTggMzQ5LjM1LDIzMS45OSAzNDkuMzQsMjMyLjM3IDM0OS4zNCwyMzIuMzkgMzQ5LjMyLDIzMi43NiAzNDkuMzIsMjMyLjc4IDM0OS4zLDIzMy4xNCAzNDkuMywyMzMuMTYgMzQ5LjI3LDIzMy41IDM0OS4yNywyMzMuNTIgMzQ5LjI0LDIzMy44NiAzNDkuMjQsMjMzLjg4IDM0OS4yMSwyMzQuMjEgMzQ5LjIxLDIzNC4yMyAzNDkuMTgsMjM0LjU1IDM0OS4xOCwyMzQuNTcgMzQ5LjE0LDIzNC44OCAzNDkuMTQsMjM0LjkgMzQ5LjExLDIzNS4yIDM0OS4xLDIzNS4yMyAzNDkuMDYsMjM1LjUyIDM0OS4wNiwyMzUuNTQgMzQ5LjAyLDIzNS44MiAzNDkuMDEsMjM1Ljg1IDM0OC45NywyMzYuMTIgMzQ4Ljk2LDIzNi4xNSAzNDguOTIsMjM2LjQxIDM0OC45MSwyMzYuNDQgMzQ4Ljg2LDIzNi42OSAzNDguODUsMjM2LjcyIDM0OC44LDIzNi45NyAzNDguNzksMjM3IDM0OC43NCwyMzcuMjQgMzQ4LjczLDIzNy4yNyAzNDguNjcsMjM3LjUgMzQ4LjY3LDIzNy41MyAzNDguNjEsMjM3Ljc1IDM0OC42LDIzNy43OSAzNDguNTMsMjM4IDM0OC41MiwyMzguMDQgMzQ4LjQ1LDIzOC4yNSAzNDguNDQsMjM4LjI4IDM0OC4zOCwyMzguNDggMzQ4LjM2LDIzOC41MiAzNDguMjksMjM4LjcxIDM0OC4yOCwyMzguNzQgMzQ4LjIxLDIzOC45MyAzNDguMTksMjM4Ljk3IDM0OC4xMSwyMzkuMTUgMzQ4LjEsMjM5LjE5IDM0OC4wMiwyMzkuMzYgMzQ4LDIzOS40MSAzNDcuOTIsMjM5LjU3IDM0Ny45LDIzOS42MSAzNDcuODIsMjM5Ljc3IDM0Ny43OSwyMzkuODIgMzQ3LjcxLDIzOS45NiAzNDcuNjksMjQwLjAxIDM0Ny42LDI0MC4xNSAzNDcuNTcsMjQwLjIgMzQ3LjQ4LDI0MC4zNCAzNDcuNDUsMjQwLjM5IDM0Ny4zNiwyNDAuNTIgMzQ3LjMzLDI0MC41NiAzNDcuMjQsMjQwLjY5IDM0Ny4yLDI0MC43NCAzNDcuMSwyNDAuODYgMzQ3LjA3LDI0MC45IDM0Ni45OCwyNDEuMDEgMzQ2LjkzLDI0MS4wNyAzNDYuODQsMjQxLjE4IDM0Ni44LDI0MS4yMiAzNDYuNywyNDEuMzIgMzQ2LjY2LDI0MS4zNyAzNDYuNTYsMjQxLjQ3IDM0Ni41MSwyNDEuNTEgMzQ2LjQxLDI0MS42IDM0Ni4zNiwyNDEuNjQgMzQ2LjI2LDI0MS43MyAzNDYuMTgsMjQxLjc5IDM0NS45NywyNDEuOTYgMzQ1Ljg4LDI0Mi4wMyAzNDUuNjYsMjQyLjE4IDM0NS41NiwyNDIuMjQgMzQ1LjMzLDI0Mi4zNyAzNDUuMjQsMjQyLjQyIDM0NS4wMSwyNDIuNTQgMzQ0LjkyLDI0Mi41OSAzNDQuNjgsMjQyLjcgMzQ0LjYsMjQyLjczIDM0NC4zNiwyNDIuODMgMzQ0LjI5LDI0Mi44NiAzNDQuMDMsMjQyLjk1IDM0My45OCwyNDIuOTYgMzQzLjcyLDI0My4wNCAzNDMuNjYsMjQzLjA2IDM0My40LDI0My4xNCAzNDMuMzYsMjQzLjE1IDM0My4xLDI0My4yMSAzNDMuMDYsMjQzLjIyIDM0Mi43OSwyNDMuMjkgMzQyLjc3LDI0My4yOSAzNDIuNDksMjQzLjM1IDM0Mi40NSwyNDMuMzYgMzQyLjI5LDI0My4zOSAzNDIuMjUsMjQzLjQgMzQyLjA5LDI0My40MyAzNDIuMDQsMjQzLjQ0IDM0MS44OSwyNDMuNDYgMzQxLjg1LDI0My40NyAzNDEuNywyNDMuNDggMzQxLjY0LDI0My40OSAzNDEuNSwyNDMuNTEgMzQxLjQ1LDI0My41MSAzNDEuMywyNDMuNTIgMzQxLjIyLDI0My41MiAzNDAuOTUsMjQzLjUzIDM0MC44NCwyNDMuNTMgMzQwLjU4LDI0My41MiAzNDAuNDYsMjQzLjUxIDM0MC4yMiwyNDMuNDkgMzQwLjEsMjQzLjQ3IDMzOS44NywyNDMuNDMgMzM5Ljc0LDI0My40IDMzOS41MywyNDMuMzUgMzM5LjM5LDI0My4zMSAzMzkuMiwyNDMuMjQgMzM5LjA2LDI0My4xOSAzMzguODgsMjQzLjEyIDMzOC43NSwyNDMuMDYgMzM4LjU4LDI0Mi45NyAzMzguNDYsMjQyLjkgMzM4LjMsMjQyLjgxIDMzOC4xOCwyNDIuNzMgMzM4LjAzLDI0Mi42MiAzMzcuOTMsMjQyLjU0IDMzNy43OSwyNDIuNDMgMzM3LjcsMjQyLjM0IDMzNy41NywyNDIuMjIgMzM3LjQ5LDI0Mi4xNCAzMzcuMzcsMjQyLjAxIDMzNy4yOSwyNDEuOTIgMzM3LjE5LDI0MS43OSAzMzcuMTMsMjQxLjcxIDMzNy4wMywyNDEuNTggMzM2Ljk3LDI0MS41IDMzNi44OCwyNDEuMzYgMzM2Ljg0LDI0MS4yOCAzMzYuNzYsMjQxLjE0IDMzNi43MSwyNDEuMDcgMzM2LjY0LDI0MC45MyAzMzYuNjEsMjQwLjg2IDMzNi41NCwyNDAuNzIgMzM2LjUxLDI0MC42NyAzMzYuNDUsMjQwLjUyIDMzNi40MywyNDAuNDcgMzM2LjM3LDI0MC4zMyAzMzYuMzUsMjQwLjI5IDMzNi4zLDI0MC4xNSAzMzYuMjgsMjQwLjExIDMzNi4yNCwyMzkuOTcgMzM2LjIzLDIzOS45NSAzMzYuMTgsMjM5LjgxIDMzNi4xNywyMzkuOCAzMzYuMTMsMjM5LjY3IDMzNi4xMywyMzkuNjYgMzM2LjA5LDIzOS41MyAzMzYuMDksMjM5LjU0IDMzNi4wNSwyMzkuNDMgMzM2LjA2LDIzOS40NCAzMzYuMDIsMjM5LjMzIDMzNi4wMywyMzkuMzUgMzM1Ljk5LDIzOS4yNSAzMzUuOTgsMjM5LjIzIDMzNS45MSwyMzkuMDMgMzM1Ljg5LDIzOC45NSAzMzUuODMsMjM4LjczIDMzNS44MSwyMzguNjYgMzM1Ljc1LDIzOC40MyAzMzUuNzQsMjM4LjM3IDMzNS42OCwyMzguMTIgMzM1LjY3LDIzOC4wNyAzMzUuNjMsMjM3LjgxIDMzNS42MiwyMzcuNzcgMzM1LjU4LDIzNy41IDMzNS41NywyMzcuNDYgMzM1LjUzLDIzNy4xNyAzMzUuNTMsMjM3LjE0IDMzNS40OSwyMzYuODUgMzM1LjQ5LDIzNi44MiAzMzUuNDYsMjM2LjUyIDMzNS40NiwyMzYuNDkgMzM1LjQzLDIzNi4xOCAzMzUuNDMsMjM2LjE2IDMzNS40LDIzNS44NCAzMzUuNCwyMzUuODIgMzM1LjM4LDIzNS40OSAzMzUuMzgsMjM1LjQ4IDMzNS4zNiwyMzUuMTQgMzM1LjM1LDIzNS4xMyAzMzUuMzQsMjM0Ljc4IDMzNS4zMiwyMzQuNDQgMzM1LjMyLDIzNC40MyAzMzUuMywyMzQuMDggMzM1LjMsMjM0LjA3IDMzNS4yOSwyMzMuNzEgMzM1LjI5LDIzMy43IDMzNS4yOCwyMzMuMzMgMzM1LjI4LDIzMy4zMiAzMzUuMjcsMjMyLjk0IDMzNS4yNywyMzIuOTUgMzM1LjI2LDIzMi41NyAzMzUuMjQsMjMyLjE4IDMzNS4yNCwyMzIuMTkgMzM1LjIzLDIzMS44MSAzMzUuMjMsMjMxLjgzIDMzNS4yMSwyMzEuNDYgMzM1LjIxLDIzMS40OCAzMzUuMTksMjMxLjEyIDMzNS4xOSwyMzEuMTUgMzM1LjE4LDIzMC45OCAzMzUuMTgsMjMwLjk5IDMzNS4xNywyMzAuODIgMzM1LjE3LDIzMC44NSAzMzUuMTUsMjMwLjY5IDMzNS4xNSwyMzAuNzEgMzM1LjE0LDIzMC41NSAzMzUuMTQsMjMwLjU4IDMzNS4xMiwyMzAuNDMgMzM1LjEzLDIzMC40NyAzMzUuMTEsMjMwLjMyIDMzNS4xMSwyMzAuMzYgMzM1LjA5LDIzMC4yMiAzMzUuMSwyMzAuMjggMzM1LjA3LDIzMC4xNSAzMzUuMDgsMjMwLjE5IDMzNS4wNSwyMzAuMDcgMzM1LjA3LDIzMC4xNSAzMzUuMDQsMjMwLjA0IDMzNS4wNywyMzAuMTMgMzM1LjA0LDIzMC4wMyAzMzUuMDYsMjMwLjEgMzM1LjAzLDIzMC4wMSAzMzUuMDksMjMwLjE1IDMzNS4wNSwyMzAuMDcgMzM1LjEzLDIzMC4yMiAzMzUuMDksMjMwLjE1IDMzNS4yLDIzMC4zMiAzMzUuMTYsMjMwLjI3IDMzNS4zNSwyMzAuNDggMzM1LjMsMjMwLjQzIDMzNC43OSwyMjguNjYgMzM0Ljg3LDIyOC4zNSAzMzguMTYsMjI5Ljg4IDMzOC4wNywyMzAuMDEgMzM4LjA0LDIzMC4wNCAzMzcuOTQsMjMwLjE3IDMzNy45MSwyMzAuMjEgMzM3LjgyLDIzMC4zMyAzMzcuNzksMjMwLjM2IDMzNy42OSwyMzAuNDcgMzM3LjY1LDIzMC41MiAzMzcuNDUsMjMwLjc0IDMzNy4zOCwyMzAuODEgMzM3LjE4LDIzMSAzMzcuMTEsMjMxLjA3IDMzNi45LDIzMS4yNSAzMzYuODMsMjMxLjMxIDMzNi42MiwyMzEuNDggMzM2LjU0LDIzMS41NCAzMzYuMzMsMjMxLjY5IDMzNi4yNSwyMzEuNzQgMzM2LjA0LDIzMS44OCAzMzUuOTUsMjMxLjkzIDMzNS43NCwyMzIuMDUgMzM1LjY2LDIzMi4wOSAzMzUuNDQsMjMyLjIgMzM1LjM1LDIzMi4yNCAzMzUuMTQsMjMyLjMzIDMzNS4wNiwyMzIuMzcgMzM0Ljg0LDIzMi40NSAzMzQuNzYsMjMyLjQ4IDMzNC41NCwyMzIuNTUgMzM0LjQ2LDIzMi41NyAzMzQuMjUsMjMyLjY0IDMzNC4xNywyMzIuNjYgMzMzLjk1LDIzMi43MSAzMzMuODgsMjMyLjcyIDMzMy42NiwyMzIuNzYgMzMzLjU5LDIzMi43OCAzMzMuMzgsMjMyLjgxIDMzMy4zMSwyMzIuODIgMzMzLjEsMjMyLjg0IDMzMy4wMywyMzIuODUgMzMyLjgzLDIzMi44NiAzMzIuNzYsMjMyLjg3IDMzMi41NiwyMzIuODcgMzMyLjUsMjMyLjg4IDMzMi4zMSwyMzIuODggMzMyLjI0LDIzMi44OCAzMzIuMDUsMjMyLjg3IDMzMiwyMzIuODcgMzMxLjgxLDIzMi44NiAzMzEuNzYsMjMyLjg2IDMzMS41OCwyMzIuODUgMzMxLjUzLDIzMi44NCAzMzEuMzUsMjMyLjgyIDMzMS4zMSwyMzIuODIgMzMxLjE0LDIzMi44IDMzMS4xLDIzMi43OSAzMzAuOTMsMjMyLjc3IDMzMC44OSwyMzIuNzYgMzMwLjc0LDIzMi43MyAzMzAuNjksMjMyLjczIDMzMC41NCwyMzIuNyAzMzAuNTIsMjMyLjY5IDMzMC4zOCwyMzIuNjYgMzMwLjM0LDIzMi42NSAzMzAuMjEsMjMyLjYyIDMzMC4xOSwyMzIuNjIgMzMwLjA2LDIzMi41OSAzMjkuOTksMjMyLjU3IDMyOS43OSwyMzIuNTEgMzI5LjY4LDIzMi40OCAzMjkuNDcsMjMyLjQgMzI5LjM3LDIzMi4zNiAzMjkuMTcsMjMyLjI4IDMyOS4wNiwyMzIuMjMgMzI4Ljg2LDIzMi4xMyAzMjguNzcsMjMyLjA4IDMyOC42NywyMzIuMDMgMzI4LjYxLDIzMS45OSAzMjguNTIsMjMxLjkzIDMyOC40NCwyMzEuODggMzI4LjM2LDIzMS44MiAzMjguMjcsMjMxLjc2IDMyOC4yLDIzMS43IDMyOC4xMiwyMzEuNjMgMzI4LjA1LDIzMS41NyAzMjcuOTQsMjMxLjQ2IDMyNy44OCwyMzEuNCAzMjcuNzcsMjMxLjI3IDMyNy43MiwyMzEuMjEgMzI3LjYsMjMxLjA0IDMyNy41NiwyMzAuOTcgMzI3LjQ0LDIzMC43NSAzMjcuNDEsMjMwLjY4IDMyNy4zMSwyMzAuNDIgMzI3LjMsMjMwLjM1IDMyNy4yMywyMzAgMzI3LjIzLDIyOS45MyAzMjcuMjQsMjI5LjU3IDMyNy4yNSwyMjkuNSAzMjcuMzMsMjI5LjEzIDMyNy4zNSwyMjkuMDYgMzI3LjUsMjI4Ljc0IDMyNy41NCwyMjguNjcgMzI3LjcyLDIyOC40MSAzMjcuNzcsMjI4LjM1IDMyNy44OSwyMjguMjEgMzI3LjkyLDIyOC4xOCAzMjguMDEsMjI4LjEgMzI4LjA1LDIyOC4wNyAzMjguMTUsMjI3Ljk4IDMyOC4yLDIyNy45NSAzMjguMjcsMjI3LjkgMzI4LjMxLDIyNy44NiAzMjguMzgsMjI3LjgyIDMyOC40MywyMjcuNzkgMzI4LjUxLDIyNy43NCAzMjguNTcsMjI3LjcxIDMyOC42MiwyMjcuNjggMzI4LjY4LDIyNy42NSAzMjguNzYsMjI3LjYxIDMyOC44MiwyMjcuNTggMzI4Ljg3LDIyNy41NiAzMjguOTQsMjI3LjUzIDMyOC45OSwyMjcuNTEgMzI5LjA3LDIyNy40OCAzMjkuMTEsMjI3LjQ2IDMyOS4yLDIyNy40MyAzMjkuMjQsMjI3LjQxIDMyOS4zMywyMjcuMzkgMzI5LjM3LDIyNy4zNyAzMjkuNDYsMjI3LjM0IDMyOS41MSwyMjcuMzMgMzI5LjYxLDIyNy4zIDMyOS42MywyMjcuMyAzMjkuNzMsMjI3LjI3IDMyOS43OCwyMjcuMjUgMzI5Ljg5LDIyNy4yMyAzMjkuOTIsMjI3LjIyIDMzMC4wNCwyMjcuMTkgMzMwLjA2LDIyNy4xOSAzMzAuMTksMjI3LjE2IDMzMC4yLDIyNy4xNiAzMzAuMzIsMjI3LjEzIDMzMC40NCwyMjcuMTEgMzMwLjQzLDIyNy4xMSAzMzAuNjUsMjI3LjA2IDMzMC42MiwyMjcuMDcgMzMwLjgzLDIyNy4wMiAzMzAuODIsMjI3LjAyIDMzMS4wMSwyMjYuOTggMzMwLjk4LDIyNi45OCAzMzEuMTYsMjI2Ljk0IDMzMS4xMywyMjYuOTUgMzMxLjI5LDIyNi45IDMzMS4yNSwyMjYuOTEgMzMxLjQxLDIyNi44NiAzMzEuMzYsMjI2Ljg4IDMzMS41LDIyNi44MyAzMzEuNDUsMjI2Ljg1IDMzMS41OCwyMjYuOCAzMzEuNTMsMjI2LjgyIDMzMS42NSwyMjYuNzcgMzMxLjU5LDIyNi44IDMzMS43LDIyNi43NSAzMzEuNjIsMjI2Ljc5IDMzMS43MywyMjYuNzMgMzMxLjY3LDIyNi43NyAzMzEuNzYsMjI2LjcxIDMzMS42NywyMjYuNzcgMzMxLjc2LDIyNi43MSAzMzEuNywyMjYuNzUgMzMxLjc4LDIyNi42OSAzMzEuNywyMjYuNzUgMzMxLjc4LDIyNi42OSAzMzEuNjgsMjI2Ljc3IDMzMS44MiwyMjYuNjUgMzMxLjcyLDIyNi43NSAzMzEuODYsMjI2LjYxIDMzMS43OCwyMjYuNjkgMzMxLjkxLDIyNi41NCAzMzEuODgsMjI2LjU3IDMzMS45NSwyMjYuNDkgMzMxLjk0LDIyNi41IDMzMi4wMSwyMjYuNDEgMzMyLjAxLDIyNi40MiAzMzIuMDgsMjI2LjMzIDMzMi4wNywyMjYuMzMgMzMyLjE1LDIyNi4yNCAzMzIuMTYsMjI2LjIzIDMzMi4yNCwyMjYuMTMgMzMyLjI1LDIyNi4xMSAzMzIuMzQsMjI2IDMzMi4zNSwyMjUuOTkgMzMyLjQ1LDIyNS44NyAzMzIuNDYsMjI1Ljg2IDMzMi41NiwyMjUuNzMgMzMyLjU3LDIyNS43MiAzMzIuNjksMjI1LjU5IDMzMi43MSwyMjUuNTYgMzMyLjgzLDIyNS40MyAzMzIuMzgsMjI2LjkgMzMyLjM2LDIyNi43OCAzMzIuMzYsMjI2LjczIDMzMi4zNCwyMjYuNjEgMzMyLjM0LDIyNi41NCAzMzIuMzIsMjI2LjMyIDMzMi4zMiwyMjYuMjEgMzMyLjMxLDIyNS45OSAzMzIuMzIsMjI1Ljg3IDMzMi4zMywyMjUuNjYgMzM1LjM5LDIyNy4xNiAzMzUuMywyMjcuMjMgMzM0LjIzLDIyNy42OCAzMzQuMDEsMjI3LjcgMzMzLjkzLDIyNy43IDMzMy43MiwyMjcuNzEgMzMzLjYzLDIyNy43MSAzMzMuNDIsMjI3LjcgMzMzLjM0LDIyNy43IDMzMy4xMywyMjcuNjkgMzMzLjA1LDIyNy42OCAzMzIuODQsMjI3LjY2IDMzMi43NiwyMjcuNjUgMzMyLjU2LDIyNy42MiAzMzIuNDcsMjI3LjYxIDMzMi4yNywyMjcuNTcgMzMyLjE5LDIyNy41NSAzMzEuOTksMjI3LjUgMzMxLjkxLDIyNy40OCAzMzEuNzIsMjI3LjQyIDMzMS42NCwyMjcuNCAzMzEuNDQsMjI3LjM0IDMzMS4zNywyMjcuMzEgMzMxLjE4LDIyNy4yNCAzMzEuMTEsMjI3LjIxIDMzMC45MiwyMjcuMTMgMzMwLjg1LDIyNy4wOSAzMzAuNjYsMjI3IDMzMC42LDIyNi45NyAzMzAuNDIsMjI2Ljg4IDMzMC4zNSwyMjYuODQgMzMwLjE3LDIyNi43MyAzMzAuMTEsMjI2LjcgMzI5LjkzLDIyNi41OCAzMzIuMzMsMjI2LjI0IDMzMi4zMiwyMjYuMjUgMzMyLjI0LDIyNi4zNCAzMzIuMjIsMjI2LjM2IDMzMi4yNiwyMjYuMzIgMzMyLjIzLDIyNi4zNCAzMzIuMiwyMjYuMzggMzMyLjE1LDIyNi40MyAzMzIuMSwyMjYuNDggMzMyLjA0LDIyNi41NSAzMzEuOTcsMjI2LjYzIDMzMS44OSwyMjYuNzEgMzMxLjg5LDIyNi43MSAzMzEuODEsMjI2LjggMzMxLjgsMjI2LjgxIDMzMS43MSwyMjYuOTEgMzMxLjcxLDIyNi45IDMzMS42MSwyMjcuMDEgMzMxLjUsMjI3LjEzIDMzMS41LDIyNy4xMyAzMzEuMzksMjI3LjI2IDMzMS4yNywyMjcuMzkgMzMxLjE0LDIyNy41MyAzMzEsMjI3LjY4IDMzMS4wMSwyMjcuNjcgMzMwLjg3LDIyNy44MiAzMzAuNzMsMjI3Ljk4IDMzMC41OCwyMjguMTUgMzMwLjU5LDIyOC4xNCAzMzAuNDQsMjI4LjMxIDMzMC4yOCwyMjguNDkgMzMwLjEyLDIyOC42NyAzMzAuMTIsMjI4LjY3IDMyOS45NiwyMjguODUgMzI5Ljk2LDIyOC44NSAzMjkuNjMsMjI5LjIzIDMyOS42MywyMjkuMjMgMzI5LjI5LDIyOS42MyAzMjkuMywyMjkuNjIgMzI4Ljk0LDIzMC4wNCAzMjguOTUsMjMwLjAzIDMyOC42LDIzMC40NSAzMjguNTYsMjMwLjQ5IDMyOC4zMiwyMzAuNzcgMzI4LjIyLDIzMC44NyAzMjcuOTgsMjMxLjEgMzI3Ljg2LDIzMS4yIDMyNy42MiwyMzEuNCAzMjcuNDgsMjMxLjUxIDMyNy4yNCwyMzEuNjcgMzI3LjA3LDIzMS43NyAzMjYuODQsMjMxLjg5IDMyNi42NCwyMzEuOTggMzI2LjQsMjMyLjA4IDMyNi4xOCwyMzIuMTUgMzI1Ljk0LDIzMi4yMSAzMjUuNywyMzIuMjUgMzI1LjQ3LDIzMi4yNyAzMjUuMjIsMjMyLjI4IDMyNC45OSwyMzIuMjggMzI0Ljc1LDIzMi4yNiAzMjQuNTIsMjMyLjIyIDMyNC4yOSwyMzIuMTcgMzI0LjA2LDIzMi4xIDMyMy44NywyMzIuMDMgMzIzLjY0LDIzMS45NCAzMjMuNDcsMjMxLjg2IDMyMy4yNCwyMzEuNzQgMzIzLjEsMjMxLjY1IDMyMi44OCwyMzEuNSAzMjIuNzYsMjMxLjQxIDMyMi41NCwyMzEuMjQgMzIyLjQ0LDIzMS4xNiAzMjIuMjMsMjMwLjk2IDMyMi4xNSwyMzAuODggMzIxLjkzLDIzMC42NiAzMjEuODYsMjMwLjU5IDMyMS42NSwyMzAuMzUgMzIxLjYsMjMwLjI4IDMyMS4zOSwyMzAuMDEgMzIxLjM0LDIyOS45NSAzMjEuMTQsMjI5LjY3IDMyMS4xLDIyOS42MSAzMjAuODksMjI5LjMxIDMyMC44NiwyMjkuMjYgMzIwLjY2LDIyOC45NCAzMjAuNjMsMjI4Ljg5IDMyMC40MywyMjguNTUgMzIwLjQxLDIyOC41MSAzMjAuMjIsMjI4LjE1IDMyMC4yLDIyOC4xMSAzMjAuMDEsMjI3Ljc0IDMxOS45OSwyMjcuNzEgMzE5LjgsMjI3LjMyIDMxOS43OCwyMjcuMjkgMzE5LjYsMjI2LjkgMzE5LjU4LDIyNi44NiAzMTkuNCwyMjYuNDUgMzE5LjM5LDIyNi40MSAzMTkuMDMsMjI1LjU2IDMxOS4wMSwyMjUuNTIgMzE4LjY4LDIyNC42MyAzMTguNjYsMjI0LjU5IDMxOC4zNCwyMjMuNjcgMzE4LjMyLDIyMy42NCAzMTguMDIsMjIyLjcgMzE4LjAxLDIyMi42NyAzMTcuNzEsMjIxLjczIDMxNy43LDIyMS43IDMxNy40MywyMjAuNzUgMzE3LjQyLDIyMC43MiAzMTcuMTYsMjE5Ljc4IDMxNy4xNSwyMTkuNzUgMzE2LjkyLDIxOC44MiAzMTYuOTEsMjE4LjggMzE2LjY5LDIxNy45IDMxNi42OCwyMTcuODcgMzE2LjQ4LDIxNi45OSAzMTYuNDcsMjE2Ljk3IDMxNi4yOSwyMTYuMTMgMzE2LjI5LDIxNi4xMSAzMTYuMiwyMTUuNzEgMzE2LjIsMjE1LjcgMzE2LjEyLDIxNS4zMSAzMTYuMTIsMjE1LjMgMzE2LjA1LDIxNC45MiAzMTYuMDUsMjE0LjkxIDMxNS45OCwyMTQuNTUgMzE1Ljk3LDIxNC41MyAzMTUuOTEsMjE0LjE4IDMxNS45MSwyMTQuMTcgMzE1Ljg1LDIxMy44NCAzMTUuODUsMjEzLjgzIDMxNS44LDIxMy41MSAzMTUuOCwyMTMuNSAzMTUuNzUsMjEzLjIgMzE1Ljc1LDIxMy4xOSAzMTUuNzEsMjEyLjkyIDMxNS43LDIxMi44OSAzMTUuNjcsMjEyLjY0IDMxNS42NywyMTIuNjIgMzE1LjY0LDIxMi4zOSAzMTUuNjMsMjEyLjM1IDMxNS42MSwyMTIuMTQgMzE1LjYxLDIxMi4xMiAzMTUuNTksMjExLjkzIDMxNS41OSwyMTEuODggMzE1LjU4LDIxMS43MiAzMTUuNTgsMjExLjY2IDMxNS41NSwyMTAuOTggMzE1LjU1LDIxMC45MiAzMTUuNTUsMjEwLjI3IDMxNS41NSwyMTAuMiAzMTUuNTgsMjA5LjU4IDMxNS41OCwyMDkuNSAzMTUuNjMsMjA4LjkxIDMxNS42NCwyMDguODQgMzE1LjcsMjA4LjI4IDMxNS43MiwyMDguMiAzMTUuOCwyMDcuNjYgMzE1LjgyLDIwNy41OCAzMTUuOTMsMjA3LjA3IDMxNS45NSwyMDYuOTggMzE2LjA4LDIwNi41IDMxNi4xMSwyMDYuNDEgMzE2LjI1LDIwNS45NSAzMTYuMjksMjA1Ljg2IDMxNi40NSwyMDUuNDMgMzE2LjQ5LDIwNS4zNCAzMTYuNjcsMjA0LjkzIDMxNi43MiwyMDQuODQgMzE2LjkxLDIwNC40NiAzMTYuOTcsMjA0LjM2IDMxNy4xOCwyMDQuMDEgMzE3LjI0LDIwMy45MSAzMTcuNDcsMjAzLjU4IDMxNy41NCwyMDMuNDkgMzE3Ljc4LDIwMy4xOCAzMTcuODUsMjAzLjA5IDMxOC4xMSwyMDIuODEgMzE4LjE5LDIwMi43MiAzMTguNDYsMjAyLjQ1IDMxOC41NCwyMDIuMzggMzE4LjgyLDIwMi4xMyAzMTguOSwyMDIuMDYgMzE5LjE5LDIwMS44NCAzMTkuMjgsMjAxLjc3IDMxOS41OCwyMDEuNTcgMzE5LjY4LDIwMS41MSAzMTkuOTksMjAxLjMyIDMyMC4wNywyMDEuMjcgMzIwLjM5LDIwMS4xIDMyMC40OCwyMDEuMDYgMzIwLjgxLDIwMC45IDMyMC44OSwyMDAuODcgMzIxLjIyLDIwMC43MyAzMjEuMzEsMjAwLjcgMzIxLjY1LDIwMC41OCAzMjEuNzMsMjAwLjU1IDMyMi4wOCwyMDAuNDUgMzIyLjE1LDIwMC40MyAzMjIuNSwyMDAuMzQgMzIyLjU4LDIwMC4zMiAzMjIuOTMsMjAwLjI1IDMyMywyMDAuMjMgMzIzLjM2LDIwMC4xNyAzMjMuNDMsMjAwLjE2IDMyMy43OSwyMDAuMTEgMzIzLjg1LDIwMC4xMSAzMjQuMjEsMjAwLjA3IDMyNC4yNywyMDAuMDYgMzI0LjY0LDIwMC4wNCAzMjQuNzIsMjAwLjAzIDMyNS40NSwyMDAuMDIgMzI1LjU1LDIwMC4wMiAzMjYuMjgsMjAwLjA0IDMyNi4zNiwyMDAuMDQgMzI3LjA4LDIwMC4wOSAzMjcuMTYsMjAwLjEgMzI3Ljg2LDIwMC4xOCAzMjcuOTMsMjAwLjE5IDMyOC42MSwyMDAuMjkgMzI4LjY3LDIwMC4zIDMyOS4zMiwyMDAuNDMgMzI5LjM4LDIwMC40NCAzMjkuOTksMjAwLjU3IDMzMC4wNCwyMDAuNTggMzMwLjYyLDIwMC43MiAzMzAuNjUsMjAwLjczIDMzMC45MywyMDAuOCAzMzAuOTUsMjAwLjgxIDMzMS4yMSwyMDAuODggMzMxLjIzLDIwMC44OSAzMzEuNDcsMjAwLjk2IDMzMS41LDIwMC45NyAzMzEuNzMsMjAxLjA0IDMzMS43NSwyMDEuMDQgMzMxLjk3LDIwMS4xMSAzMzEuOTgsMjAxLjExIDMzMi4xOSwyMDEuMTggMzMyLjIsMjAxLjE5IDMzMi4zOSwyMDEuMjUgMzMyLjQxLDIwMS4yNSAzMzIuNTgsMjAxLjMxIDMzMi41OSwyMDEuMzIgMzMyLjc1LDIwMS4zNyAzMzIuNzYsMjAxLjM4IDMzMi45LDIwMS40MiAzMzIuOTIsMjAxLjQzIDMzMy4wMywyMDEuNDggMzMzLjEzLDIwMS41MSAzMzMuMTUsMjAxLjUyIDMzMy4yMywyMDEuNTUgMzMzLjI1LDIwMS41NiAzMzMuMzEsMjAxLjU4IDMzMy4zMywyMDEuNTkgMzMzLjM2LDIwMS42IDMzMy4zLDIwMS41OCAzMzMuMzIsMjAxLjU5IDMzMS41OCwyMDEuODIgMzMxLjgzLDIwMS42NCAzMzEuODksMjAxLjYgMzMyLjE1LDIwMS40MiAzMzIuMjEsMjAxLjM4IDMzMi40OCwyMDEuMjIgMzMyLjU1LDIwMS4xOCAzMzIuODMsMjAxLjAzIDMzMi45LDIwMC45OSAzMzMuMTksMjAwLjg1IDMzMy4yNywyMDAuODEgMzMzLjU3LDIwMC42OCAzMzMuNjQsMjAwLjY1IDMzMy45NSwyMDAuNTMgMzM0LjAyLDIwMC41IDMzNC4zNCwyMDAuMzkgMzM0LjQyLDIwMC4zNyAzMzQuNzUsMjAwLjI3IDMzNC44MywyMDAuMjUgMzM1LjE4LDIwMC4xNyAzMzUuMjUsMjAwLjE1IDMzNS42MSwyMDAuMDggMzM1LjY4LDIwMC4wNyAzMzYuMDUsMjAwLjAxIDMzNi4xMiwyMDAgMzM2LjUsMTk5Ljk1IDMzNi41OCwxOTkuOTUgMzM2Ljk3LDE5OS45MiAzMzcuMDQsMTk5LjkxIDMzNy40NCwxOTkuODkgMzM3LjUxLDE5OS44OSAzMzcuOTMsMTk5Ljg5IDMzNy45OCwxOTkuODkgMzM4LjQ0LDE5OS45IDMzOC40OCwxOTkuOTEgMzM4LjkyLDE5OS45MyAzMzguOTcsMTk5LjkzIDMzOS40LDE5OS45NiAzMzkuNDQsMTk5Ljk2IDMzOS44NiwyMDAgMzM5LjksMjAwLjAxIDM0MC4zMSwyMDAuMDYgMzQwLjM2LDIwMC4wNiAzNDAuNzUsMjAwLjEyIDM0MC44LDIwMC4xMyAzNDEuMTgsMjAwLjE5IDM0MS4yMywyMDAuMiAzNDEuNiwyMDAuMjcgMzQxLjAyLDIwMC4yNSAzNDEuMDcsMjAwLjI1IDM0MC41NSwyMDAuMzkgMzQwLjU2LDIwMC4zOCAzNDAuNjMsMjAwLjM2IDM0MC42NSwyMDAuMzUgMzQwLjcsMjAwLjMzIDM0MC43NCwyMDAuMzEgMzQwLjc1LDIwMC4zMSAzNDAuODEsMjAwLjI5IDM0MC44NSwyMDAuMjcgMzQwLjk5LDIwMC4yMyAzNDEuMDIsMjAwLjIyIDM0MS4yLDIwMC4xNiAzNDEuMjMsMjAwLjE2IDM0MS40NSwyMDAuMDkgMzQxLjQ5LDIwMC4wOCAzNDEuNzUsMjAwLjAxIDM0MS43OSwyMDAgMzQyLjA5LDE5OS45MyAzNDIuMTMsMTk5LjkyIDM0Mi40NiwxOTkuODQgMzQyLjUsMTk5Ljg0IDM0Mi44NywxOTkuNzYgMzQyLjkxLDE5OS43NSAzNDMuMzEsMTk5LjY4IDM0My4zNiwxOTkuNjcgMzQzLjc4LDE5OS42MSAzNDMuODMsMTk5LjYgMzQ0LjI5LDE5OS41NCAzNDQuMzQsMTk5LjU0IDM0NC44MiwxOTkuNDkgMzQ0Ljg3LDE5OS40OCAzNDUuMzcsMTk5LjQ1IDM0NS40MywxOTkuNDUgMzQ1Ljk1LDE5OS40MyAzNDYuMDEsMTk5LjQzIDM0Ni41NSwxOTkuNDIgMzQ2LjYyLDE5OS40MiAzNDcuMTcsMTk5LjQ0IDM0Ny4yNCwxOTkuNDQgMzQ3LjgsMTk5LjQ4IDM0Ny44OCwxOTkuNDkgMzQ4LjQ1LDE5OS41NSAzNDguNTMsMTk5LjU2IDM0OS4xMSwxOTkuNjUgMzQ5LjIsMTk5LjY3IDM0OS43OSwxOTkuNzkgMzQ5Ljg3LDE5OS44MSAzNTAuNDcsMTk5Ljk2IDM1MC41NiwxOTkuOTggMzUxLjE1LDIwMC4xNyAzNTEuMjUsMjAwLjIgMzUxLjg0LDIwMC40MiAzNTEuOTQsMjAwLjQ2IDM1Mi41MiwyMDAuNzIgMzUyLjYyLDIwMC43NyAzNTMuMjEsMjAxLjA2IDM1My4zMSwyMDEuMTIgMzUzLjg4LDIwMS40NiAzNTMuOTYsMjAxLjUxIDM1NC4yNCwyMDEuNyAzNTQuMjksMjAxLjczIDM1NC41NywyMDEuOTMgMzU0LjYyLDIwMS45NyAzNTQuODksMjAyLjE4IDM1NC45NCwyMDIuMjIgMzU1LjIxLDIwMi40NCAzNTUuMjYsMjAyLjQ4IDM1NS41MywyMDIuNzIgMzU1LjU4LDIwMi43NiAzNTUuODQsMjAzLjAxIDM1NS44OSwyMDMuMDUgMzU2LjE1LDIwMy4zMiAzNTYuMTksMjAzLjM2IDM1Ni40NSwyMDMuNjMgMzU2LjQ5LDIwMy42OCAzNTYuNzQsMjAzLjk3IDM1Ni43OCwyMDQuMDIgMzU3LjAzLDIwNC4zMiAzNTcuMTMsMjA0LjQ2IDM1Ny4yOSwyMDQuNzEgMzU3LjQxLDIwNC45MiAzNTcuNTYsMjA1LjIxIDM1Ny42NCwyMDUuNCAzNTcuNzYsMjA1LjczIDM1Ny44MSwyMDUuOSAzNTcuOSwyMDYuMjcgMzU3LjkzLDIwNi40MSAzNTgsMjA2LjgxIDM1OC4wMiwyMDYuOTMgMzU4LjA3LDIwNy4zNyAzNTguMDgsMjA3LjQ4IDM1OC4xLDIwNy45NSAzNTguMTEsMjA4LjA0IDM1OC4xMSwyMDguNTQgMzU4LjExLDIwOC42MiAzNTguMDksMjA5LjE2IDM1OC4wOSwyMDkuMjMgMzU4LjA1LDIwOS43OSAzNTguMDQsMjA5Ljg2IDM1Ny45OCwyMTAuNDUgMzU3Ljk3LDIxMC41MSAzNTcuODgsMjExLjEyIDM1Ny44OCwyMTEuMTcgMzU3Ljc3LDIxMS44MSAzNTcuNzYsMjExLjg2IDM1Ny42MywyMTIuNTIgMzU3LjYyLDIxMi41NiAzNTcuNDcsMjEzLjI0IDM1Ny40NiwyMTMuMjggMzU3LjI5LDIxMy45OCAzNTcuMjgsMjE0LjAyIDM1Ny4wOSwyMTQuNzMgMzU3LjA4LDIxNC43NyAzNTYuODYsMjE1LjUgMzU2Ljg1LDIxNS41MyAzNTYuNjIsMjE2LjI3IDM1Ni42MSwyMTYuMzEgMzU2LjM1LDIxNy4wNiAzNTYuMzQsMjE3LjA5IDM1Ni4wNywyMTcuODUgMzU2LjA1LDIxNy44OCAzNTUuNzYsMjE4LjY1IDM1NS43NSwyMTguNjggMzU1LjQzLDIxOS40NSAzNTUuNDIsMjE5LjQ5IDM1NS4wOCwyMjAuMjYgMzU1LjA3LDIyMC4yOSAzNTQuNzEsMjIxLjA3IDM1NC43LDIyMS4xIDM1NC4zMywyMjEuODggMzU0LjMxLDIyMS45MSAzNTMuOTIsMjIyLjY4IDM1My45LDIyMi43MiAzNTMuNDksMjIzLjQ5IDM1My40NywyMjMuNTIgMzUzLjA0LDIyNC4yOSAzNTMuMDIsMjI0LjMyIDM1Mi41NywyMjUuMDggMzUyLjU1LDIyNS4xMiAzNTIuMDksMjI1Ljg3IDM1Mi4wNiwyMjUuOSAzNTEuNTgsMjI2LjY0IDM1MS44NiwyMjUuMzIgMzUxLjg2LDIyNS4zMyAzNTEuOCwyMjUuMDcgMzUxLjgsMjI1LjA5IDM1MS43OSwyMjUuMDYgMzUxLjgsMjI1LjA4IDM1MS43NiwyMjQuOTggMzUxLjc3LDIyNS4wMSAzNTEuNzQsMjI0LjkyIDM1MS43NSwyMjQuOTYgMzUxLjcsMjI0Ljg1IDM1MS43MiwyMjQuODkgMzUxLjY2LDIyNC43OCAzNTEuNjksMjI0LjgzIDM1MS42MiwyMjQuNzMgMzUxLjY2LDIyNC43OSAzNTEuNTksMjI0LjcgMzUxLjYzLDIyNC43NSAzNTEuNTUsMjI0LjY1IDM1MS42LDIyNC43MSAzNTEuNTEsMjI0LjYyIDM1MS41OCwyMjQuNjggMzUxLjQ4LDIyNC42IDM1MS41NiwyMjQuNjYgMzUxLjQ2LDIyNC41OSAzNTEuNTUsMjI0LjY1IDM1MS40NSwyMjQuNTggMzUxLjU1LDIyNC42NCAzNTEuNDQsMjI0LjU4IDM1MS41NSwyMjQuNjQgMzUxLjQ2LDIyNC41OSAzNTEuNTgsMjI0LjY1IDM1MS40OCwyMjQuNjEgMzUxLjYyLDIyNC42NiAzNTEuNTIsMjI0LjYzIDM1MS42NywyMjQuNjggMzUxLjU5LDIyNC42NSAzNTEuNzYsMjI0LjcgMzUxLjY3LDIyNC42OCAzNTEuODYsMjI0LjcxIDM1MS43OSwyMjQuNyAzNTEuODksMjI0LjcyIDM1MS44NSwyMjQuNzEgMzUxLjk1LDIyNC43MyAzNTEuOTIsMjI0LjcyIDM1Mi4wMywyMjQuNzQgMzUyLDIyNC43MyAzNTIuMTEsMjI0Ljc1IDM1Mi4wNywyMjQuNzQgMzUyLjE5LDIyNC43NSAzNTIuMTUsMjI0Ljc1IDM1Mi4yNywyMjQuNzYgMzUyLjI0LDIyNC43NSAzNTIuMzcsMjI0Ljc2IDM1Mi4zMywyMjQuNzYgMzUyLjQ3LDIyNC43NiAzNTIuNDQsMjI0Ljc2IDM1Mi41OCwyMjQuNzYgMzUyLjU0LDIyNC43NiAzNTIuNjgsMjI0Ljc2IDM1Mi42NiwyMjQuNzYgMzUyLjgxLDIyNC43NiAzNTIuNzgsMjI0Ljc2IDM1Mi45NCwyMjQuNzUgMzUyLjkxLDIyNC43NiAzNTMuMDcsMjI0Ljc1IDM1My4wNCwyMjQuNzUgMzUzLjIxLDIyNC43NCAzNTMuMTgsMjI0Ljc0IDM1My4zNSwyMjQuNzIgMzUzLjMzLDIyNC43MyAzNTMuNTEsMjI0LjcxIDM1My40OCwyMjQuNzEgMzUzLjY3LDIyNC42OSAzNTMuNjQsMjI0LjY5IDM1My44MywyMjQuNjcgMzUzLjgxLDIyNC42NyAzNTQuMDEsMjI0LjY0IDM1My45OCwyMjQuNjUgMzU0LjE5LDIyNC42MiAzNTQuMTcsMjI0LjYyIDM1NC4zOCwyMjQuNTkgMzU0LjM2LDIyNC41OSAzNTQuNTgsMjI0LjU1IDM1NC41NSwyMjQuNTYgMzU0Ljc3LDIyNC41MSAzNTQuNzYsMjI0LjUyIDM1NC45OSwyMjQuNDcgMzU1LDIyNC40NyAzNTUuMSwyMjQuNDUgMzU1LjEyLDIyNC40NCAzNTUuMjEsMjI0LjQzIDM1NS4yNywyMjQuNDIgMzU1LjM2LDIyNC40IDM1NS40MSwyMjQuNCAzNTUuNSwyMjQuMzkgMzU1LjU1LDIyNC4zOCAzNTUuNjMsMjI0LjM4IDM1NS42OSwyMjQuMzcgMzU1Ljc2LDIyNC4zNyAzNTUuODIsMjI0LjM2IDM1NS44OCwyMjQuMzYgMzU1Ljk2LDIyNC4zNiAzNTYuMDMsMjI0LjM2IDM1Ni4xMiwyMjQuMzYgMzU2LjE4LDIyNC4zNyAzNTYuMjYsMjI0LjM4IDM1Ni4zMiwyMjQuMzggMzU2LjQxLDIyNC4zOSAzNTYuNDcsMjI0LjQgMzU2LjYsMjI0LjQzIDM1Ni42NSwyMjQuNDQgMzU2Ljg1LDIyNC41IDM1Ni45MywyMjQuNTIgMzU3LjI0LDIyNC42NyAzNTcuMzEsMjI0LjcxIDM1Ny42NiwyMjQuOTggMzU3LjcxLDIyNS4wMiAzNTguMDMsMjI1LjQzIDM1OC4wNiwyMjUuNDkgMzU4LjI0LDIyNS45NCAzNTguMjYsMjI2IDM1OC4zMiwyMjYuNDcgMzU4LjMyLDIyNi41NCAzNTguMjksMjI2Ljg4IDM1OC4yNywyMjYuOTUgMzU4LjIsMjI3LjIyIDM1OC4xNywyMjcuMzEgMzU4LjA5LDIyNy41MSAzNTguMDUsMjI3LjU5IDM1Ny45NiwyMjcuNzUgMzU3LjkxLDIyNy44NCAzNTcuODQsMjI3Ljk1IDM1Ny43NywyMjguMDQgMzU3LjY5LDIyOC4xNCAzNTcuNjEsMjI4LjI0IDM1Ny41NSwyMjguMzEgMzU3LjQ2LDIyOC40MSAzNTcuNCwyMjguNDcgMzU3LjMsMjI4LjU4IDM1Ny4yNCwyMjguNjMgMzU3LjEzLDIyOC43NCAzNTcuMDgsMjI4Ljc4IDM1Ni45NiwyMjguODkgMzU2LjksMjI4LjkzIDM1Ni43NywyMjkuMDQgMzU2LjczLDIyOS4wOCAzNTYuNTgsMjI5LjE5IDM1Ni41NSwyMjkuMjIgMzU2LjM5LDIyOS4zMyAzNTYuMzUsMjI5LjM2IDM1Ni4xOCwyMjkuNDcgMzU2LjE0LDIyOS41IDM1NS45NywyMjkuNjEgMzU1LjkzLDIyOS42MyAzNTUuNzUsMjI5Ljc0IDM1NS43MiwyMjkuNzYgMzU1LjUzLDIyOS44NyAzNTUuNDksMjI5LjkgMzU1LjI5LDIzMCAzNTUuMjUsMjMwLjAyIDM1NS4wNSwyMzAuMTIgMzU1LjAxLDIzMC4xNSAzNTQuOCwyMzAuMjQgMzU0Ljc0LDIzMC4yNyAzNTQuNTQsMjMwLjM2IDM1NC40NywyMzAuMzkgMzU0LjI1LDIzMC40NyAzNTQuMTgsMjMwLjUgMzUzLjk1LDIzMC41OCAzNTMuODksMjMwLjYgMzUzLjY0LDIzMC42NyAzNTMuNTksMjMwLjY4IDM1My4zMywyMzAuNzUgMzUzLjI4LDIzMC43NiAzNTMuMDIsMjMwLjgyIDM1Mi45OCwyMzAuODMgMzUyLjcxLDIzMC44OSAzNTIuNjYsMjMwLjkgMzUyLjM4LDIzMC45NSAzNTIuMzQsMjMwLjk1IDM1Mi4wNywyMzEgMzUyLjAyLDIzMSAzNTEuNzQsMjMxLjA0IDM1MS43LDIzMS4wNCAzNTEuNDIsMjMxLjA3IDM1MS4zOCwyMzEuMDggMzUxLjEsMjMxLjEgMzUxLjA1LDIzMS4xIDM1MC43OCwyMzEuMTIgMzUwLjczLDIzMS4xMiAzNTAuNDYsMjMxLjEzIDM1MC40MSwyMzEuMTMgMzUwLjE1LDIzMS4xMyAzNTAuMDksMjMxLjEzIDM0OS44MywyMzEuMTIgMzQ5LjcxLDIzMS4xMSAzNDkuMjcsMjMxLjA3IDM0OS4wNywyMzEuMDQgMzQ4LjkyLDIzMS4wMSAzNDguOTMsMjMxLjAxIDM0OC43OSwyMzAuOTggMzQ4LjgzLDIzMC45OSAzNDguNjksMjMwLjk3IDM0OC43MywyMzAuOTcgMzQ4LjYsMjMwLjk1IDM0OC42NywyMzAuOTYgMzQ4LjU1LDIzMC45NSAzNDguNjEsMjMwLjk1IDM0OC41LDIzMC45NCAzNDguNTksMjMwLjk1IDM0OC40OSwyMzAuOTUgMzQ4LjYsMjMwLjk1IDM0OC41MSwyMzAuOTUgMzQ4LjY0LDIzMC45NCAzNDguNTUsMjMwLjk1IDM0OC43MiwyMzAuOTMgMzQ4LjY0LDIzMC45NCAzNDguODEsMjMwLjkgMzQ4Ljc0LDIzMC45MiAzNDguOTUsMjMwLjg0IDM0OC44OCwyMzAuODcgMzQ5LjA2LDIzMC43OCAzNDksMjMwLjgyIDM0OS4yMiwyMzAuNjcgMzQ5LjE2LDIzMC43MiAzNDkuMzQsMjMwLjU2IDM0OS4yOSwyMzAuNjEgMzQ5LjQzLDIzMC40NCAzNDkuMzksMjMwLjUgMzQ5LjUsMjMwLjM1IDM0OS40NiwyMzAuNDEgMzQ5LjU1LDIzMC4yNiAzNDkuNTEsMjMwLjMzIDM0OS41NiwyMzAuMjEgMzQ5LjUzLDIzMC4yOSAzNDkuNTcsMjMwLjE4IDM0OS41NCwyMzAuMjcgMzQ5LjU3LDIzMC4xOCAzNDkuNTQsMjMwLjI4IDM0OS41NiwyMzAuMiAzNDkuNTMsMjMwLjMxIDM0OS41NSwyMzAuMjUgMzQ5LjUyLDIzMC4zNyAzNDkuNTMsMjMwLjMyIDM0OS41MSwyMzAuNDUgMzQ5LjUyLDIzMC40MiAzNDkuNDksMjMwLjU2IDM0OS41LDIzMC41NCAzNDkuNDgsMjMwLjY4IDM0OS40OCwyMzAuNjUgMzQ5LjQ2LDIzMC44MSAzNDkuNDYsMjMwLjggMzQ5LjQ0LDIzMC45NyAzNDkuNDIsMjMxLjE1IDM0OS40MiwyMzEuMTMgMzQ5LjQsMjMxLjMyIDM0OS40LDIzMS4zMyAzNDkuMzcsMjMxLjU0IDM0OS4zNSwyMzEuNzUgMzQ1LjY3LDIzMS4zMiAzNDUuNywyMzEuMSAiIGNsaXAtcGF0aD0idXJsKCNTVkdJRF82XykiIGlkPSJwb2x5Z29uNjA0MTQiLz4mI3hhOwkJPHBhdGggc3R5bGU9ImZpbGw6IzMzNjc5MSIgZD0ibSAzNTUuMzUsMjI2LjI5IGMgLTQuOTksMS4wMiAtNS4zMiwtMC42NiAtNS4zMiwtMC42NiA1LjI2LC03LjgxIDcuNDYsLTE3LjcxIDUuNTYsLTIwLjE0IC01LjE4LC02LjYxIC0xNC4xNCwtMy40OSAtMTQuMjksLTMuNCBsIC0wLjA1LDAuMDEgYyAtMC45OSwtMC4yIC0yLjA5LC0wLjMzIC0zLjMyLC0wLjM0IC0yLjI2LC0wLjA0IC0zLjk2LDAuNTkgLTUuMjYsMS41NyAwLDAgLTE1Ljk4LC02LjU4IC0xNS4yNCw4LjI4IDAuMTYsMy4xNiA0LjUzLDIzLjkzIDkuNzUsMTcuNjYgMS45MSwtMi4yOSAzLjc1LC00LjI0IDMuNzUsLTQuMjQgMC45MiwwLjYxIDIuMDEsMC45MiAzLjE2LDAuODEgbCAwLjA5LC0wLjA4IGMgLTAuMDIsMC4yOSAtMC4wMSwwLjU2IDAuMDQsMC45IC0xLjM0LDEuNSAtMC45NCwxLjc2IC0zLjY0LDIuMzIgLTIuNzIsMC41NiAtMS4xMiwxLjU2IC0wLjA4LDEuODIgMS4yNywwLjMxIDQuMTksMC43NyA2LjE3LC0yIGwgLTAuMDgsMC4zMSBjIDAuNTMsMC40MiAwLjksMi43NSAwLjg0LDQuODUgLTAuMDYsMi4xMSAtMC4xLDMuNTUgMC4zMSw0LjY4IDAuNDIsMS4xMyAwLjgzLDMuNjcgNC4zNiwyLjkxIDIuOTUsLTAuNjQgNC40OSwtMi4yNyA0LjcsLTUuMDEgMC4xNSwtMS45NCAwLjQ5LC0xLjY2IDAuNTEsLTMuMzkgbCAwLjI3LC0wLjgzIGMgMC4zMSwtMi42MyAwLjA1LC0zLjQ4IDEuODcsLTMuMDkgbCAwLjQ0LDAuMDQgYyAxLjM0LDAuMDYgMy4wOSwtMC4yMSA0LjEyLC0wLjcgMi4yMSwtMS4wMiAzLjUzLC0yLjc0IDEuMzQsLTIuMjggeiIgY2xpcC1wYXRoPSJ1cmwoI1NWR0lEXzZfKSIgaWQ9InBhdGg2MDQxNiIgaW5rc2NhcGU6Y29ubmVjdG9yLWN1cnZhdHVyZT0iMCIvPiYjeGE7CQkmI3hhOwkJCTxwYXRoIHN0eWxlPSJmaWxsOm5vbmU7c3Ryb2tlOiNmZmZmZmY7c3Ryb2tlLXdpZHRoOjEuMjM1OTk5OTQ7c3Ryb2tlLWxpbmVjYXA6cm91bmQ7c3Ryb2tlLWxpbmVqb2luOnJvdW5kO3N0cm9rZS1taXRlcmxpbWl0OjEwIiBkPSJtIDMzNi44OCwyMjcuOCBjIC0wLjE0LDQuOSAwLjA0LDkuODQgMC41MSwxMS4wNCAwLjQ4LDEuMiAxLjUxLDMuNTQgNS4wNCwyLjc4IDIuOTUsLTAuNjMgNC4wMiwtMS44NSA0LjQ5LC00LjU2IDAuMzQsLTEuOTkgMSwtNy41MSAxLjA5LC04LjY1IiBjbGlwLXBhdGg9InVybCgjU1ZHSURfNl8pIiBpZD0icGF0aDYwNDE4IiBpbmtzY2FwZTpjb25uZWN0b3ItY3VydmF0dXJlPSIwIi8+JiN4YTsJCSYjeGE7CQkJPHBhdGggc3R5bGU9ImZpbGw6bm9uZTtzdHJva2U6I2ZmZmZmZjtzdHJva2Utd2lkdGg6MS4yMzU5OTk5NDtzdHJva2UtbGluZWNhcDpyb3VuZDtzdHJva2UtbGluZWpvaW46cm91bmQ7c3Ryb2tlLW1pdGVybGltaXQ6MTAiIGQ9Im0gMzMyLjY0LDIwMy4yMSBjIDAsMCAtMTYsLTYuNTQgLTE1LjI1LDguMzMgMC4xNiwzLjE3IDQuNTMsMjMuOTQgOS43NSwxNy42NiAxLjkxLC0yLjI5IDMuNjQsLTQuMDkgMy42NCwtNC4wOSIgY2xpcC1wYXRoPSJ1cmwoI1NWR0lEXzZfKSIgaWQ9InBhdGg2MDQyMCIgaW5rc2NhcGU6Y29ubmVjdG9yLWN1cnZhdHVyZT0iMCIvPiYjeGE7CQkmI3hhOwkJCTxwYXRoIHN0eWxlPSJmaWxsOm5vbmU7c3Ryb2tlOiNmZmZmZmY7c3Ryb2tlLXdpZHRoOjEuMjM1OTk5OTQ7c3Ryb2tlLWxpbmVjYXA6cm91bmQ7c3Ryb2tlLWxpbmVqb2luOnJvdW5kO3N0cm9rZS1taXRlcmxpbWl0OjEwIiBkPSJtIDM0MS4yOCwyMDIuMDIgYyAtMC41NSwwLjE3IDguOSwtMy40NiAxNC4yNywzLjQgMS45LDIuNDIgLTAuMywxMi4zNCAtNS41NiwyMC4xNCIgY2xpcC1wYXRoPSJ1cmwoI1NWR0lEXzZfKSIgaWQ9InBhdGg2MDQyMiIgaW5rc2NhcGU6Y29ubmVjdG9yLWN1cnZhdHVyZT0iMCIvPiYjeGE7CQkmI3hhOwkJCTxwYXRoIHN0eWxlPSJmaWxsOm5vbmU7c3Ryb2tlOiNmZmZmZmY7c3Ryb2tlLXdpZHRoOjEuMjM1OTk5OTQ7c3Ryb2tlLWxpbmVjYXA6cm91bmQ7c3Ryb2tlLWxpbmVqb2luOmJldmVsO3N0cm9rZS1taXRlcmxpbWl0OjEwIiBkPSJtIDM0OS45OSwyMjUuNTYgYyAwLDAgMC4zNCwxLjY5IDUuMzIsMC42NiAyLjE4LC0wLjQ1IDAuODcsMS4yNyAtMS4zNSwyLjI5IC0xLjgxLDAuODQgLTUuODksMS4wNiAtNS45NSwtMC4xMSAtMC4xNywtMyAyLjE1LC0yLjA4IDEuOTgsLTIuODQgLTAuMTUsLTAuNjggLTEuMTksLTEuMzQgLTEuODcsLTMgLTAuNiwtMS40NSAtOC4yLC0xMi41NyAyLjExLC0xMC45MiAwLjM3LC0wLjA4IC0yLjY5LC05LjggLTEyLjM0LC05Ljk2IC05LjY0LC0wLjE2IC05LjMzLDExLjg2IC05LjMzLDExLjg2IiBjbGlwLXBhdGg9InVybCgjU1ZHSURfNl8pIiBpZD0icGF0aDYwNDI0IiBpbmtzY2FwZTpjb25uZWN0b3ItY3VydmF0dXJlPSIwIi8+JiN4YTsJCSYjeGE7CQkJPHBhdGggc3R5bGU9ImZpbGw6bm9uZTtzdHJva2U6I2ZmZmZmZjtzdHJva2Utd2lkdGg6MS4yMzU5OTk5NDtzdHJva2UtbGluZWNhcDpyb3VuZDtzdHJva2UtbGluZWpvaW46cm91bmQ7c3Ryb2tlLW1pdGVybGltaXQ6MTAiIGQ9Im0gMzM0LjE4LDIyNi41OSBjIC0xLjM0LDEuNSAtMC45NCwxLjc2IC0zLjY0LDIuMzIgLTIuNzIsMC41NiAtMS4xMiwxLjU2IC0wLjA4LDEuODIgMS4yNywwLjMxIDQuMTksMC43NiA2LjE3LC0yLjAxIDAuNiwtMC44NCAtMC4wMSwtMi4xOSAtMC44MywtMi41MyAtMC40LC0wLjE2IC0wLjkzLC0wLjM3IC0xLjYyLDAuNCB6IiBjbGlwLXBhdGg9InVybCgjU1ZHSURfNl8pIiBpZD0icGF0aDYwNDI2IiBpbmtzY2FwZTpjb25uZWN0b3ItY3VydmF0dXJlPSIwIi8+JiN4YTsJCSYjeGE7CQkJPHBhdGggc3R5bGU9ImZpbGw6bm9uZTtzdHJva2U6I2ZmZmZmZjtzdHJva2Utd2lkdGg6MS4yMzU5OTk5NDtzdHJva2UtbGluZWNhcDpyb3VuZDtzdHJva2UtbGluZWpvaW46cm91bmQ7c3Ryb2tlLW1pdGVybGltaXQ6MTAiIGQ9Im0gMzM0LjA5LDIyNi41NiBjIC0wLjE0LC0wLjg5IDAuMjksLTEuOTQgMC43NCwtMy4xNyAwLjY5LC0xLjg0IDIuMjcsLTMuNjggMSwtOS41NCAtMC45NCwtNC4zNiAtNy4yNywtMC45MSAtNy4yNywtMC4zMSAtMC4wMSwwLjU5IDAuMjksMi45OSAtMC4xMSw1Ljc5IC0wLjUxLDMuNjYgMi4zMyw2Ljc1IDUuNTksNi40NCIgY2xpcC1wYXRoPSJ1cmwoI1NWR0lEXzZfKSIgaWQ9InBhdGg2MDQyOCIgaW5rc2NhcGU6Y29ubmVjdG9yLWN1cnZhdHVyZT0iMCIvPiYjeGE7CQk8cGF0aCBzdHlsZT0iZmlsbDojZmZmZmZmIiBkPSJtIDMzMi41OCwyMTMuNDYgYyAtMC4wMywwLjIgMC4zNywwLjc0IDAuODksMC44MSAwLjUyLDAuMDggMC45NiwtMC4zNCAwLjk5LC0wLjU1IDAuMDIsLTAuMiAtMC4zNywtMC40MyAtMC44OSwtMC41IC0wLjUxLC0wLjA3IC0wLjk2LDAuMDMgLTAuOTksMC4yNCB6IiBjbGlwLXBhdGg9InVybCgjU1ZHSURfNl8pIiBpZD0icGF0aDYwNDMwIiBpbmtzY2FwZTpjb25uZWN0b3ItY3VydmF0dXJlPSIwIi8+JiN4YTsJCTxwYXRoIHN0eWxlPSJmaWxsOiNmZmZmZmYiIGQ9Im0gMzMyLjQsMjEzLjM2IDAuMDIsLTAuMDQgMC4wMiwtMC4wMyAwLjAzLC0wLjA0IDAuMDMsLTAuMDMgMC4wMiwtMC4wMiAwLjA0LC0wLjAzIDAuMDIsLTAuMDEgMC4wNCwtMC4wMyAwLjAyLC0wLjAxIDAuMDUsLTAuMDIgMC4wMiwtMC4wMSAwLjA2LC0wLjAyIGggMC4wMSBsIDAuMDYsLTAuMDIgaCAwLjAxIGwgMC4wNywtMC4wMSBoIDAuMDEgbCAwLjA4LC0wLjAxIGggMC4wMSBsIDAuMDgsLTAuMDEgaCAwLjAxIDAuMDggMC4wMSAwLjE4IDAuMDIgbCAwLjE5LDAuMDIgaCAwLjAyIGwgMC4xOSwwLjAzIGggMC4wMSBsIDAuMDksMC4wMiBoIDAuMDEgbCAwLjA4LDAuMDIgSCAzMzQgbCAwLjA4LDAuMDMgaCAwLjAxIGwgMC4wOCwwLjAzIGggMC4wMSBsIDAuMDcsMC4wMyBoIDAuMDEgbCAwLjA2LDAuMDMgMC4wMSwwLjAxIDAuMDYsMC4wMyAwLjAxLDAuMDEgMC4wNSwwLjA0IDAuMDIsMC4wMSAwLjA0LDAuMDQgMC4wMiwwLjAxIDAuMDQsMC4wNCAwLjAyLDAuMDIgMC4wMywwLjA0IDAuMDIsMC4wMyAwLjAyLDAuMDQgMC4wMSwwLjA0IDAuMDEsMC4wNCAwLjAxLDAuMDUgdiAwLjA0IGwgLTAuMDEsMC4wNiAtMC4wMSwwLjA0IC0wLjAxLDAuMDMgLTAuMDIsMC4wNCAtMC4wMSwwLjAyIC0wLjAzLDAuMDUgLTAuMDEsMC4wMiAtMC4wNCwwLjA1IC0wLjAxLDAuMDEgLTAuMDQsMC4wNSAtMC4wMSwwLjAxIC0wLjA1LDAuMDUgLTAuMDEsMC4wMSAtMC4wNiwwLjA1IC0wLjAxLDAuMDEgLTAuMDYsMC4wNSAtMC4wMSwwLjAxIC0wLjA3LDAuMDQgLTAuMDEsMC4wMSAtMC4wOCwwLjA0IC0wLjAyLDAuMDEgLTAuMDgsMC4wMyAtMC4wMSwwLjAxIC0wLjA4LDAuMDMgaCAtMC4wMiBsIC0wLjA5LDAuMDIgaCAtMC4wMiBsIC0wLjA5LDAuMDEgaCAtMC4wMiAtMC4wOSAtMC4wMiBsIC0wLjEsLTAuMDEgaCAtMC4wMiBsIC0wLjEsLTAuMDIgaCAtMC4wMiBsIC0wLjA5LC0wLjAzIC0wLjAyLC0wLjAxIC0wLjA5LC0wLjA0IC0wLjAyLC0wLjAxIC0wLjA5LC0wLjA0IC0wLjAxLC0wLjAxIC0wLjA4LC0wLjA1IC0wLjAxLC0wLjAxIC0wLjA4LC0wLjA2IC0wLjAxLC0wLjAxIC0wLjA3LC0wLjA2IC0wLjAxLC0wLjAxIC0wLjA2LC0wLjA2IC0wLjAxLC0wLjAxIC0wLjA2LC0wLjA2IC0wLjAxLC0wLjAxIC0wLjA1LC0wLjA2IC0wLjAxLC0wLjAxIC0wLjA0LC0wLjA2IC0wLjAxLC0wLjAxIC0wLjAzLC0wLjA2IC0wLjAxLC0wLjAxIC0wLjAzLC0wLjA2IC0wLjAxLC0wLjAyIC0wLjAyLC0wLjA1IC0wLjAxLC0wLjAzIC0wLjAxLC0wLjA1IHYgLTAuMDQgLTAuMDQgbCAwLjAxLC0wLjA1IHogbSAwLjM4LDAuMTUgMC4wMSwtMC4wNSB2IDAuMDQgLTAuMDQgbCAwLjAxLDAuMDUgLTAuMDEsLTAuMDMgMC4wMiwwLjA1IC0wLjAxLC0wLjAyIDAuMDMsMC4wNiAtMC4wMSwtMC4wMSAwLjAzLDAuMDYgLTAuMDEsLTAuMDEgMC4wNCwwLjA2IC0wLjAxLC0wLjAxIDAuMDUsMC4wNiAtMC4wMSwtMC4wMSAwLjA2LDAuMDYgLTAuMDEsLTAuMDEgMC4wNiwwLjA2IC0wLjAxLC0wLjAxIDAuMDcsMC4wNiAtMC4wMSwtMC4wMSAwLjA4LDAuMDYgLTAuMDEsLTAuMDEgMC4wOCwwLjA1IC0wLjAxLC0wLjAxIDAuMDgsMC4wNCAtMC4wMiwtMC4wMSAwLjA5LDAuMDQgLTAuMDIsLTAuMDEgMC4wOSwwLjAzIGggLTAuMDIgbCAwLjEsMC4wMiBoIC0wLjAyIGwgMC4xLDAuMDEgaCAtMC4wMiAwLjA5IC0wLjAyIGwgMC4wOSwtMC4wMSBoIC0wLjAyIGwgMC4wOSwtMC4wMiBoIC0wLjAyIGwgMC4wOCwtMC4wMyBoIC0wLjAxIGwgMC4wOCwtMC4wMyAtMC4wMiwwLjAxIDAuMDgsLTAuMDQgLTAuMDEsMC4wMSAwLjA3LC0wLjA0IC0wLjAxLDAuMDEgMC4wNiwtMC4wNSAtMC4wMSwwLjAxIDAuMDYsLTAuMDUgLTAuMDEsMC4wMSAwLjA1LC0wLjA1IC0wLjAxLDAuMDEgMC4wNCwtMC4wNSAtMC4wMSwwLjAxIDAuMDQsLTAuMDUgLTAuMDEsMC4wMiAwLjAzLC0wLjA1IC0wLjAxLDAuMDIgMC4wMiwtMC4wNCAtMC4wMSwwLjAzIDAuMDEsLTAuMDQgLTAuMDEsMC4wNiB2IC0wLjA0IGwgMC4wMSwwLjA1IC0wLjAxLC0wLjA0IDAuMDEsMC4wNCAtMC4wMiwtMC4wNCAwLjAyLDAuMDMgLTAuMDMsLTAuMDQgMC4wMiwwLjAyIC0wLjA0LC0wLjA0IDAuMDIsMC4wMSAtMC4wNCwtMC4wNCAwLjAyLDAuMDEgLTAuMDUsLTAuMDQgMC4wMSwwLjAxIC0wLjA2LC0wLjAzIDAuMDEsMC4wMSAtMC4wNiwtMC4wMyAwLjAxLDAuMDEgLTAuMDcsLTAuMDMgaCAwLjAxIGwgLTAuMDgsLTAuMDMgaCAwLjAxIGwgLTAuMDgsLTAuMDMgaCAwLjAxIGwgLTAuMDksLTAuMDIgaCAwLjAxIGwgLTAuMDksLTAuMDIgaCAwLjAxIGwgLTAuMTksLTAuMDMgaCAwLjAyIGwgLTAuMTksLTAuMDIgaCAwLjAyIC0wLjE4IDAuMDEgLTAuMDggMC4wMSBsIC0wLjA4LDAuMDEgaCAwLjAxIGwgLTAuMDgsMC4wMSBoIDAuMDEgbCAtMC4wNywwLjAxIGggMC4wMSBsIC0wLjA3LDAuMDIgaCAwLjAxIGwgLTAuMDYsMC4wMiAwLjAyLC0wLjAxIC0wLjA1LDAuMDIgMC4wMiwtMC4wMSAtMC4wNCwwLjAzIDAuMDIsLTAuMDEgLTAuMDQsMC4wMyAwLjAyLC0wLjAyIC0wLjAzLDAuMDMgMC4wMywtMC4wNCB2IDAuMDMgbCAwLjAxLC0wLjA0IHoiIGNsaXAtcGF0aD0idXJsKCNTVkdJRF82XykiIGlkPSJwYXRoNjA0MzIiIGlua3NjYXBlOmNvbm5lY3Rvci1jdXJ2YXR1cmU9IjAiLz4mI3hhOwkJPHBhdGggc3R5bGU9ImZpbGw6I2ZmZmZmZiIgZD0ibSAzNDguMzcsMjEzLjA0IGMgMC4wMywwLjIgLTAuMzcsMC43NCAtMC44OSwwLjgxIC0wLjUyLDAuMDcgLTAuOTYsLTAuMzUgLTAuOTksLTAuNTUgLTAuMDMsLTAuMiAwLjM3LC0wLjQzIDAuODksLTAuNSAwLjUyLC0wLjA2IDAuOTcsMC4wNCAwLjk5LDAuMjQgeiIgY2xpcC1wYXRoPSJ1cmwoI1NWR0lEXzZfKSIgaWQ9InBhdGg2MDQzNCIgaW5rc2NhcGU6Y29ubmVjdG9yLWN1cnZhdHVyZT0iMCIvPiYjeGE7CQk8cGF0aCBzdHlsZT0iZmlsbDojZmZmZmZmIiBkPSJtIDM0OC4yNiwyMTMuMDMgMC4wMSwwLjAyIC0wLjAyLC0wLjAzIDAuMDEsMC4wMSAtMC4wMiwtMC4wMiAwLjAxLDAuMDEgLTAuMDQsLTAuMDMgMC4wMSwwLjAxIC0wLjA0LC0wLjAzIGggMC4wMSBsIC0wLjA1LC0wLjAyIGggMC4wMSBsIC0wLjA2LC0wLjAyIGggMC4wMSBsIC0wLjA2LC0wLjAyIGggMC4wMSBsIC0wLjA3LC0wLjAxIGggMC4wMSBsIC0wLjA4LC0wLjAxIHYgMCBsIC0wLjA4LC0wLjAxIHYgMCBoIC0wLjA4IDAuMDEgLTAuMTggMC4wMSBsIC0wLjE5LDAuMDIgaCAwLjAxIGwgLTAuMTksMC4wMyBoIDAuMDEgbCAtMC4wOSwwLjAyIHYgMCBsIC0wLjA4LDAuMDIgdiAwIGwgLTAuMDgsMC4wMyB2IDAgbCAtMC4wOCwwLjAzIGggMC4wMSBsIC0wLjA3LDAuMDMgaCAwLjAxIGwgLTAuMDYsMC4wMyBoIDAuMDEgbCAtMC4wNiwwLjAzIGggMC4wMSBsIC0wLjA1LDAuMDQgMC4wMSwtMC4wMSAtMC4wNCwwLjA0IDAuMDEsLTAuMDEgLTAuMDMsMC4wNCAwLjAxLC0wLjAxIC0wLjAzLDAuMDQgMC4wMSwtMC4wMSAtMC4wMiwwLjA0IDAuMDEsLTAuMDIgLTAuMDEsMC4wNCB2IC0wLjAzIDAuMDQgLTAuMDIgbCAwLjAxLDAuMDQgLTAuMDEsLTAuMDIgMC4wMiwwLjA0IC0wLjAxLC0wLjAxIDAuMDMsMC4wNSB2IC0wLjAxIGwgMC4wNCwwLjA1IC0wLjAxLC0wLjAxIDAuMDQsMC4wNSB2IC0wLjAxIGwgMC4wNSwwLjA1IHYgMCBsIDAuMDYsMC4wNSBoIC0wLjAxIGwgMC4wNiwwLjA1IGggLTAuMDEgbCAwLjA3LDAuMDQgaCAtMC4wMSBsIDAuMDcsMC4wNCBIIDM0NyBsIDAuMDgsMC4wMyBoIC0wLjAxIGwgMC4wOCwwLjAzIGggLTAuMDEgbCAwLjA5LDAuMDIgaCAtMC4wMSBsIDAuMDksMC4wMSBoIC0wLjAxIDAuMDkgLTAuMDEgbCAwLjEsLTAuMDEgaCAtMC4wMSBsIDAuMSwtMC4wMiBoIC0wLjAxIGwgMC4wOSwtMC4wMyBoIC0wLjAxIGwgMC4wOSwtMC4wNCBoIC0wLjAxIGwgMC4wOSwtMC4wNCBoIC0wLjAxIGwgMC4wOCwtMC4wNSBoIC0wLjAxIGwgMC4wOCwtMC4wNiBoIC0wLjAxIGwgMC4wNywtMC4wNiB2IDAuMDEgbCAwLjA2LC0wLjA2IHYgMCBsIDAuMDYsLTAuMDYgdiAwLjAxIGwgMC4wNSwtMC4wNyB2IDAuMDEgbCAwLjA0LC0wLjA2IHYgMCBsIDAuMDQsLTAuMDYgdiAwLjAxIGwgMC4wMywtMC4wNiB2IDAuMDEgbCAwLjAyLC0wLjA1IHYgMC4wMSBsIDAuMDEsLTAuMDUgdiAwLjAyIC0wLjA0IDAuMDIgeiBtIDAuMjEsLTAuMDIgdiAwLjAyIDAuMDQgMC4wMiBsIC0wLjAxLDAuMDUgdiAwLjAxIGwgLTAuMDIsMC4wNSB2IDAuMDEgbCAtMC4wMywwLjA2IC0wLjAxLDAuMDEgLTAuMDQsMC4wNiB2IDAgbCAtMC4wNCwwLjA2IHYgMC4wMSBsIC0wLjA1LDAuMDYgdiAwLjAxIGwgLTAuMDYsMC4wNiB2IDAgbCAtMC4wNiwwLjA2IHYgMCBsIC0wLjA3LDAuMDYgaCAtMC4wMSBsIC0wLjA4LDAuMDYgdiAwIGwgLTAuMDgsMC4wNSBoIC0wLjAxIGwgLTAuMDgsMC4wNCBoIC0wLjAxIGwgLTAuMDksMC4wNCBoIC0wLjAxIGwgLTAuMDksMC4wMyBoIC0wLjAxIGwgLTAuMSwwLjAyIGggLTAuMDEgbCAtMC4xLDAuMDEgaCAtMC4wMSAtMC4wOSAtMC4wMSBsIC0wLjA5LC0wLjAxIGggLTAuMDEgbCAtMC4wOSwtMC4wMiBoIC0wLjAxIEwgMzQ3LDIxMy45IGggLTAuMDEgbCAtMC4wOCwtMC4wMyBoIC0wLjAxIGwgLTAuMDgsLTAuMDQgaCAtMC4wMSBsIC0wLjA3LC0wLjA0IGggLTAuMDEgbCAtMC4wNiwtMC4wNSBoIC0wLjAxIGwgLTAuMDYsLTAuMDUgdiAwIGwgLTAuMDUsLTAuMDUgdiAtMC4wMSBsIC0wLjA0LC0wLjA1IHYgLTAuMDEgbCAtMC4wNCwtMC4wNSB2IC0wLjAxIGwgLTAuMDMsLTAuMDUgLTAuMDEsLTAuMDEgLTAuMDIsLTAuMDQgLTAuMDEsLTAuMDIgLTAuMDEsLTAuMDQgdiAtMC4wMiAtMC4wNCAtMC4wMyBsIDAuMDEsLTAuMDQgMC4wMSwtMC4wMiAwLjAyLC0wLjA0IDAuMDEsLTAuMDEgMC4wMywtMC4wNCAwLjAxLC0wLjAxIDAuMDMsLTAuMDQgMC4wMSwtMC4wMSAwLjA0LC0wLjA0IDAuMDEsLTAuMDEgMC4wNSwtMC4wNCBoIDAuMDEgbCAwLjA2LC0wLjAzIGggMC4wMSBsIDAuMDYsLTAuMDMgdiAwIGwgMC4wNywtMC4wMyB2IDAgbCAwLjA4LC0wLjAzIHYgMCBsIDAuMDgsLTAuMDMgdiAwIGwgMC4wOSwtMC4wMiB2IDAgbCAwLjA5LC0wLjAyIGggMC4wMSBsIDAuMTksLTAuMDMgaCAwLjAxIGwgMC4xOSwtMC4wMiBoIDAuMDEgMC4xOCAwLjAxIDAuMDggdiAwIGwgMC4wOCwwLjAxIHYgMCBsIDAuMDgsMC4wMSBoIDAuMDEgbCAwLjA3LDAuMDEgaCAwLjAxIGwgMC4wNiwwLjAyIGggMC4wMSBsIDAuMDYsMC4wMiBoIDAuMDEgbCAwLjA1LDAuMDIgaCAwLjAxIGwgMC4wNCwwLjAzIDAuMDEsMC4wMSAwLjA0LDAuMDMgMC4wMSwwLjAxIDAuMDMsMC4wMyAwLjAxLDAuMDIgMC4wMiwwLjAzIDAuMDEsMC4wMiB6IiBjbGlwLXBhdGg9InVybCgjU1ZHSURfNl8pIiBpZD0icGF0aDYwNDM2IiBpbmtzY2FwZTpjb25uZWN0b3ItY3VydmF0dXJlPSIwIi8+JiN4YTsJCSYjeGE7CQkJPHBhdGggc3R5bGU9ImZpbGw6bm9uZTtzdHJva2U6I2ZmZmZmZjtzdHJva2Utd2lkdGg6MS4yMzU5OTk5NDtzdHJva2UtbGluZWNhcDpyb3VuZDtzdHJva2UtbGluZWpvaW46cm91bmQ7c3Ryb2tlLW1pdGVybGltaXQ6MTAiIGQ9Im0gMzUwLjIzLDIxMS42NCBjIDAuMDgsMS41OSAtMC4zNCwyLjY2IC0wLjQsNC4zNSAtMC4wOCwyLjQ1IDEuMTcsNS4yNiAtMC43MSw4LjA2IiBjbGlwLXBhdGg9InVybCgjU1ZHSURfNl8pIiBpZD0icGF0aDYwNDM4IiBpbmtzY2FwZTpjb25uZWN0b3ItY3VydmF0dXJlPSIwIi8+JiN4YTsJPC9nPiYjeGE7PC9nPiYjeGE7PC9zdmc+;" parent="1" vertex="1">
          <mxGeometry x="486.75" y="422.19" width="56.5" height="57.81" as="geometry" />
        </mxCell>
        <mxCell id="lId9YTHrqZy0qMTVwQLb-6" value="" style="shape=image;verticalLabelPosition=bottom;labelBackgroundColor=default;verticalAlign=top;aspect=fixed;imageAspect=0;image=data:image/svg+xml,PHN2ZyB4bWxucz0iaHR0cDovL3d3dy53My5vcmcvMjAwMC9zdmciIHZpZXdCb3g9IjAgMCAxMjggMTI4Ij48cGF0aCBmaWxsPSIjMDQ5Njg4IiBkPSJNNTYuODEzIDEyNy41ODZjLTEuOTAzLS4yMjctMy44OTktLjUyLTQuNDM0LS42NTJhNDguMDc4IDQ4LjA3OCAwIDAwLTIuMzc1LS41IDM2LjA0MiAzNi4wNDIgMCAwMS0yLjcwMy0uNjMzYy00LjE0NS0xLjE4OC00LjQ0Mi0xLjI4NS03LjU2Ny0yLjU2My0yLjg3NS0xLjE3Mi04LjE3Mi0zLjkxLTkuOTg0LTUuMTU2LS40OTYtLjM0NC0uOTYtLjYyMS0xLjAzMS0uNjIxLS4wNyAwLTEuMjMtLjgxNi0yLjU3OC0xLjgxMy04LjU3LTYuMzQzLTE1LjAwNC0xNC4wNDMtMTkuNjUzLTIzLjUyNy0uOC0xLjYyOS0xLjQ1My0zLjA3NC0xLjQ1My0zLjIxIDAtLjEzNC0uMTQ0LS41MDUtLjMyLS44MTctLjM2My0uNjQ5LS44OC0yLjA0Ny0xLjI5Ny0zLjQ5MmEyMC4wNDcgMjAuMDQ3IDAgMDAtLjYyNS0xLjgxM2MtLjE5NS0uNDYtLjM1Mi0xLjAyLS4zNTItMS4yNDYgMC0uMjI3LS4xOTUtLjk2NS0uNDMzLTEuNjQ1LS4yMzgtLjY3NS0uNDMtMS40NzItLjQzLTEuNzcgMC0uMjk2LS4xODctMS4zMi0uNDE4LTIuMjc2Qy41OTggNzMuNDkyIDAgNjcuMzc5IDAgNjMuOTUzYzAtMy40MjIuNTk4LTkuNTM1IDEuMTYtMTEuODk0LjIzLS45NTcuNDE4LTIgLjQxOC0yLjMyIDAtLjMyMS4xNDUtLjk1LjMyLTEuNC4xOC0uNDQ4LjQxLTEuMjUzLjUxNi0xLjc4OC4xMS0uNTM1LjM2LTEuNDU3LjU2My0yLjA1NWwuNTktMS43MjZjLjQzMy0xLjI5My44MzUtMi4zODcgMS4wMjctMi44MTMuMTEtLjIzOC41MzktMS4yMS45NTctMi4xNi42NzYtMS41MzUgMi4xMjUtNC40MyAyLjk3Mi01Ljk0NS4zMDktLjU1NS40MjYtLjczOSAyLjA5OC0zLjM1MiAyLjY0OS00LjE0OCA3LjE3Ni05LjMwOSAxMS4zOS0xMi45ODggMS40ODUtMS4yOTcgNi40NDYtNS4wNjMgNi42NjktNS4wNjMuMDYyIDAgLjUzLS4yODEgMS4wNDMtLjYyNSAxLjM0Ny0uOTAyIDIuNjY4LTEuNjY4IDQuMzktMi41MzFhNTMuMDYgNTMuMDYgMCAwMDEuODM2LS45NTNjLjI4NS0uMTY0LjgyLS40MSAzLjU2Ny0xLjY0LjYwNS0uMjcgMS4yNTctLjUxNiAzLjEzNi0xLjE3My40MTQtLjE0NCAxLjI0Ni0uNDQ5IDEuODQtLjY3Mi41OTgtLjIyMiAxLjMwMS0uNDA2IDEuNTYzLS40MDYuMjU4IDAgLjkzNy0uMTggMS41MDgtLjQwMi41Ny0uMjIzIDEuNjA1LS40NzcgMi4zMDQtLjU2My42OTYtLjA4MiAxLjYyMS0uMjc3IDIuMDU1LS40My40My0uMTQ4IDEuNjEtLjM0IDIuNjIxLS40MjVhNzIuNTcyIDcyLjU3MiAwIDAwMy45NDEtLjQ2NWMyLjY4OC0uMzk0IDguNTMyLS4zOTQgMTEuMTkyIDBhNzUuMDIgNzUuMDIgMCAwMDMuNzgxLjQ0NWMuOTUzLjA3OSAyLjE2OC4yNzggMi43MDMuNDQyLjUzNS4xNiAxLjQ2MS4zNiAyLjA1NS40MzMuNTk0LjA3OSAxLjU5NC4zMjUgMi4yMjIuNTUxLjYzLjIzIDEuMzQ0LjQxNCAxLjU5LjQxNHMuNzU0LjEzNyAxLjEyNS4zMDljLjM3NS4xNjggMS4xNjguNDQ5IDEuNzY2LjYyNS41OTQuMTggMS42MTMuNTM1IDIuMjcuNzk3LjY1Mi4yNjEgMS41MjcuNjA1IDEuOTQ1Ljc2MS43Ny4yOSA2LjQ2IDMuMTM3IDcuMjM0IDMuNjIyIDYuMjgxIDMuOTE3IDkuNTEyIDYuNDc2IDEzLjg1NiAxMC45NjQgNS4yMzggNS40MTQgOC43MTUgMTAuNTcgMTIuMjU0IDE4LjE2LjI1LjUzNi42MzIgMS4zMjkuODUxIDEuNzU4LjIxNS40MzQuMzk1Ljk0Mi4zOTUgMS4xMyAwIC4xOS4xOC43Ni40MDIgMS4yNjkuNjAyIDEuMzgzIDEuMTE3IDIuOTU3IDEuMzYgNC4xNi4xMi41OS4zNDMgMS4zMi40OTUgMS42MjEuMTUzLjMuMzMyIDEuMDYzLjQwMyAxLjY4OC4wNy42MjQuMjc3IDEuNjQ4LjQ1MyAyLjI2OSAxLjAyIDMuNTMxIDEuNTI3IDEzLjkzNC45MSAxOC41MzUtLjE4MyAxLjM2Ny0uMzkgMy4wMi0uNDYgMy42NzItLjExOCAxLjExNy0uNzA4IDQuMDA0LTEuMjEyIDUuOTQ1bC0uNTIgMi4wNTVjLS45OCAzLjk1Ny0zLjQwMiA5LjU5NC02LjM1OSAxNC44MDktMS4xNzIgMi4wNy01LjEwMSA3LjY2OC01Ljg0MyA4LjMyNC0uMDY3LjA1OC0uMzk5LjQ1LS43MzUuODYzLS4zMzYuNDE4LTEuNDE0IDEuNTg2LTIuMzkgMi41OTQtNC4zMDEgNC40NDEtNy43NyA3LjE4Ny0xMy44NiAxMC45NjktLjcyMi40NDktNi44NDcgMy40NDEtNy45OTIgMy45MDYtLjU5NC4yMzgtMS41ODYuNjQtMi4yMDMuODktLjYxMy4yNDctMS4yOTcuNDU0LTEuNTEyLjQ1OC0uMjE1LjAwMy0uNzgxLjE5NS0xLjI1OC40MjUtLjQ3Ni4yMy0xLjA4Mi40MjItMS4zNTEuNDI2LS4yNjYuMDA0LTEuMDQzLjE5Mi0xLjcyNy40MTgtLjY4My4yMy0xLjYzMy40NzctMi4xMS41NS0uNDc2LjA3NS0xLjQ5NS4yNzgtMi4yNjkuNDUtLjc3My4xNzItMy4xMS41MDgtNS4xODcuNzQ2YTU5LjA2IDU5LjA2IDAgMDEtMTMuOTQ1LS4wMzF6bTQuNzAzLTEyLjVjLjMtLjIzNC42MDktLjcuNjkxLTEuMDI3LjE4LS43MjMgMjkuMjM0LTU4Ljk3IDI5Ljc4MS01OS43LjQ2MS0uNjE3LjUwNC0xLjYwNS4wODItMS45NTMtLjIyMi0uMTg3LTMuMDA0LS4yNDYtMTAuNDMtLjIzNC01LjU3LjAxMi0xMC4yNTMuMDE2LTEwLjQwNi4wMTItLjIyNi0uMDA4LS4yNzMtMy43My0uMjUtMTkuNjcyLjAxNi0xMC44MTctLjAzNS0xOS43NjYtLjExMy0xOS44OS0uMDc4LS4xMjYtLjM4My0uMjI3LS42OC0uMjI3LS40MTggMC0uNjEzLjE4LS44Ny44MDgtLjQ4NSAxLjE2OC0xLjgyNSAzLjgyLTguMzQ4IDE2LjQ4NWEzNTU0LjU2OSAzNTU0LjU2OSAwIDAwLTQuMDU1IDcuODljLTEuMTU2IDIuMjYyLTIuOTggNS44MTMtNC4wNDcgNy44OWE4NzUxLjI0OCA4NzUxLjI0OCAwIDAwLTguNTk4IDE2Ljc1OWMtNC45MzMgOS42MzYtNS41MyAxMC43ODUtNS43NDIgMTEuMDM5LS40MS40OTYtLjYzMyAxLjY0LS40MDIgMi4wNy4yMS4zOTQuNjI5LjQxIDExLjA0My4zOTQgNS45NTMtLjAwNyAxMC44NjMuMDI0IDEwLjkxNC4wNy4xMzcuMTQxLjA4NiAzNy4zMS0uMDU1IDM4LjE5Ni0uMDkzLjU4Mi0uMDMxLjg5LjIzNSAxLjE1Ni40Ni40NjEuNTg2LjQ1NyAxLjI1LS4wNjZ6bTAgMCIvPjwvc3ZnPg==;" parent="1" vertex="1">
          <mxGeometry x="695" y="229.5" width="80" height="80" as="geometry" />
        </mxCell>
        <mxCell id="lId9YTHrqZy0qMTVwQLb-7" value="" style="shape=image;html=1;verticalAlign=top;verticalLabelPosition=bottom;labelBackgroundColor=none;imageAspect=0;aspect=fixed;image=https://cdn2.iconfinder.com/data/icons/boxicons-logos/24/bxl-heroku-128.png;fontColor=none;labelBorderColor=none;noLabel=1;" parent="1" vertex="1">
          <mxGeometry x="920" y="210" width="119" height="119" as="geometry" />
        </mxCell>
        <mxCell id="VOohrECMqtA-v3Q6aIey-1" value="" style="shape=image;verticalLabelPosition=bottom;labelBackgroundColor=default;verticalAlign=top;aspect=fixed;imageAspect=0;image=data:image/png,iVBORw0KGgoAAAANSUhEUgAAAXQAAAEXCAYAAAC9A7+nAAAABGdBTUEAALGPC/xhBQAAACBjSFJNAAB6JgAAgIQAAPoAAACA6AAAdTAAAOpgAAA6mAAAF3CculE8AAAABmJLR0QA/wD/AP+gvaeTAABg30lEQVR42u2deXwU5f3HP9+Z2TOb3ZwkIQm34AUKciiK9121Wo22IhqysyuitKW1te2vR2ztbastVmGzCyjaqlStWo+qiKIiICD3IYpALnJnc232mOf5/ZFElyUhk7C54Hm/Xrw0s8/OzjzzzGee5zPf5/sQBIITjIULF1oaGhouJ6LriKi5qKjoB6JWBCcDiqgCwYmA0+lMaRfw6xobG68hIhsAcM6fEbUjEIIuEAxy3G73CMbY1QCuB3AVAAPnXFSMQAi6QDDUYIy9AGCqqAmBoA1JVIFAIBAIQRcIBAKBEHSBQCAQCEEXCAQCgRB0gUAgEIIuEAgEAiHoAoFAIOgfRBy6QCAQ9DMFBQVTiWh0N8XKfD7fR6qqXss5T+Ccb1q6dOn+2EJz587NlSTpXFmWy4WgCwQCQT8jy/JdnPPZUZsSARCAhqhtbwD4CMBj7eJfBMDdyb7uB/BdxtjrQtAFAoGgnykqKloAYEHH36qqfgQg1ev1ntrFVxgRfaNd9L/Kb5GXlycDuK1jm/DQBX1GXl6eUVXVbzqdzstEbQgEx8U6AMNVVZ0SvTEpKelyIrIA2AUID13QB6iqeg6AOwF8B0A6gAcArBI1IxD0mjUAxqEtEd2mjo2c8+8AeAnAmULQBXHD5XKdwTnPA3AHgLGiRgSC+ME5jxDRK+2CXggA+fn5ZgA3Ari9Q9CF5SI43t74j1RV3cY53wHgV0LMBYI+E/UXAExWVTUHAGRZvh4A8/v973SUEYIuOF5+A2CiqAaBoG+RZXkVgHoA1wIAEX0HwIsrV64MCUEXCASCIYTH4wkDeA3A9bNnz7YDuJox9nx0GSHoAoFAMERot10uM5vNdwJoHjFixLtC0AUCgWAIYrfb/wdAI6Jfc85fKiwsjAhBFwgEgiHII488EiCiNwAkE9GzsZ+LsEWBQCAYYBhjVweDQersM0mSJickJHz14jMcDt9psVjufuKJJ+o7tgUCgUsdDgcTgi4QCAQDzNKlSxu7+szj8fij/16+fHkrgNbobc8880wDICwXgUAgOGEQgi4QCARC0AUCgUAgBF0gEAgEQtAFAoFAIARdIBAIhKALBAKBYPAzKOPQFy5caGloaJgIYAKA8UQ0AsAwIsrinCcCMAMwAjgIwM85DxLRPiLarWnaxqVLl25C1DJNA8Hs2bPtZrP5m5Ik3cY5/5nX690mmpugv8nLyzM6HI4ZnPPziOgUAOMBZAKwALAB0AA0EFEjgC8BfMY536lp2uply5YVD7XzdbvdVs75GZzzSQBOAzASQA6AYQAS2nUjCKAZQD0RFXPO9wDYzRj7sLNFmIcSNBgOYs6cOQlGo/FSSZKu5JzPBDDpOB82h4noZcbYYz6fb0c/N6brOOe3oS3Fpbn9o6ler3dTfx2H0+kcCeCe7soxxv6h56Z1Op3noy2x/tENiOh+AHI3u3iPc75ez7HLsvxrj8fToqesqqqfAJjaTbFnvF7vHXrrrrCwUCkuLj4VwDmSJJ3JOR8BIBdAanubtAFoAuAH8AURbeWcv+/3+9euXLlSGySiZmCMXQ8gH8Cl7ULWGz4H8G9ZlpcuWbJk32AUsNmzZ9utVusVjLFZRHQBgLN1tMdjsYeIXtE0bclQFPcB66EvWLDA1Nraeh3nfA6AqwGYOI9bpzqTc343EbmdTuebRPRDr9e7u6/OIxAIXA3gNsbYDcdx88QNSZKyOecPdFfOYDC8BKBYx/6m6tnfMbiYiC7WU1DTtD8BaOnP+rrnnnuSQ6HQTQCuLS0tvYKI7ABwjPY4rP2/kznntwCAw+EoU1V1maZpf1u2bFnVAI5s72WM3Q8gIw67HAfgJ5qmPaCq6irG2C+XLl368WAQcYvFcgPnPI+IruScm4ni1jc9lXN+qiRJP1RV9WVN036xbNmyXULQu+5VZRDR/EAgMC/qxuizEQgRXQPgMlVVf+/3+38Tz16UqqqTAoHAGgAOMbgfejidzsuIyB0Oh28gInM3It4dwwH8nyzL31NV9Rd+v39Rf/bYVVX9TmNj45+JKLuPRvKXS5J0udPpfIUxdt9A2DGqquYQ0fcAuDnn9jiKeKeDRQDfkmX5OqfT+Ser1frQokWLgoO9TffbS9H8/Pwkl8v1OwD7Oee/7Acxj8YI4FcOh+O/brc7nuLrEGI+5CCn03mjqqobiOgdALfia2ssHtgAPOJwON50u91p/fBQSlFV9TkA/wSQ3eeVR3SDLMvbnU7nXf1oIY1VVfVJAF9wzu/nnNv7UzuI6OeBQGBVf1zPoSDopKrqXEVR9nHOfwrAOoDnezVj7MM777wzVejayUdBQcFUp9O5hoheAjCtj3/ucsbYGrfbndWH5zOBiDa0P5T6EwcRLVdV9YnCwsI+G+XPnj3b7nK5/sgY2wngzvaO2UBxPmPs43nz5mUP5jbep5aLqqoZAJ4GcHkvvs4B7OGcbyWiYgAlaM8wxjknIhqGtiiYC9H20kovZxqNxtfnz59/2eOPP94kZO7EZ86cOQkmk+mPaHtR3J+huqcxxt6ePXv2zI5sePHC5XLN5Jy/CiClh19tBLAFwJdEVMkYc0iSNJxzPhlttlFPmFdSUjJ6zpw5N69YsaI5zqMoJxE9xDnvybuAVgBriWgzY6xMkqRKABWMMRsR2QCkAZgO4IIeakYH4yKRyMtut/tCvS/uTxhBLygomArgFQA96aH4iegVAP8Oh8Nrli9fXq/z4s8C8JN2v1wP00Oh0FMAviXkrnsYY6uI6O4uPv6Hjnb0IoD/6fktq9XaHOfDP81kMm1B2ws+vTRzzne0h8LWtwtCDoBT0BYG1xPOsFgszwC4AXEKpXU6nZM5569Dv91XCWApEb2YnZ29qbCwkHWqzvPmjQqHw7cQUQHaQv70cJXJZPrPggULrouHx+x2u0cwxpYCuEzvtQKwgnP+b7vdvvaRRx4J6K3D9gitW3uog+cwxpYAmDMY79U+eatQUFBwiSRJr6DNT9TDJwAei0Qiz7fn+u1tQ7+RiHx6ey1EdG9RUdHjxzECmQVgjY6i/Rq22N57+6i7cpIknevxeNYfz2+pqtoKwHTMoRbnD/h8vj/1wQhQT9iiXsoAPMM5/29ubu7a2KW9our2bAA/4Jzf0ZP7h3M+z+fzLYmD4I1ljH0EfVEsfiL6dTgcfrwn91VhYaFUUlJyG4A/Q78v/7Lf77/5eF4Eq6o6l4ge1emRFwP4WyQS8ens+HV1r4znnD8LYHJP3AMiuqCoqGjtCd9DV1X1HAAv6xTz1yVJ+vXxikoHPp/vPwUFBbslSVqlpyFyzh92u93/83g8X4h++EnLRgAP+f3+/+oRo6Kioi0A7lRVdTmA59qH8Xo6D7+/5557nn/iiSfqjkPMrYyxF3WK+ToAeUVFRSU9/Z32Hvy/nE7n/4hoKYBv6vjaNx0Ox68A/LKXwrqYc363jiijMOf8r6FQ6DfxsHmKioo+y8/Pn6koymMAnHo7wpzzP6DN7h1U9IWfOA9AYjdlggDmeL3eb8RLzDtYunTpXs751Wib/NEdFsbY34WmnZRs4pzf4PV6p3u93pd72rP0er3vEtHFRKTXG08OhUI/OJ4D1jTtH2ibdNfdw+M1i8VysdfrLTme3/P5fLV+v/9mAD6dX/k/l8t1VW9+i3N+po5in2madrbP5/tJPD375cuXt+bk5LgB/LsHX5ulqurok0HQ9bDP6/U+3Vc79/l8O4hogc7i17pcrmsgOCngnB8AcKPX653m8/lexXH42kVFRTs5599B2/R5Pb30uxcsWGDqZQ/2OiLK11H0Y7PZfHO8YqZXrlyp5eTkuDnnr+jRE865d/bs2X0VVritryb5FBYWssTExDsBfKr3O0R0nRD0fqKoqOhJIlqt8yb/JQQnOhqAR0Oh0Jler/dlxOkFpdfrfR2A3vcw6S0tLT2O+Jo/f76Nc/6YjqI1iqLkxXsCTGFhIWt/Z6BnKnyO1Wr97VBsIO0vVO/vQefgfCHo/dgZY4z9QmfZc10u1+UQnKjskCTpfK/XuzDO4XUdVshv0BYOqKdX942e7j8YDP4A+qJrHli8eHFpX1Rg+yLG8/Q8CDnn9xQUFEwYig2l3UpbrbN4phD0fsTn830EQNebaM75PRCccBDRar/ff06839VEs2zZsioi8uosfl5P9p2fn59ERAt1FN3p9XqX9rHYvc05f1NHUVmSpCE76mWMLROCPnjR28ivmzdv3jAITqxhGudlK1euDPX172ia9k+dRc/Iy8vTnQ1QUZT5AJJ0FP0D+iFltCzLv9NZ9Da32z12KLYZWZbf0TkSMQ22Yz/hBV2SpJcBMB1FjeFw+FYIBL2zJDaiLZ94dxgcDoeuyXaFhYUSAFVH0bpIJPLv/jhPj8fzIef8Qz26yDl3DsVr6fF4ygHsHZJ6d6LfaB6Pp5qItusU/+uFNAmOgw06y+ma+FZSUnIZAD2hcS8ez4S8nkJEuiZIcc7n9mWulz6meCge9MmyBN27OhvgRfPnz7dBIOgFnPPNOovqTVCnKzUFEb3Rz+f5OoCIjqKZxcXFM4fo5awWgj5IYYzpfWttCoVC50Eg6F3P9aBOQdTroeuKiAkGg+/153n6fL5a6Aw2QNvKXUPxWtYIQR+kGAyGzT24kDOENAl62XP1x2tfqqqeBn0ZAcufeuqpfhcfInpdZ7krh+i1jAzF4z4pBD0zM7Mc7al3dVxIIeiCARd0zrnepGM7B+h0t+gsd2Z+fr5ZtA4h6HGjPdnQQZ3FTxXNQtDLXqsWx33pEnTO+c4BOle9a/QajEbjWaJ1CEGPN1/qLDc6Ly/PKJqGYIDRNdNSkqQ9A3FwHo+nGDpnx2qaJjpJQtAHTNDlxMTE0aJpCAa4t693RZ2qATpEDuBznQ+dXHFFhaDH+wap11tWluVM0TQEAwnnXK8IDuQyiv44n4tACLruGySgtyxjTKQAEAwY7akBEnW21YEUdL2/7RBXVQh6vHvozT0omyaahmCgSE9Pt/SgozKQgq53cY8EcVWFoMebnqzSbRVNQzBQBAIB3YLek45KH4x69f62RVxVIehxhTEW6EFxk2gagoFC0zSmt2wPZp32xahXbzRYRFxVIejxbnxaD8oKQRcMGGazWXfnQ5Ik2wDeU3pHsq3iqgpBjze6bRTGmCaahmCgqKur072EHOd8wPxpvb/dk4AEgRB0vb2JnvRkRI9CMGCsXLlSA1AX745KH2DTee9ViasqBH3AeuiSJIkehWCgOyDlOttq0mC/pzjn5eKKCkEfkOFhe9lq0TQEA9xey/SUY4yNHsBj1BVfTkSl4ooKQY9340vVW5Yxdlg0DcEAo2sJNEmSxg3EwRUWFipENErnMe4Vl1MIeryHsKfoLSvLsuhRCAa6ve7Q2VEZEEEvLi4eBcCgp38UCAR2iCsqBD3e6BX0YHZ29n7RNAQDiaZpW+PcruP9wBmvs+jnK1asaBZXVAh63JgzZ04CgOE6i39WWFgoJkIIBpTGxsZNAPQIYVZBQcGYAThEXYLOOX9fXE0h6HHFaDSOB0A6i2+O9+8TkSSamqAnrFy5MgSd63bKsnxZfx8f5/x0nW1/tbiaQtDjLaiX9qChrumD4XOyaGqCXvA/PYUYY5cOwD01S0exiKZp74jLKAQ93lyjt6Asy3EfIsqynC6amqDHN6ckrUTbQhLddlgKCwuV/jqugoKC4dC3VOM7y5YtE5OKhKDHtfElApils/h2j8fzRQ9uOK6nHOd8uGhqgp7i8XgOcc4/0lF0WHFx8XX9+KC5SWfRZ8RVFIIe76Hh1QB0ZYXjnP+7h7vXm5L3UtHUBL1sv0t0lpvXj4d1q44ylZFI5N/iCgpBj/cNMV9nUc1gMDzVw55Krc6iF7dH2pyI6En1Kotbrde94ecA6JkXcYXb7R7b18fjdDrP1DnifWz58uUiJ5IQ9PjhcrlmArhYZ+/8tcWLFx/oyf4zMzMP6eylm00m080naDV3+1CTJClF3Gq9w+PxhInor3ruZU3THuiHDtL96D5irD4UCj0urp4Q9LhRWFgocc7/rLe8LMt/7sVvMAAbdT4wfp6fn28+Aau6Use5p4pbrfeYzeZ/AOh2shsRFaiqOqmvjsPtdk8EcIeO4/jNU089VSOu3Mkj6Na8vDxjX/5ASUnJQgAzdfY6XvN4PB/28qfe0PkbpyiK8lB/VC7nfORgEnQimiJutd6zaNGiIAA9vW8ZQJHb7TbE+xgKCwsVxtgSdG+f7a2vr39MXLWTS9DHOByOnS6Xq09sCJfLdRWA3+ssHmaM/aS3v6UoygoAYZ3Ff+hyuVx92IPKUlX1SfRvdMGnOh4wE91ut1h4+zjwer3/BqDnJeN0xtjv4/37JSUlvwNwXjfFIpIk3dU+KUpwEgk6AIzjnP/b6XR+4HQ6p8dRzK/jnL8AfYmDwDn/o8/n63XyoMWLF5cC+FcPes9LXC7Xg/GMG164cKHF6XTezznfA+BO6J8Ve9wwxt7S084YY/eK2+04b1ZJugeAntziP3S5XD+I1++qqvp9AD/SMRL7ncfjWS+u1Mkp6B2N4AIiWqeq6tuqqn6rt0K3YMECk8vl+h3n/D8A9EaUbLFarfGwQf4P+vJuAABxzn9ZUlKyrt2T7DX5+fmZqqr+urGx8SAR/Zlzbu/v6zdixIj3ARzUcZ1/4HQ6R4pbrvd4PJ5qIroFQLdL1HHOH3Y6nb/Jy8vrdYRRYWGh4nQ6/wLgER3FX62vr/+1uEonuaB33O8ALgfwQklJyUFVVQv1vty58847U10u14JAIPAZ5/yn0B8iVwPgW+3+5PEOh0s459/t4dfOYYxtdblc/1NV9Zt63ynMmzdvmKqqdzidzn8pinIAwC8ADNhM1MLCQsY5f1iHwNiJ6B1VVXPEbdd7ioqK1gJw6+sr0c8dDsc7vXlRqqrqrNLS0o1EpKenv8VoNN7evnSeYABRBuExDQfwKwC/UlW1jIg2cM63AyjhnHess5ghSdIYzvl0ANM45z19wdoK4Fav1/tlvA7a5/MtVVV1GoCeTPAgzvmVAK50OBxBVVU3A/iEiMoA+AE0tve6c4gol3N+RiQSORuARESD5oLJsryEMeYC0J1wjAOww+l0/i4cDvtEJESvOxBPuVyuZM75I+jeXrsYwKcul+sVzvkKSZJWeTwef2cFnU7nOABXoy2SZQbn3U+EJqKtnPOrH3/88SZxZYSgdyvunPMbAdzY3niie3y93WeQiL5VVFT0brwP1u/33+dwOGzQEdrVCSa0vXQ6r7NzO47zPRbheOzE4/GEXS7X7QDW6rB9HET0R6PR+JDL5VrNOV9PRJ8yxkqJqMzr9ZZCR/4S0VMv+puqqgEAT+gYaUsd9xFjDKqq7kebFx9o/24KgLEAEnt4GOsURbn2iSeeqBNX5OS2XL5sn9Lc30O0Gs75N4qKit7oi52vXLlS83q9d3LO/zjAotQKoF6HDRKMo8Ds5JzfBP3vEgzto5NfcM5fJKL1AIqdTqfITKm/p+4hoqsAVPTwq2MAnI82m/NSAGf3VMw5549HIpFLhJgLQQeA5qKionlENBXAm/30mxsBTPP5fKv6+He4z+f7CRFdA6Csn+t1GxF912AwDIeOXNqMsWCcBeZdxtjF0PGSVBC3B+k7kiRNBvDffvrJMgA3+3y+e8XUfiHosY1xi9frvYYxNhPAq9CXF6RHEFEDgO/5/f5z4+mZ6zi3/4VCoUlEtKKPRyLFABZzzmd4vd6zioqKFuntNcVb0AFg6dKlGyORyNlE9BjiZOkIjo3H4yn3er3XM8auAtBX63c2AXgwGAyO93q9L4paH5wMCg996dKlHwO4QVXV0UTkYox9R++K4segnHO+iHO+xOfz1Q7EebW/9LvT7XY/yBj7IYB8AJbjHd0AeJ+I3uKcv+X1enf39mFtMpmCfXHey5cvrwewwOl0PkxECwDcDiBL3G59fh+9BWCSy+W6jDE2j4hugM75GMca9QHwSJL0dFcvUwVC0Lsasn8J4GcA/s/lck1t91gvBjAFbS9ujkUQwE4AawC87Pf7PxgsYVTtOdbnFxQUPEBEFwK4lIguApCNtpDD6FDLCIBGtHngNUS0mzG2W5KkPZqm7VIUZb/H4+m250tEpu5epPZFDz0an893EMD9eXl5DyQnJ5+uadoMIpoB4HQiSuKcJwFIan/4BDjnfk3TdI/SAoHAZXa7/Zhhqk1NTf02azE3N3dzRUVFt4nIMjIyGvvwMHhRUdE7AN4pKChIlGX5EgBXcM6nAJgA4Fh5dVqJaC9jbDcRrVYU5a2eJqzrLYyxa0wmkzJYrqUkSf8ny/Ix4+p70lb7i7jHvqmqWgRA7abYDq/X26NJNfPmzcvWNG0kY2xYe68jkYjqiaiGc16Zk5Ozb6gu7ux2u9PC4TAlJSU1PfLII4E4XYcP0fbiq0sikYhF+KAnF3feeWeqoigOSZKSOecJRNTMGGuSJKk5JyenrD3hnED00PuW9in2pSfiRfB4PNV9sFtTN5+3Ll++PChugZOLdhtQxP+foIjV6E9cuhP0coh4b4FACLpgSNBdPpvDoooEAiHogqFB5rE+5JyXiSoSCISgCwY5s2fPtgOwHvPCS1K5qCmBQAi6YJBjtVozuyvDOReCLhAIQRcMdjjn3aaoJSIxPV8gEIIuGAJM1iH620U1CQRC0AWDn+4WZQ5bLJa9opoEAiHogkEO53xaN59vjsdKTQKBQAi6oA9xu91TiOiUY150SfpA1JRAcOKhiCo4sWCM5eso86aoKQEAOJ3OfxORo+NvItpcVFT0gKgZIeiCAaZ9AebuBL06Nzf3fVFbgnYBvwhAWsfffbTUoUAIuqAnFBYWSqWlpT7OeXdLiT05VLNS9lG9KSUlJf/orhznPEBEASIq45zv4ZxvGqg8+wKBEPQTXMyLi4sXEdGV3RQNcc4XiRr7mpqaGhmAW0dP9ogeLBGFXS7XasbYn/phWUOBQBfipeiJ0cP0EtF8HaL0l/ZFJwTHj4FzfiURvaOq6oq8vDyjqBKBEHRBr3G73aeWlJSsAjBXR/EdRPSQqLU+4Q6Hw/EvUQ2CgUZYLkOQOXPmJBiNxp8wxn4MQE/PsJYxdovX620RtaeLbUT0w+gNjDGbJEmZjLFTiOgWACNivvMtp9OZ5/P5VorqEwhBF3RLQUHBBCK6h4jyATh0fq1RkqRrvV6vmBmqn7r2dTk7ZcGCBT8LBAJ/R4z3TkT3AhCCLhCCLjia2bNn281m8ywAswBcTETT0bN1YA9LkvQNj8ezWdRm/Fi0aFGwsLDw3pKSkosBjI/66IL8/Pyk5cuX13f13cLCQqmkpGQCYyyTiNIkSQoAKMnOzt52vOt5ut3uLE3TTpEkKR1AUNO04hEjRmwfDOuELly40NLU1DQBQBZjzAagkYj2ti8Mfzz7nMw5z2x/oB4Oh8Obj3ed3IKCguEAJhBRGufcbzAYvlyyZMk+IegCvdC8efNGapo2gTF2OoDTiOgcAGcBkHu5zzUAZns8nhJRvfGnsLAw4nK5/sM5/3HUZlmSpJEA6mNFvLS09FrO+ZySkpLLAKRKUtvrq46omZKSkmqn07mYc/6npUuXNuo9jvz8fLPBYHBxzucyxs4mIurYpyRJKCkpqXC5XE8yxv54vGGWTqczhYjeQFTcOoAwgFu9Xu+22PLt1uAdRHRLY2Pj+QAs7cL7VRlVVfcS0R+KioqehM4lEQsKCqZKkvRAY2PjDYiyHDnnUBQloKpql6mhiWhOUVHR2s4+c7lcN3PO7wcwo6PjRETQNA2qqn5ORI8R0eMejycsBF0QeyNmKoryMIBTAZwaiUQSYht7L2nmnBc2NDQ8snLlSk3UdN/BGCuOvV6SJA2L1g+Xy3V7SUnJgwDGdrO7NCL6ORHdkJ+ff9Xy5cu7XSLQ5XLN5Jw/yznPPUaxDM75j4koX1XVW7xeb6/SPuTl5clE9CyA6dHbOefzfD7ftlghN5lMPwLwfXRvDU7gnC9TVfXynJyc/O7mSKiq+gsAvzpGR8cCYMwxrpmlk3sxyWAwPMc5P1bY7zjO+aOc8zlz5869ZtmyZVWDsU2KKJcBwmg01gD4JoBz0P36n3oIA1gmSdLpPp/vYSHm/YK1E8FoihLcuznnT+sQ82gmKYryNLqx1lwu162c89UAcnXudxiA0b09UYfD8UcAV8RsftTn8y2JLWsymZa2i66jBz8xu7S09CfdjBB+CuDXnYh5CECvbBan05liMBg+6kbMozlHUZS3FyxYYBqMDVII+gDh8XjCnPN4JMkKEtEKzvnpXq+3wOPxHBK12z8Q0ZROtn21Vmtra+sKALHD/y8A+AA8yDn/I4Atnez6MpfL9Y1j9FLP5Zw/iaMjnBjarLa/A3gUwLqoz3xer/epXore7QB+GLP5db/ff38X9fJwjH3CAGwgoscA/BLAPwCUxn6Pc/5/d955Z2oXNssEIiqM2VwM4BuSJNlycnISOeeXc84PxJQpJaKVHf8AVERbYUT0DOf89Jjj30VEP+Gc3wrgbgD/iznOs1paWn5+slgu/+KcZxPRFcLS6eZpKknvcM6v6aWYbOWcPwtgWVFRUYWozf7F7XaPZYzdGHOjH/D5fF89UFesWNHsdDofJKInALwkSdKfPB7P+phd/dTlcv2p3buN3tdcAP/twvrwcc7NMR/tlSTp9tgX4KqqXgHgR4mJiQt6eZ5TGGPemM07AoHAd7oaBRYVFX2iqurzAG7gnD8B4O+xE9rmzJnzgMlkeh3AhVGbzQaD4TsAHovdpyzLKuc8+gEWIqLLi4qKPovatkpV1UsB7ALQUT+pkUjkh8uWLSuO3WdJScntAK6O7WtlZ2ffG2P9eFwu1wOc8z9E3X8L5syZ84cVK1Y0n9CC7vV63wXw7rx584ZpmnYbY+weIjpNSMDRaJq2quPlmJ6eOOf8EyJ6S5KklR6PZ4+owYHB5XKdrWna80RkinnIPhvTM0Vubq6vrKxsSydC/pV222y2XzY2Nt4BIHot2As6K2y322+P7VGiLZrpEo/HU97J/fg2gLd7c55z585NZ4y9iPaXme1UKopy/TPPPNPQTdv+kcFg+HFXI8YVK1Y0u93uhYyxTTF1eEFngs45vyxm0xsxYt5xvl+qqvoKgFs7HhKyLM8B8Lvocu3RRrG97I/8fv98r9erdfKQ+pOqqrfh69XAHEaj8ZsA/nmi99ABAIsXL64EsKigoGAHEb1LRK8xxsZ3l6v7ZGLp0qXbVFWtApAe81EAwN72fzsBfJCYmLj+kUceCYha6xcrJd3pdOZF/S2hzQ8eAeACzvms9m1HiGokEvlj7L7ae3rrj/V7jzzySEBV1TVRIgQAw+bNmzes/T6KPrbZnezigc7E/DhHIAbG2PMARsZ0Kr61ePHiA919v7MecSwej2ezqqqVaPP3O85vYhfFc2JtkWPsekdMXU6KLVBaWnoOgAkxmx88xrsnDuAlHLm84/knjaB38oR9zefzXed2u2dwzs8XstFRLXyuJEmJmqbVSpJUA6DC6/WWQmcIl6BPLsrpRPR8D77SzDm/7Vjx5509N1wu1ymMsQlENBadRGYwxlIAVEaJrJUxdlFMsXq/3/9svOuAMfYXABfH1IvL5/N9dDz7zcvLMyYnJ5/JOR/HGBuLmJe/nPPkLr4aO8vZcIyfif2ssxfMV8X87c/JyekuydqXMQ+VMwZb2+13j7t96LleyEYbPp/vNVELQ5q9APJ9Pt+67grOmzcvOxKJ3AzgGgAzOOfJxwpTjUQithgbYwwRmWME8OOVK1eG4nlCqqrOBRDruW/x+XwrerO/goKCs4joFiK6FMAUxpi5XRA7K27rYjefRY8WullmcXqM8B7q7KEds6m1uLj4d06n81inEhsllHLSC7pAcIKwgYiWmc3mZd2tz6qq6mlE9GC7mOt+aSLLMsUI07BO7KF4Z888FcDjnWw/2+VyfbuoqEj3aMDpdF5NRL8GMK0nI5cutv8LR4ZNXuh0Oi/0+XxrYqyiGYyxK2LE+61O9hdblxlE1NOVmgZdhs0+FfSFCxda/H7/Ne2Vesk999zz7BNPPFEntEAwyPmSiGLjq8Oc8zoiKlYUZZPeduxyuVyc80Wc887ilpsAbEVb6OKpAC471r445wmd9Gpb43zuOcf4/UedTudb3c04zcvLMyYlJf2dc353F0UqAXzKOd9CRLdCR3x8JBL5l8FguD+qZ01E9IrL5fqJpmlvEZFGRNcyxv4Y89Dc4vf73+1kl/GY+1F50gi62+12NDY2vidJ0tnttZ8XDofPVVX1ouPJ3yA4fnbu3Gk844wzQqImuuRQUVHRH+NgXdzCOffEPhgAPElEy7Kzs9d15FlRVfX33Qm6JEk1nSwRl9yH9VDa3pPt8KQzJEn6M4Bj+hIOh+OvnYh5LYC/y7L8z+i8KE6n82Ii6lbQly9f3up2u7/NOV+Fr4MIHJzzJ44RKVYH4K4uXnRWx/xdQ0R/7knlcM4HXX6XPhN0zvnPAZyNtkkUTs75k0Q0m4j+CuAmoRn9y9atWxMO1zTdVdcSnP3+9uLsZ19bXe6wGJ5Pt5uXTp061S9qKO4dGgNjLHZ1qBrG2NVLly7d2Jt9ElFFrKAT0dl9dAp+zvnVkiQVcM4XRt3XcwsKCp5eunTp6i7OeyJj7N5Ye0pRlOtjI3Z6isfj2e5yuZ6OPp5j8KkkSXd5PJ7tXXwem1oh0Ww2P9qdfTbY6bOZopzziwFs8/v98wEsBPADAP8BcKm43fsHzrn03ofrLln5xnsvrNtbvnX5ms//9oeXt89c8s7ekb9/adu5i97Y/fDb20q3//uN9z9c9cG6ORs3bjSIWotb3V+EI+PKAeBnvRXzdkHbHytEnPOJbrd7bJwPPwTgWz6fb0dLS0thzG8SES3Jz883d/ZFxti3O3kQzTleMW/vzf84SswDRPR7IloNoARAORFtJaKlnPPrcnJyph5DzEFEsdE6xpaWlmuGervrSw89gYiK29/AP9o+rCznnNvE7d63bN68+fTi6qYFK15eNWv95zUjNnxemRiKHJ1BtbSuRXp27YFcIuSelp00ddapGb944Y33dmelWv86c/r090VNHhejOxGRT4/xACAdidk4gHcA3BHdKWOM/RLAXfF7FnHV5/O9CwDPPPNMg9Pp/AkRLY86j1MURfkFgP/Tcd5NnU0Ain466DmoefPmjYpEIg9FHWSh1+v9U29PUpbltyORCIvu1BLRzwoLC18ZDOmGB10PXdC/bNy4Mev1dz988J+vrlr/nw0H1zz86o55f/nvzjM+3HO4UzE/8g4GdpXUm5a8s/eUP7+644Z/fbD/P0tffGfLq2+veeKTTz4ZI2o3PjDGTu2i53kZEd2t64aVpMc62Xyny+Xqck1Zl8t1Q0FBwSU6D/OD2PBEn8/3FICPY8r9yO12T9SxP5uqqp2+aFVV9UcApuo5qEgkciOi4suPN7pn8eLFpTh6MZJpJSUlj6CbxGhutzvrZOyhC/qY1atXm8Oy+dv1ja357+48PHbV9rLsw/WB48q/GwhpWLO7ImnN7oqkFJvprFmnZdz07Guri9MSTa8kmuTHZ8yYUSNqXhefddIbfUhV1V1er3dTu5CPJKIfALgXOvPeezye9aqq/hfAdTHd6n+oqnoR5/wfsixvDYfDRlmWpwGYxzm/nogOzJ8/f+Ljjz/epMNu6WxksADAhqhOoEHTtKLCwsKZMT3avZ2ct6+goGDu0qVLy9rPe3p7OONVPajPpJi/v6+q6objDLB4EG0ZT6Pto++2h5kWRr+0bp/UdQURfY8xNjY/P3/C8S6kIQRdAM659P5H6y+qamy977Oq1rPe23Vo5O7SeoX3wbzS2qYgXv7kUMbLnxzKGJ1um3Lh6Rl3v/DG+weSbKYlDovy7NSpU8PiinRpJazlnJcCyI7aPALARlVVqwFEcLTHrgtN0wpkWd6Eo1Pn3kpEtzLGIMty7PGMCoVCfwBwX29+0+v1bnK5XEXR0StENKO0tPReAIui2ucLRPTL6NE/5/xKSZKK2xeesKFnaXU79rElxp05F8AXqqqWE1EV5zwSc74NnPPDaFsc/fWioqItnZzTbpfLdQ/nfFnMR1dwzq8oKSmpV1W1FICJMTYSgKHjpbQsy/cBeFhYLoJesXnz5tNffmvNEyteXrVt5bqDL//5lR3fevytvWN3lfSNmMfyZVWT9OT7X2T/5sUt53tX7S3a8Hn1zhfeeO/ltRs2XCSuTqc96TAR3d/Fx2kxYt4KYD50xpQvW7asSpKkKwF83sOHTHZhYWGv73ki+jnawg+jhfa3c+fOzY2yZ3YA8HahNdkxYl7MOdc1mSc3N/e/7SOEIw4JwHDO+VloW1fgq3+c80sAfAfAbznnnzqdztfnzZt31MSsoqKi5e11H+5iVHAGgHGISSdARPfk5eXJg63d9aWgV3POU91ut0FV1Xvuueee5PaGXCVud32sX78+9bV3PvzpP19dtf6lGF88GB6Y9SuE366foqKiZ4nou12IRQfvEtFUr9f7BADdGTQ9Hs8ezvkMtOUW725OwSEAalFR0beO54Wfx+OpJqJfxGxOlGX5iJmlfr9/AYBj5V7XACzmnJ9tNBqL9Px2YWFhJBQKXYuj88vrfRhdE4lE3nC73YZOeupPoC2Nr571CfwAHpUkacZgXESmL+PQ/0tEf2xP4r8wHA6fAeBbAFaIW71ron3xtfuqx63aUT68uLqZBuOxduW3J1tNzzkskufcc89tGOz1ffjw4YjD4bg7pu3GLXNhUVHRonbP24227HxpaFtkYRtj7NmlS5d+HCU6P+Gcf5WvJBKJHDjWvttnbN6nquofAFyPtpDg4WjLMVJFRLsYY282NDS8fox8Lz9ElIfcbhN1SX19/RKHwxFEjOfvdrsdHo/HDwDtv3WX2+0uYozN4ZyfRUR2zvkBIvoYwNPR3reqqgVRPeBOH37z58+3BYPBFQA6XkiWt49QRuPIWZ8KgMQuDn8KY+xaAC93Iurr0JZOYDoRXYu2dAWZRGTmnFcB2EVE77W2tr422HKgxw5Z+oT2iRUr0fbSoYMNBoPhajH9/0ief/55OT1r5DW1zYF7m1sjs8wG2fTersPKx59VgfGhk3TRalRw0/SRwXFZSWQ00O7rLj3/bHF1BfFAVdVX8fWL4FoAU7t6IVpYWCiVlZWdzRj7LY5ewOJ3Xq/3/07UeqJ+uBDfBfA3zvljDQ0N3xdrXUY93TZsOKO8vvU+f0voiHhxIuD0nGTtwtMyIrJE8uod5crOkvpBeQ6KJOHC0zMj08alB1s10Lovm4zbypqV71+S/d63r7ngEnGVBXHQkCsARCfYetDr9Rbq6FRmMcbKYqyXh4uKin50otZVn0e5MMa2S5IEItolxLwtXrystuW+xtbwVf/dXDpq9c7y1IbAkaNMzoGdxXXyzuI62WKUce649NDl157OG1vDymubSuQK/8CvczFpZAoun5TdLMkKfVrSLC3+qCohGGFCfQRxh3N+WXSECxEd0PO9SCRCsXleGGN7T+S6EmGL/cDxxIsHQhpW7zpsXL3rMFJsJlx8RmbolEw7P1jdZHx1UzE1t0b67TzSE0248dzRLak2C/bXBOnpjbUJDa1iwCXoWyRJMkbnsOGc5wF4EsdYBKawsFApLi7+S8zmFqPR+IIQdEFvehVxjxevbQrixfUHjQCQnZzAb5w6Ijg82Spt3F9jWLP7MDQWf7/dYpRwzeQRwXFZjkh9K6N39zVYSmrrSVxhQT8SG654rdPpfI1z/mhjY+Oq6JF/fn6+WVGUm0pKShYSUWwe9p+e6O/vhKDHmdg8Kp98UdUnIYaldc30zIf7TR1+u/vyCXHz2xVJwqzTh7Fp4zICYS7R2v2NhjfXVCQwsSieYACor69/MSkpaWt7vHmH7XINEV3jcDgCTqezgohq0BYBk4nOw7H/4PV6/36i15UQ9DiwcePGrMqG1nn1zcGrX9pwcOx7nfjifTcS6Npv/++mErmyB377pBHJuPysnGZJVmhLSbO0RPjigkHAypUrQ/PmzftGJBJZCeC82EEkEY0CMKqLr3/OOf+Rz+f7z8lQV306dJ49e7bdbDb/nojmA/ivJEnueK9OPlBE++KldS2DLl68w28fl2nnxdXNxlc2HerUb09PNOHGGaMDqYkWvr8mSO/t81vi4YsvvFREuQjiS15enpyUlHQz53wugIsAWLooWg7gA875v7qJwReCrhe3253GGPsIwPiozVWSJF3o8Xj2DMXKivbFaxuDk97bdXhUX+VRiSej0hP5JWdkhNMSzbRxf41h4xfVuOKs7BhfPBjXtiAEXdCXFBYWKuXl5aM1TcslIiuAVk3T6iVJKvZ6vRUna730meXCGPsFgPFE9DfO+fcAPAHAqWnaXwFcOwTFnP733trqlmDYuvitPabqxqGzsMmBqkZasabZeMVZw7VLJmazyybl4MWtNfKb+ypNQ2nikkAQJegRAPva/wn6WtABXABgc319/Y8dDscBzvlTAJKJ6BtDdTSzr9zf8M72csc3p41sHmY30t7yRuW/m4qNoUHsM8fGi/9lVZl57nkZoV3lLUbR/AUCIeh6sXSyYlEV4rPa9gD2dpsk37ufJSiyhEm5yRHnJac0O6wGWv9FtXn1jsODInvlYIgXN8mRM7Z+8s4tYUp6WaTZFQiGvqCf0EQ0hs0HapTNB2oUq0nB9LFpge9de7qmyCS98skh677Djf16PEfFi3/mt5TUDVy8uF36PH0Uf/npan7ZoZ2fPL87yDP/OnnarDVEJDyeOOF0Os+UJOmX0ds45896vd4XRe0IQRf0kpZgBO/tOmx57+vZnC15546mqsYgPf/xfrO/pW86qB15VKaOTW8NQ5LW7m80vLGmImEw2OIEBjvfYrJjyykat55SRzMv/HzT7oM7N/7n4wByHp46deoXouUcZx0TDWufNRm9bRsAIehC0AXxoH02pxUARqXb2M0zRjVnOExx9duj48U/LWmWlqytsg3meHEZLUjj7ySlae8khZB2Vo10xU17N64oCyP51WYt/e8Duaxd+xTxh2I2f+nz+ZaI1iwQgi74igNVTdLS1fsSDLKESSOTQ/dceWpLglGhjz+vNPXUb4+NFx+qeVSMqEYW+1dGFv6VEUDuWdV01dzdnzx3KIi0JRFy9PuydjU1NTIRxa6a8z4AIegCIehRVADIWLBggSkQCCzUNM1HRJnt6/ydVIQ1hk37a4yb9tcYrSYF08eltXzv2tOZIpP06sYS62fl/k6/ZzUquHpyzgmbR8WCYimXe3M5l3IbadLUan7ZLzr89inTL3xf3J4CweAR9Jc4539rbW1dBMAly/J4zvlNJ3vPpyUYwXs7D1vf2/m1337LjJFU1dhKz3/8pdnfEsZ549PZrNOHnzR5VDrz2/dtXHIwhIyPW3j2n6dNm7Zf3KoCwQAKek5OzmMlJSXncM5d7ZvmAljFGPupqPY2Ovx2IuCUTLt2x6yxgWFJCfL7+xr44g8rE0LayRcQ0pnfvueTZ4pDlP5KQHM8PpB+u0Bw0gp6+2K0dxUUFKyRJMnLOX/Y5/P9GMfIYXyywjnwWXmDXNMUtNx+4fiWtV82WkWtHOm3t9C4KdV0xd27Nz5/IMhTB8RvH2wwxnjsAg4CIeh9zX4AIKL9Q1nMt2/fPlmR5eQT5BEiD7UjtvLPpRH4PJtrSnY9zZhSKuX/fefmN188Y8rVzsF2rPn5+ZmyLI8FkCTLcnldXd3W3q7WtXDhQktzc/NpmqZlAaiXZXmvx+OpBgBFUVoYY8d7rEmKopzKOU8FUG8wGA4sXry4VEijEPQTji1btmTLsvw9WZYus9sTR5iMVfYTQs6H6IO1HtNQJd/UApKQJb9rqmYzJvT3Maiq+gKAkR1/RyKR65YvX34YAFwu163teYtmRvWi4XA4alRV/WtOTs6f2nOQdEtBQcFwSZJ+3dTUlMc5t3cswcYYi6iq+qYkST9jjDX09jxcLtdVnPP7AVwMQOnYfyQSgcvl2so5f9zv9/s6exCpqrocwJkxm+/3er3vdVFn1wL49ZGjUl4kQkOHmKC73W5DJBKZ0v7nRLfbbfV4PC2DuULWrl1rsdlstymKnG82m8empCRnm0xGah9lnBAXnUBDJsl5KzJQodzREuBZSJQP0Cjp31YDtc3CrWbTBsJyOQPAVw8Sg8EwZu7cuZqiKMs4513lKUoF8Nvi4uKJAG7vbqSqquo3iegpzrmdHz1LTAFwHWPsKiJ6mPdwFtn8+fNtoVDoSc75t7p84LctJLHE4XDc5XQ6r/f5fLWxYkxEH+DIbK2PFRYWnt3JA4uI6HfRi1MAqNQ07Tkhv/Gnzww4l8s1jTG2W5Kkh9s33cMY+9LpdF4/6HqsnEtbtmy5ZMeOHS+kpaVuz8rKKBo9euRFWVkZOR1iLug/IrCiTLojuFf+Q3O5wd2Srmy0nGpcYs2W/2fpEPNB1HaulGV57THEPFrZvu1yuW7rTswBrOScdzcaNHDOexRgMHv2bHsoFHoPwLd0fmUmEb2Vl5d3RCI3n8/3EefcG/ugKykpua8THfhWjJiDiH6+fPnyetHSh0gP3el0juSc/w9ArOc8jIheUFX1Qq/Xu26gT37Dhg1nWCyW+/bs2TMrIyN9hN2emDjYXzKZDDKumTIS507IgkmRsOmLSjz30T6Eh/zKQgqq6MpIjXRpSCGN0uR1hixpqYkGvzv0q5i/y9r/jW7vmR8BY+z7AJ7tYkQ7gjG2DIAh9rkBYB2APQCS0JbJNL2nAzOLxbIcwDkxD6QDkiQ9xRjbT0TJAG4CcGFUkXMcDsdPATwYs7+fAPgmgGFR2wpVVf1XRz7ywsJCqaSkJLZ+NmVnZ/uE9A4hQSeiH3Ui5l/1LIjoQQBXDcQJb9y4MctkMt2nKPJVCQkJo1JSklJleWi8IzxzRCp+M/tcZCV/nbDyvFOzcObINPzkqY+GZAP0YwoqlZuaAQMlyTuk8dJyq4TgkDsPItrFOb832kd2Op0qERXFlJs+b968YYsXL67sROx/38l9UwngFq/X+0GU8Bs0TSsgoj8DSNTZybqlXayjecZqtToXLVoUXeGPqqr6KwCFUdu+73a7/xxtl/p8vlqn03k/ET0VVc7Rfm/PA4Di4uIbiGhi9PODiL7bHgEnGEKWy4XdDFMvRB8vfxfN6tWrzdu2bcvftWvneykpyRtyc7N/OmrUiHPS01OHjJhPHJmGRe6LjhDzDi4+Mxun5aQMmUbXigwcVH7Yskd+uKXJODMwSnkp4RSDz5ourTcPRTHnnL9is9mmxr4U9Pl8XgDvxGp/JBI5s7PeOYC8ozWe3Rgt5gDg8XjC7S8U5+h/3tAvYvs2kiTNjRFzAEBOTs5vAGyL2pSkadqNseV8Pt/TAN6NqQtnQUHBhKiO3REPkKKiorVCdoeYoBNRdyqpFBYWUh/fZF/54tnZw3cMZV/cZjbg93POg8XY9YBqQnbSoD6HI3xxxTWoffEeUpmbm3vzI4880tVq3O91sm14J+31m51YLc8uXbr042P8tq6Kc7lcZwGYGPN7hR6Pp9OXyu096H/HbD6/s9uMiO4BjngKK5Ik/d7pdJ6PqGgfAE2MsQeE5A4xy8XpdF7NOe8unEwpKSlZCOAv8f79zZs3n24wGBYMJV+8O+ZccirS7JZjlhmcqQEUVElXsjppVkAmTmnyBkMWLUsgnFAj7lA3oYiHO+nw2DoR9M7WX30mTscYa2825+bm/q+bTtn+6AiaGOvkK4qKij5TVfUPOPJdwo1EdHpM0d8uXbq0TEjuEBJ0t9t9KmPsWQB6fIw/OZ3OPT6f77V4/PbWrVsfVxRlpt1uy0lOHjq+eHejG4kIN0wb0+33vjjsHxTHn2RVcNl4mxZRUuhzw0OtSbRVHievSJBw0k7qrMPRPkpn992pnYh8XAIHOOexFk9jaWnpD10u17G+My5mU5eensVi+X0gEPgOvl4QnhAV2gngc4vF8oiQ2yEk6Pfcc09yOBx+FYBDr90jSdI/586de96yZct2Ha+9smPH9tlEMDQ2NjFFUVhSkmNodss5HTGRY0R6IpJtpmN+pbS2GbtLagfskA0y4azshJbpoxKb7RaZ9h1uMTCmWccpvpM+hQERcZ2x4mkxf7fGxn8fxzEMizmGTM75H3q4my4b4aJFi4Kqqt4H4K0u7s8fdObVCwapoBcWFiolJSXPARh3lBPA+c8BhCVJauGc/wlRa4pyzu2yLL/gdrvP9Xg8x9XFNBiUuoxhaSMZY2hsag4cOODXAEjp6anWhIShs4wpj7EjHNbu13Je9s4usH72XCQijEkzhi8Y66jNtBvkxlbGXtlek15cFyIAODPTFhK3V4+IbaStcWtTnNvisJvKbn5jQhcT76plWX5TXN4hJOjFxcUPE9EVnXz0S5/P9/uOP1wuVznn/AUcGeFyKmPsuby8vG/0Nt9FTLcfDnuixWFPRCQSQYO/oaW8vIIsFgsNG5ZuNhiGVraDSn/gmJ+v2VmK1zZ92W/Hk2U3YOYYe82YdAsxjvDqvfXJT65vMnKRcu14aQBgjRF4QnzSNMRmqKznnPd02v3urj7Iz8/PJKKHuhp5cM4fAPCQuMRDQNBVVb0TwPc6+ehFr9f7u+gNRUVFL6mq+hCA2BCqq+x2+2/RNlkhfienKEhOdliTkx0IhcKsvPxwczgcpsTERCUtLcU4FF6Wltc149P9VZg85uh5JGv3lOOX/1yHvhZTh0XBzDGJNROHJ0Aizj852Gz+++qyQb3s3RC0Zmo555nRg865c+fmLFu2rDgOu6+I+dtqtVp/FS8bRFGUh3Gk1doEwBbVe/+52+3+t8fj2SOudB+PnI/nywUFBecB8HTSOLcGg8E7O+tdeL3eXxHRyk6+84DT6by9r07UaDRIw9JTEoZnDbMqMkmHDhU3f/HFly11dXWDXpV++a912PJl1Vd/l9Y2408vbsL9yz5Ea7hvlqEzyIRpIxKb770wq/KeCzOrE42ytPiD8tQ/vFWatmpvvRDzOMM539HJaPPcOO0+Nvbb2NraGpeJfQUFBZegLT9NtFV0cbuod2DSNK2osLBQ5PodrD10t9udxRhbiaNfltRomvatFStWNHfVdg0GQ0EoFDoVMbGxRORzOp2f+3y+DX3YE4LValGsVovyld/+5SENNHj99ip/APOeWI1kmwmKLKGqGxum10/3GF+8IaCxV3bUphfXBkU+m77voa/nnN8aI+h3AVh5jO9Ydb5wfRsAi+7Acc5/AuDV47F08vLyjJIk/QNHWqhFXq93k9Pp/B0R/S7qWC8oKSm5G8AT4moPsh56fn6+mTH2HwDZMR+FAdyydOnSYy4Z9vjjjzcpinIDgKqYj8xE9J958+Zl98vJt/vtmZlptrTUJGuDv6Fl/+f7A6Wl5a3hcGTQXay6pmCfiHmW3YCbz06t+cGlw2tvnJRWt72sJemPb5emPf7B4WFCzPsHxtgL7aIb3Wv/hsvlurmz8nPnzj2dc75Yz769Xm8JgBdjNp/ncrm6jXRxOp1dhis6HI4fADgtalMQwJ8AQNO0RwB8GfMA+oOqqjniag8yQVcU5XEA0zsZNi7oLCfy6tWrjxoJLF68+ACAmwHERkNkRSKRlQsWLDD161Cl3W8fnp1pSbRZjeXlh5u/+OLLlsrK6tDxLiIwGHFYZFxzRkrNwkuHV9117rDq+oBmWvR+ecrDq0qHbTrUZBIvOfsXn893kIje6OSe+qfT6fzN3XfffcqcOXMSXC7XeFVVfyXL8ieddKiOZek8GHuvcc5/7HQ6X3a5XGdHby8sLFRcLtflqqq+AmBTZ/ei0+kciaPfhXnbHx5Yvnx5KxH9MOb37AAeF1d7EAm60+n8MdrWB41tMI9HJ6xfvXq1ecuWLXN37dr1XnZ21me7du34aOvWrfN37txpi7r6HxDR/Z38zHmBQMAzUJXytd+eYZUIOHiwuOXLLw+2JCcYeFqiechebJMiYeboxOaMRCPNuyCzKsEokW9tRbrwxQfJzShJCwHEDsGMRPRzTdM+M5lMTZzzvWhLnNWjGH+fz7cDwIJObJsbOOefqqp6WFXVDaqqbi0pKannnL8N4HoiGhUIBO7p5Ht/izmGpkgkckQkS1FR0UsA/hvz1etVVb1NXO1BIOgFBQVXRvtiUWL+YUNDw0IA+PTTT6ft3Ln92eHDs7ZmZWU8MWpU7kW5uTmjR48eNTM3N3uR2WzevmPHjlXbtm3LW716tVJUVLQInbxYBXCnqqrfHdjq4WCAsbqx1brx8wrru9tK+Z0Xjm38yTcnNl03JafJZjYM/gtMhHHppvBdMzKqFl46vHZSTkJLfWsEf3y7NP3fn1anNLRq4i4YJCxZsmQfERUA0HVRiOg1ALrTbHq9Xk97r7mz/WcAmAZgEo6OiV+Yl5f31Qxml8t1HdpS50bzSMfKTTEj3wUAYhe1+duxrBzBcTgNPRDzCZIkPYejp/UfvPDCC388efLkvzz4YOHFSUmOkQ6HI1GSjrZeLRazZLGYR3HORzU2Np9rNpt+vWPHju319fVPLF++fAKAi2K+8leXy7WvqKjoje6HlPHL3tgaDOFAWTUO1zbhg11l+GB3BUJtvVfp/d0ViUTABadmhO+9akKDpnHpg71Vhk37q00RbfD0cL+KF0+zEONce+8zf/JTG5oUzoF5s7LEpJ9BSlFR0bNOp7ORiBYD6MpvDhDR7+rr63/vcDj+is4TZ3W1/7+6XK5NnPOHAUztpniAc/60wWB4sGOOyMKFCy2NjY1/jylXFQgEHu5sB4sXLz7gcrl+HTMzNQNteZzmiis+AIKen5+fJEnSy2hLrh89RAzddtttjePGjX0lOdmRZjDo67ESEex2m9Vut53KGDu1vt5x+d13313xz3/+s7axsTH6yS1zzp92u93TPR7PF7H72blzp03TtLv27Nl9OxENP56K0DQNxRW1KK3049P91XhrawkaAuGuHh74YHeF4YPdFQarScZ1U3KbLz3jjFBdcwirtpclfF7RKA2EB90WL26vmTjc+nW8+HsiXvxYHD58OOJwOO6OGXGWH6Pt/pJznhT1d/Ox9i/L8qeRSOTumPvmo27skdfmz59/WjAYvFWSpOs552Pbe83FRPQO53x5UVFRSXtHa6kkSTs7vssY+0SHqL8PYLqqqhcBuBbADADDOOdmABVEtJdz/r7RaHzpiSeeOCIXjd/vz5IkKfZl6u5nnnmm4Rh19lfGWA0RSVF1wPPz883Lly9vFa0wfnTbqy0sLJRKS0tfiV1ii4hwxx238+nTp8WtZxwOh7Fnz76a9evXhXfu3GWLRCIdfvseSZLO9Xg8fs65tHXr1osURbnPaDSclZycNNJmS1BKS8uQmpLUM0OFc9TUN+JAWS32ldfj5Q1f4nB979tXVpIF15+T25BsM0mHqpv5qu1liZUN+veXmmjC7ReObylaW6XbHzXIhLOzbc3TR9maEy2ytL+yVX5zd13ysayUebOyQos/KDf2ZcP61VW20DXD/tKnv7E3cs97p07Ju0TcxgKBzh56aWnpHztbL/Gaa65CPMUcAAwGAyZOPD114sTT0dzcwjZv3lKxceNGfuDAgdEGg+Glbdu2fbZnz54LMjLSR9rtibbezvRsbA7gy9JqlFQ34vXNh7CzuC4usy3L6wPwrPrMDgCnDXew2bPGNJgNsrztYB3e2304obk1PqGQ3eVREQgEQtCPYPPmzSM3b970+Lp166+N/WzSpEm4+uq+XUEuIcEqzZo1M+OCC85DVVUN27Dhk4sqKioumTp1MszmnkeahEJhHCyvQWl1Az7YVY4Pdh/u8MX7hN1lfml3md9OBFwwITN031WnNmgal9bsqTBu2l9j1HqRTCvLYcTM0Yk1o1PNBCCyep8/6cn1IsRQIBB0Iujbtm1LBuBWFOmG+nr/hE2bNh+1yG1WVibuuON2dJFZLf6eEBGGDUuTrrvuGjDG4Pc3oLa2HgaDgqQkB47l23f44iWVfmw/UIM3Pi3u0hfvKzgHPthz2PjBnsPGNr89p/myM7OCdU0hvmpHma07v91hkTFjlN1/WqYlbDEQPjnYbF70frnwxQUCwdGCvm/fPlNra+uNkiQ5TSbj+NTU5BGhUIiWLl2OcPhI8bNarXC7XbBYBiYWW5IkJCcnITkZCAZDqK/3IxQKw2r9ejUfxjlqo3zxVz45gPK6wKCo7Jaghuc/PpgAAMOTrbhham7jzTNMdLC6ia/aXpaotSu7IhEm57T74mZZOVQblJZ9XJEmQgwFAsExBb2lufmwJMvW4cMzjGazGZFIBP/4x2LU19cfJaZO51ykpaUOigM3mYxITU1BdXUt6usbEAyFUVbTiIMVDXh9czF2l9ZhMFsRZXUtWPz23kQAOGd0KrvzorHNRkWR7AlG5f7Ls6vrWiKRl7bWZJT5hS8uEAh0CrrJZPSnpDiSqqtrmoPBkLx69WrDgQMHjlq/7ZZbbsb48acMioP2+xvg9zdCkiSkpKQgN3cEVn2wDnXNIdQ1taKsrhlDxVdWJAmpiWZmVAzUFObcEObSn98uTWPCGBcIBD3VE6AtuiQtNTlhzQcfYuvWbUcVmjFjOmbNOn9AD7SlJYC6unpoGkNychLGjh2L6HVDD1Q14bE3d2P0sETcNnM0MpMs+KysAS+sP9CnLz97y6SRKbh8UnazJCv0aUmz9I8PK63BCMO8WVkhIebdw2ACuKyImhAIYgQdAPbt+wKvvXb0SlFZWVnajOnTg35/g8XhsPfr8D8cjqCmpgbhsAaLxYKcnFyYTMfO2fVlZSOWvL0XRMDE3BTcffkEJFqMWL+vEqt2lA9oZacnmnDjuaNbUm0W7K8J0tMbaxOEL64fDkIjGx+uZtP8ISRLGlmFHSUQdCboSckOmEwmBAJHvkB0OOzy8OEZ1ubmQMsX1TUwGBQaNizd0pvQQV09L8ZQW1uP5uYWGI1GpKcPg83W8yUROQe2HarFtkO1sJoUnD8hAz+8/kxIRPjPhgPYd7ixXyrYYpRwzeQRwXFZjkh9K6N39zVYSmrrhRD1gADPYNVsRlUzH2kANC1T+ijZIW1TPovMC4vaEQg6EfT0tDTMnv1tLF36JKLTxe7d+xnq6uqRlpZqtdttCIfDaPfbyWIxS8OGDTMrinzcBxLri2dn58QtNLIlGMHb20rx9rZSpNhMuGLScNw2cwyqGoN4bu1+1DfHN7WJIkm48PTMyNSx6a1hSNLa/Y2GN9dUJDDhpOgfncGOam1aTSMbzzQoSJW3JmTLb9okiDQ0AkG3gg4AE8afgmuuuQqvvfZGVE+XY8OGT3DttVcD+NpvB4BAoFUrKSltYUwjmy3RkJaWovRk9mZLSwA1NXVBxpiSnJwsjR07lqJ98b6gtimI59a25d0fndHmt6clmrGnzI9XNx46Lr990ohkXH5Wzle++JK1VSJevCejMxhQz85srmGTmzWeKFmlg/Jo5elUAzWKyhEIeiroAHDxRbNQVVmFDZ9s/Grbhk824oorL4dBObK4xWKWLRazlXGOQEsgePBgcZAzTqlpKV367eFwBFVV1YFwOMKsViuNGDHC2p0v3ld8WdHmtyuyhLNHtfntdqsRH39WiXd1+u3piSbcOGN0IDXRwoUv3hsITWxUuIrNqG3lGbKMJpajvJlupVJhSwkExyvoAHDjTTfg8OEKHCpuW3C8ubkF27ZuxznnTO50JxIREhKspoQEq0nTNMT67UajEbW1teGmpkDIaDTSsGEZZpvNNmgWjI1oDBu/qMbGL6qP8NtlifDS+qP9duGLHz8BnoEabXpNIx8lEfFIpvxhsoOeMxKELyUQxFXQDYqC/Pw78Ojf/oGGhrasmB+vW9+loEcjy3JHalyEQmFeVVkdCIUjcnZ2NmVnj0jor5QBvSXabx/msOCKScNxy3mjUVHfinJ/C58yOj3QFGJ8zb5G45v7KhNEiKF+wrCjRptW42enQYPM0+RPzROkJcIXFwj6UtABIDExEXPz5+Afjy9BJBLBwYOHUFpahuxs/WnHjUYDJSfbLXX1Tc1JSUkJQ61yKv0BPPPBFyACzh6Ziqun5LJF7x+2hjQh4nr52hef0qxxm2SVDspjlCeThS8uEMSfY9oeOTnZuOXmm776e926DSdlJXEOHKxuQkuIMyHm3UMEcDJJ+yN3VH0WmVdVyyY3Zctvpp9q+FvaCPk/QswFgv7uoXdwzjmTUVpWhg8++AibNn+Ka6+9ChaLZdCcQEtLC2pra8WVHATkJhnZReMd1aNTZGO6jSekSZ8k2aXPDBC+uEAwOAQdAK77xjWorKzC3r2fYdOmT3HBBTMH9KDD4TBqa2vR0tICk8mA5GQ7FEXMAh8I2pa9S6yZmGVmmbYAxiWssaZJ62z7I7eH7NJeo6ghgWCQCbokSZh9+234+6LHsfbj9Tj//PPQ3y83GWOor69HY2MDJEmC3Z4Ih8MmruAA0LbsXULzjFG25mxHRBpj26EMl1elGqhJVI5AMNgFHQAsFgsK5t6Jvy96Al98sR/jxo3tlwNsampCXV0dNC0Cmy0BGRnp4qoNAB3L3s0a56gdmUzyqIQyNsL0rIgXFwiGoqADQHp6Ou6Y/W2sW/9Jnwp6IBBAXV0dgsEgrFYzUlOT0Nv1QwXHR5bdgJlj7dWnDTNKwxPrtTGmV1Id0jZFxIsLBENc0AFgwoTxKCs/jIaGBtjt9rgdyNe+eDMMBgOSkx2QZYe4QgPAkb54C8YlfGhJk9aJeHGB4EQTdKA9PUB1NY5XzoUvPnho88VtzeeOSWgenhiRxth2ycPld0QeFYHgRBd0IsKw9N572cIXHxx85YuPtdeOTJHaffF/CV9cIDiZBL03tLa2ora2dkj74nSCyJxBJunb56TVjkmTebatITLO8kqSnbabhC8uEAhB1yPm1v379yM3dzhSUoauLz6U07YkWRVcMMZee2amkTISgwlXDF9tSpM3JkgQa0QIBELQe4DJaEBiYgLKyyugaRocDgdSUpKGoKBrYQCGIdQT7yxePOmgdktomPxxgmj+AoEQ9F5hsZhhsZjBGENzcwCHDhYDREhNTUZCgtCWeBHli9eNSpaUkbayiIgXFwiEoPeN4EgSEhMTkJiYgEgkgsaGRlRUVMFsNiE9PR0Gg5jC3xuOjhd/NUXEiwsEQtD778cVBUlJdiQl2REMhlBRUYlwOAyLxYJhw9LEZKJu6IgXPzvbjHRrKx+X8KFZxIsLBELQBxyTyQiTyQjOOVpbgygpKYWmsSHrt/cVXcSLi5S0AoEAg87fICLht8cQGy8+IrGcjTKIeHGBQDDIBf0IITvJ/fYshxEzRyfWnJphkIYnNkbGmv+b7KCtYt1NgUDQuaCHwmEKhcLMaDQMasO6K789IcGGtLTkE+aCyBLomjOSGs7INIWHJwa0cQkfWNOkDTYJQdFaBQLBsXVS09hZZeWV+UajcpPJZBzvsNszFUUe1Acd7bc3twTYwYPFoXSbUfnO+aPD72wvt1Q1tA6pi2BSJEwdmdB4Tq4tnG5THBdn79YypXdFfnGBQNAzQZ88eXI9gEcBPLpx48YRgUDrdyVJujIhIWFkos1qH8yRJkQEW4JVMpuM5g17ypuaWyPs7svHN2kM2Haw1vD+7oqkptbBOROywxe/YGxSXYbdoDS1apGXttamF0w3hHPlV5JF0xQIBD0W9Og/pk6degjA/QDw6aefTmv0N/5QMSiT7XbbCIvFbO71KkX98OouEI6wVzYV21/ZVIwUmwnXTsmu+cE3Tq9uDkbYh3sq7Zu+rDFHNDbgFT7cbmTnj7VXjUozGxjj2nuf+VOeXN+kfJ1WwCBaZTeEuAPV2rk1Gk8ULxMEgq4EPZrJkyd/AuDb+/btM9XWNdyIOr/TaDSMtyfacs1mU8+67Rz9Go1R2xTE02v2pwLAmGE2dv05I6qvOiu7pcIf0N7deTj588N+pT/zsnTEi5+WaWWKBGw61JzwyuoyWzDCRAvUCYMB9eyM5ho2rUWTMsmWPk6SmprEmqUCgR5B7+CUU04JAngOwHPbtm1LPtxSfZfRqNxkNpnH2+22Qe+3769skv72xq5hRMDZI1OCN03LrVPkkXSoppm/tbUsvdIf6JPf7YgXnzbS1my3ytL+ylbZ+9Hh1IZWTbS6HgztmtioUDU/t74FIxTFOiKSmzsy3WKxEADs3btXZBYTCHoi6NFMmjSpDu1+++bNm0e2BFoWEEk3JCRYR9kTEwyD2W/nHPj0QK3p0wO16VaTgotOy/C7Lh1XyTikbQfrlHj47V/74o7aTLtBbmxl7JXtNenFdSERL94DAjyDVWrn17TQGIVMmZGs4WNSRjkcIieEQBBPQe9g8+bNww0G+W5ZVi5JTExMtljMhobGRmgRDVarGWazCTSIk4e3BCN4Y0up440tpXHx27PsBswcY68ZnWaWJKLIO3vqk59c32TkwuHVTRh2VGvTahpxOtPkDKRmj7XkpqXZRPoHgaAPBH3t2rUWm812m6Iod5nNpnEpKcnZJpPxK9VOSLCCc46mpmbU1TcC4LBazBjslswx/fYd5SmfVzTInQlzmy9ur5k43AqJOP/kYLN50XvlwhfvAV/74lObNSlLsiSPVkYPH55qMIgXwwJB3AWdcy5t3br1IkVR7jMaDWclJyeNtNkSuvwOESEx0YbERBs0TYPf70dtXQP4EJnZ2OG3K7KEc0anhW6aPqJOkSX5i4rG0JYDtRmyLOPc0YktU3MTm6wmiQ5UtyqLPyhPFr54TyA0sVHhan5uXYcvnpMzIt1qtQpbSiDoC0HfsGHDGRaL5b49e/bMyshIH2m3J/Z46CvLMlJSUpCSkoLS0rIhVSkRjWH955XG9Z9XpiWYFFw1Kdt/28zRtSaDwTQxm1pe3FqdXuYXvnhPCPAM1LDp1U0YL8GUpWVmjU4Z6XAoRKIaBYK4C3qbL264V5bpOpstMTslJSlVluWTvoKagxG8+MlBx3u7D+OOi05pKVpbLVa01slRvvjwsZbxwhcXCPpO0Ldu3fojWZZvtNksI5OSkrNNpqEZ2ktEIgpiEKBxE+r45KYgSzN/gR9UJqSOUsZkZaUrirg8AkE/9ND5L4kgtbaGOGND2AvmEG8jB+5xiiY2KlTFzvW38mGKgddxo9FgOmXirGGibgSCfhR0k9FYk5GRNjISiaC+rr7lcPlhUgxGZGSkW4zGodNb5+BC0PuZAM9gVez86mYtSyGJa1m0Otmh7FEAjs/px2LZJIGg/3vo7f+jKEhOdlgBB0KhMKs4XNkcDoUlS4JVychINwjfUwBE+eJsPNNgRKr8qTXH+F+x7J1AMJgEPRqj0SClp6ckcM4RCLRGDh0qadY0jZKTk8wpKclC2U8yvo4Xn9Ks8UTJQgeU0coKkd5XIBgKgt4BEcFqtShWq0VhjKGxqTlw4MuDDESUnp5qPRmXgzt56MijMqO+RRumKNQcyVHeFMveCQRDVdCjkSQJDnuixWFPRCQSQYO/oaW8vIIsFgsNG5ZuPtGXgztZCPAMVs1mVDXzkQZA0zKlj1JGGp9TxLJ3AsEJJOhHfKndb09O7vDbD7eEwmGyWITfPhQ50hdXkCpvTciW3xS+uEBwMgh6NEajQUpLS7F+7bcXN2saE377IKfNFz+zuYZNbtZ4omSVDsqjladTDdQoKkcgOFkFvYNYv72hoal1//4DTJIkzjm3MsZI9NwHFg5CIz8tFOSp0t7wvdVG1ERyDa9nmHFY+OICgRD0zpEkCUlJdnNSkh2twRAOH64KlZVXNEiSrDnsNrvVarGIHB79R4BnsGptZk0Tz1EkimgKtTgmKIvTIHxxgUAIeo9+QJZgsZhaM4alpQWDIVZX11BTV9/QqiiK5rDbkiwWs3ib2gd0Ei9uyZZes0kI4fNIfkiIuUAgBP24MJmMUmZmWjrnHC2B1mBtXUMN6vyy0WDgSUn2dBEpc3yIeHGBQAh6v0NESLBaTAlWS0a7395QWVlTSQTJYrUo9kRbkiwLv11nbR4VL56rvJlu6at4cckE2KYDpmwgVAY0rAV4RFwGgeBkFfQj9KHNb7cnJdntkUgEdfUNNeWHK6olSYY90WZLSLCYhd9+NLHx4lm0OmWUsS2PSp+RfBWQeTegOKIOZC+w/4cAC4iLIhCc7IJ+xMEoCtLTUlIBoMNvr/c3BITf3kYnvnj/xYtnOoH024/ebpkApN0CVK4Qd5NAIAS9c2L99praujoiiU42vz02XnxAfPGkKzoX8w4SpwpBFwiEoHdPlN+e3pXffuJdlrZ1N6vYjNogz5AlNLEBy6MiJwDD5x+7jGQWd5JAIAS9Z0T77eFwBPX1/trDFVU1BEKixWBSZAkRbeimRc9NMjJJSZR2hxfUSAiFs+R30+zSPmVAQwyTrgRk+7HLhMrFnSQQCEHvPQaDgvT01BQAaG5uYROGB4MPfXtK9YGqptA720qHfX64cUicW5JFxgVjHbWnZVoxPNXGk0yt9gn8iVQJ4cFxgInTuy/TsF7cSQKBEPT4YDIZpUSbJTx2dE7axEBr8Jxxw2rKaxrlz8sb+Jtby9Ir/YMrAsMgE87OTmieMcbenJ1kkcbmpCtZWVlJBoMBX+z5OCSFw4PoYLtZRS5cDfjf7ffD4pwDgFjFXCA40QS9gw6//ZRR2RljRzBMGtvUMG1cemVFfUD69MsaZc2eiqTGwMCIpUSEMamm0KxTkupHpZqUkcOSIiNHjki3WCyDOyaTtRxLVoGyvwMs2G+H09LSwqqqqkoCgcAXjLE/iVtYIDhBBf0IAY3y20+LRDBxrL/mkonDqyvqW7BmV4Vt05c15v7w24fbjeyi8Y6aUzKsSmZSQmTsqNwUh8MxdOq9cQNgPb1zMS9fDDR81OeHEA6HUVNTU+H3+0sjkchroVBo0ZQpU6rE7SsQnCSCfsRJKgoy0lNTM9JTEQyG2KRRw2qKq/2BspoW7d2d5Um7S+sVHsf3jg6LgpljEmsmDrexzGQLxo0YbklLS7MNyWyT1SsB21Qg4cyvt4UOA2WLgMZ1fTcwYAz19fVNtbW1h8Lh8MZgMPjQ5MmT94lbViA4yQU9GpPJKOXmZKTnZA9DS6A1OGl0Wt3huiY6Xr891hcfk52mDB8+PNVgMAztCmOtwP7vA7ZzAGMmECoFmrf32XT/pqamUE1NTXFzc/Pnra2tj06ZMuV/RCQyiQkEQtC7psNvHz8mJ30ca/fbx6ZXVvjb/Pb3d1ckNbUe22+XiDAmzRieNS65rsMXHzEiN91qtZ5guQo40LSxz/YeCARYVVVVWUtLS3koFFoeDoeXT506tUXcngKBEPQe06XfXteCNbvb/Pbo8ll2A2aOdVSflpkgDU9J0MaMzElxOByKyDmjn1hfXNO0x84666xKUTMCgRD0+FVIjN9+5uj0+pIqf2ulvxVpiSbzA1fkVg5PSeCjcjIS0tPTbWIVJv3E+uKNjY2/nTFjxmeiZgQCIeh9jslklEbmZKaMyM5AY2Nza0NjEz/11NOGKYqotp7Q1NQUrqmpOSR8cYFACPqA07ZeqtkcCkdahJjrg3NIhw4dKgkEAgcjkUiRyWR69owzzgiKmhEI+lDQQ+HwlsrKGma320aYzSYx807Qa0LcgWo2o6KBjS2JSObddYcPf3/GjBk1omYEgn4S9EmTzrpx7dq1lkBr8NuyLN1pNpnGORyJOWI5OIEe2pe9a6rVJh8KU8rGIA1/aPI5Il5cIBgQQQeAmTNnBgAsA7Bsy5Yt2S2B1nsVRbrKarWMTLTZUsVycIIjaVv2roZNK27hw78IaMmPTJl2gfDFBYLBIOjRnH322aUAfgbgZxs3bpzY2Nj0A1lWzrUnJoxMSLBaRGjeyUuAZ7Bq7bzSZp5dEuKOp8NIEvHiAsFgFvRopk6duh3A3Oeff14ePXr0VRaT6T7ZoJzusNuyT/bl4E4WwrCjhk2r8GvjSiPkeC2EYYumnCPyqAgEQ07QO7j11ls1AK8DeH3t2rWWYDD0bVmW7jSZjOOSHHbht59gCF9cIDiBBT2aWL89EAjeq8h0tTXBOkL47UOZr33xZp71eauW8qjwxQWCE1zQo+nSb7fbRiZYLcJvHwIEeAar0s4ra8Go8hCzLhe+uEBwkgp6NB1+++rVq5XW1uD1RkW522g2jbNaTKNENQ8uOGQqZ1dWNmijSzSe+HKTlvoPES8uEAhBP4pLLrkkAuAlAC+tW7fOHgiYnUSUX1Ndl253JGYJv31g0LgJdezshlp2ZkmYJ1dW0Olu4YsLBELQdXPuuec2AHgEwCNbtmzJbu6Ib7dYRiYmCr+97xHx4gKBEPQ+4Ci/vanpB7Isn2tPtIn49jjTES/exHMPhJDyTIQnrBC+uEAgBL1P6PDbOefSxo0brzabzfNkWTo9yZE4UsS39w4RLy4QCAZUPImIISq+PRQKi/j2HiDixQUCwaAR9GhEfLvux6CIFxcIBINb0KMR8e1HI+LFBQLBkBT0aE7mfDKxvrgmZ4l1NwUCwdAV9A6i88msW7fOHgyG7lIUKc9sMo5MSEgYcaJcEM6JqrVpzXVs4qEI2dcGKfePwhcXCAR6GPLexcaNG0dYLKYfaBq/3p6YkGyzWZNlOf4LL0UiEdT7m1rGjTvFGn8R52hoaAjV1NQcam2pCwUDofmTp523RvjiAoHgpBL0GHGfaDQqfRLf3heCHggEWHV1dWlTU9OBUCj0TEtLy1PtL4cFAoHg5Bb0qB5v3OPb4yXo4XAYNTU1FX6/vzQSibwWCoUWTZki4sUFAsHxc0K+VBxs8e2MMdTX1zfV1tYeCofDG4PB4EOTJwtfXCAQiB56r9myZUs2EfVqvdTe9NCbmppCNTU1xc3NzZ+3trY+OmXKFBEvLhAIhKDHm6/9dn3x7XoFPRAIsKqqqrKWlpbyUCi0PBwOi3hxgUAgBL0/0BvffixBj/XFNU0T8eICgUAI+kCybt06u8lkukNR5LxYvz1W0GN98cbGxt/OmDHjM1GLAoFACPogY8uWLdmSJN0nS7jKmmAdYTGbUxsaW1qysrIMNTU1h4QvLhAIhKAPTXGfrijSzwCM45z+YDabV55yyilBUTMCgWAw8f/LmRD91jFwgwAAACV0RVh0ZGF0ZTpjcmVhdGUAMjAyMi0wNi0yMVQwMzoxMzowNyswMDowMJeQk7QAAAAldEVYdGRhdGU6bW9kaWZ5ADIwMjItMDYtMjFUMDM6MTM6MDcrMDA6MDDmzSsIAAAAAElFTkSuQmCC;" vertex="1" parent="1">
          <mxGeometry x="930" y="432" width="140" height="105" as="geometry" />
        </mxCell>
        <mxCell id="VOohrECMqtA-v3Q6aIey-2" value="" style="sketch=0;outlineConnect=0;fontColor=#232F3E;gradientColor=none;fillColor=#232F3D;strokeColor=none;dashed=0;verticalLabelPosition=bottom;verticalAlign=top;align=center;html=1;fontSize=12;fontStyle=0;aspect=fixed;pointerEvents=1;shape=mxgraph.aws4.source_code;" vertex="1" parent="1">
          <mxGeometry x="718.9200000000001" y="524.5" width="32.16" height="44" as="geometry" />
        </mxCell>
        <mxCell id="VOohrECMqtA-v3Q6aIey-3" value="" style="shape=image;verticalLabelPosition=bottom;labelBackgroundColor=#ffffff;verticalAlign=top;aspect=fixed;imageAspect=0;image=data:image/svg+xml,PHN2ZyB4bWxuczpjYz0iaHR0cDovL2NyZWF0aXZlY29tbW9ucy5vcmcvbnMjIiB4bWxuczpkYz0iaHR0cDovL3B1cmwub3JnL2RjL2VsZW1lbnRzLzEuMS8iIHhtbG5zOmlua3NjYXBlPSJodHRwOi8vd3d3Lmlua3NjYXBlLm9yZy9uYW1lc3BhY2VzL2lua3NjYXBlIiB4bWxuczpyZGY9Imh0dHA6Ly93d3cudzMub3JnLzE5OTkvMDIvMjItcmRmLXN5bnRheC1ucyMiIHhtbG5zOnNvZGlwb2RpPSJodHRwOi8vc29kaXBvZGkuc291cmNlZm9yZ2UubmV0L0RURC9zb2RpcG9kaS0wLmR0ZCIgeG1sbnM6c3ZnPSJodHRwOi8vd3d3LnczLm9yZy8yMDAwL3N2ZyIgeG1sbnM9Imh0dHA6Ly93d3cudzMub3JnLzIwMDAvc3ZnIiB4bWxuczp4bGluaz0iaHR0cDovL3d3dy53My5vcmcvMTk5OS94bGluayIgdmVyc2lvbj0iMS4xIiBpZD0ic3ZnMTk2OTUxIiBpbmtzY2FwZTp2ZXJzaW9uPSIwLjkyLjMgKDI0MDU1NDYsIDIwMTgtMDMtMTEpIiBzb2RpcG9kaTpkb2NuYW1lPSJweXRob25fdG9vbHNfYW5kX3Nkay5zdmciIHg9IjBweCIgeT0iMHB4IiB2aWV3Qm94PSIwIDAgNDggNDgiIHN0eWxlPSJlbmFibGUtYmFja2dyb3VuZDpuZXcgMCAwIDQ4IDQ4OyIgeG1sOnNwYWNlPSJwcmVzZXJ2ZSI+JiN4YTs8c29kaXBvZGk6bmFtZWR2aWV3IGJvcmRlcmNvbG9yPSIjNjY2NjY2IiBib3JkZXJvcGFjaXR5PSIxIiBmaXQtbWFyZ2luLWJvdHRvbT0iMCIgZml0LW1hcmdpbi1sZWZ0PSIwIiBmaXQtbWFyZ2luLXJpZ2h0PSIwIiBmaXQtbWFyZ2luLXRvcD0iMCIgZ3JpZHRvbGVyYW5jZT0iMTAiIGd1aWRldG9sZXJhbmNlPSIxMCIgaWQ9Im5hbWVkdmlldzE5Njk1MyIgaW5rc2NhcGU6Y3VycmVudC1sYXllcj0ic3ZnMTk2OTUxIiBpbmtzY2FwZTpjeD0iMzIuMDAwMDE1IiBpbmtzY2FwZTpjeT0iMzIuMDAwNTg2IiBpbmtzY2FwZTpwYWdlb3BhY2l0eT0iMCIgaW5rc2NhcGU6cGFnZXNoYWRvdz0iMiIgaW5rc2NhcGU6d2luZG93LWhlaWdodD0iMTAxNyIgaW5rc2NhcGU6d2luZG93LW1heGltaXplZD0iMSIgaW5rc2NhcGU6d2luZG93LXdpZHRoPSIxOTIwIiBpbmtzY2FwZTp3aW5kb3cteD0iLTgiIGlua3NjYXBlOndpbmRvdy15PSItOCIgaW5rc2NhcGU6em9vbT0iMTAuMjcyOTE3IiBvYmplY3R0b2xlcmFuY2U9IjEwIiBwYWdlY29sb3I9IiNmZmZmZmYiIHNob3dncmlkPSJmYWxzZSI+JiN4YTsJPC9zb2RpcG9kaTpuYW1lZHZpZXc+JiN4YTs8ZyBpZD0iZzE5Njk0OSIgdHJhbnNmb3JtPSJ0cmFuc2xhdGUoLTcuNjUsLTcuNjQ5MjgwNikiPiYjeGE7CTx0aXRsZSBpZD0idGl0bGUxOTY5MDUiPlBhZ2UtMTwvdGl0bGU+JiN4YTsJPGcgaWQ9Imdyb3VwMTE3Ny0xIiB0cmFuc2Zvcm09InRyYW5zbGF0ZSg3LjY1LC03LjYxMzQyKSI+JiN4YTsJCTx0aXRsZSBpZD0idGl0bGUxOTY5MDciPlB5dGhvbiBUb29scyBhbmQgU0RLPC90aXRsZT4mI3hhOwkJPGcgaWQ9Imdyb3VwMTE3OC0yIj4mI3hhOwkJCTx0aXRsZSBpZD0idGl0bGUxOTY5MDkiPlNoZWV0LjExNzg8L3RpdGxlPiYjeGE7CQkJPGcgaWQ9Imdyb3VwMTE3OS0zIiB0cmFuc2Zvcm09InRyYW5zbGF0ZSgwLC0xMi4zMTQ3KSI+JiN4YTsJCQkJPHRpdGxlIGlkPSJ0aXRsZTE5NjkxMSI+U2hlZXQuMTE3OTwvdGl0bGU+JiN4YTsJCQkJPGcgaWQ9InNoYXBlMTE4MC00Ij4mI3hhOwkJCQkJPHRpdGxlIGlkPSJ0aXRsZTE5NjkxMyI+U2hlZXQuMTE4MDwvdGl0bGU+JiN4YTsJCQkJCTxwYXRoIGlkPSJwYXRoMTk2OTE1IiBpbmtzY2FwZTpjb25uZWN0b3ItY3VydmF0dXJlPSIwIiBzdHlsZT0iZmlsbDojMzc3MkE0OyIgZD0iTTAsNTEuMTdjMC4wMi0wLjA2LDAuMDQtMC4xMywwLjA1LTAuMiAgICAgICBjMC4wNC0wLjcsMC4wNC0xLjQsMC4xMS0yLjFjMC4yNC0yLjI2LDAuNzYtNC40NCwyLjE4LTYuMjhjMS4xLTEuNDQsMi41NC0yLjMsNC4zMy0yLjU0YzAuMjUtMC4wMywwLjUxLTAuMDQsMC43Ni0wLjA0ICAgICAgIGM1LjM5LDAsMTAuNzksMCwxNi4xOCwwYzAuMzEsMCwwLjMxLDAsMC4zMi0wLjMyYzAtMC4zNy0wLjAyLTAuNzUsMC0xLjEyYzAuMDEtMC4yMy0wLjA3LTAuMjktMC4yOS0wLjI5ICAgICAgIGMtMi45OCwwLjAxLTUuOTUsMC4wMS04LjkzLDAuMDFjLTAuNywwLTEuMzktMC4wMS0yLjA5LDBjLTAuMTksMC0wLjI2LTAuMDUtMC4yNS0wLjI1YzAtMS44My0wLjAxLTMuNjcsMC01LjUgICAgICAgYzAuMDEtMC44MiwwLjQtMS41MSwwLjkzLTIuMTFjMC43NC0wLjg0LDEuNjktMS4zNiwyLjcxLTEuNzVjMS4yNi0wLjQ4LDIuNTctMC43MywzLjg5LTAuODljMS44My0wLjIzLDMuNjYtMC4yNSw1LjQ5LTAuMTcgICAgICAgYzEuOTcsMC4wOCwzLjkyLDAuMzUsNS43OCwxLjA3YzEuMjYsMC40OSwyLjQsMS4xNiwzLjIzLDIuMjZjMC42OSwwLjkxLDEuMDEsMS45MiwwLjk1LDMuMDhjLTAuMDUsMC45My0wLjAyLDEuODctMC4wMSwyLjgxICAgICAgIGMwLDEuNzMsMC4wMSwzLjQ2LDAuMDEsNS4xOWMwLDEuMDIsMC4wMiwyLjA0LTAuMDUsMy4wNmMtMC4xNCwyLjQtMS4yOSw0LjExLTMuNTEsNS4wNGMtMS4wMSwwLjQyLTIuMDYsMC42MS0zLjE0LDAuNjEgICAgICAgYy0zLjgyLDAtNy42NS0wLjAxLTExLjQ3LDBjLTEuMjIsMC0yLjM5LDAuMjctMy40NSwwLjkxYy0xLjQsMC44NS0yLjIsMi4xNS0yLjY1LDMuN2MtMC4yMiwwLjc3LTAuMzEsMS41Ny0wLjMyLDIuMzcgICAgICAgYzAsMS43MywwLDMuNDYsMCw1LjE5YzAsMC4zNSwwLDAuMzUtMC4zNCwwLjM1Yy0xLjI1LDAtMi40OSwwLjA0LTMuNzQsMC4wMWMtMS4yNy0wLjA0LTIuMzctMC41NC0zLjMyLTEuMzcgICAgICAgYy0xLjEyLTAuOTYtMS44Mi0yLjE5LTIuMzEtMy41NmMtMC40Ni0xLjI1LTAuNzMtMi41NC0wLjg0LTMuODZjLTAuMDgtMC44NC0wLjExLTEuNjgtMC4xNi0yLjUyICAgICAgIEMwLjA0LDUxLjg3LDAuMDIsNTEuNzgsMCw1MS42OUMwLDUxLjUyLDAsNTEuMzUsMCw1MS4xN3oiLz4mI3hhOwkJCQk8L2c+JiN4YTsJCQkJPGcgaWQ9InNoYXBlMTE4MS02IiB0cmFuc2Zvcm09InRyYW5zbGF0ZSgxNS4yMDMzLC0yNy44MzIpIj4mI3hhOwkJCQkJPHRpdGxlIGlkPSJ0aXRsZTE5NjkxOCI+U2hlZXQuMTE4MTwvdGl0bGU+JiN4YTsJCQkJCTxwYXRoIGlkPSJwYXRoMTk2OTIwIiBpbmtzY2FwZTpjb25uZWN0b3ItY3VydmF0dXJlPSIwIiBkPSJNMCw2MS4xNWMwLDEuMTksMC45NCwyLjE1LDIuMTEsMi4xNWMxLjE1LDAsMi4xMS0wLjk3LDIuMTEtMi4xMyAgICAgICBjMC0xLjE5LTAuOTUtMi4xNi0yLjExLTIuMTVDMC45Myw1OS4wMywwLDU5Ljk3LDAsNjEuMTV6Ii8+JiN4YTsJCQkJPC9nPiYjeGE7CQkJCTxnIGlkPSJzaGFwZTExODItOCIgdHJhbnNmb3JtPSJ0cmFuc2xhdGUoMTUuMjAzMywtMjcuODMyKSI+JiN4YTsJCQkJCTx0aXRsZSBpZD0idGl0bGUxOTY5MjMiPlNoZWV0LjExODI8L3RpdGxlPiYjeGE7CQkJCQk8cGF0aCBpZD0icGF0aDE5NjkyNSIgaW5rc2NhcGU6Y29ubmVjdG9yLWN1cnZhdHVyZT0iMCIgc3R5bGU9ImZpbGw6I0ZGRkZGRjsiIGQ9Ik0wLDYxLjE1YzAtMS4xOCwwLjkzLTIuMTIsMi4xMS0yLjEzICAgICAgIGMxLjE2LTAuMDEsMi4xMSwwLjk2LDIuMTEsMi4xNWMwLDEuMTYtMC45NiwyLjEzLTIuMTEsMi4xM0MwLjk0LDYzLjMsMCw2Mi4zNCwwLDYxLjE1eiIvPiYjeGE7CQkJCTwvZz4mI3hhOwkJCTwvZz4mI3hhOwkJCTxnIGlkPSJncm91cDExODMtMTAiIHRyYW5zZm9ybT0idHJhbnNsYXRlKDEyLjU5NCkiPiYjeGE7CQkJCTx0aXRsZSBpZD0idGl0bGUxOTY5MjkiPlNoZWV0LjExODM8L3RpdGxlPiYjeGE7CQkJCTxnIGlkPSJzaGFwZTExODQtMTEiPiYjeGE7CQkJCQk8dGl0bGUgaWQ9InRpdGxlMTk2OTMxIj5TaGVldC4xMTg0PC90aXRsZT4mI3hhOwkJCQkJPHBhdGggaWQ9InBhdGgxOTY5MzMiIGlua3NjYXBlOmNvbm5lY3Rvci1jdXJ2YXR1cmU9IjAiIHN0eWxlPSJmaWxsOiNGRkRBNEI7IiBkPSJNMzUuNDEsMzkuNjZjLTAuMDIsMC4wNy0wLjA1LDAuMTQtMC4wNSwwLjIxICAgICAgIGMtMC4wNCwwLjctMC4wNSwxLjQtMC4xMiwyLjA5Yy0wLjIzLDIuMjctMC43NSw0LjQ1LTIuMTcsNi4yOWMtMS4xLDEuNDQtMi41NCwyLjMtNC4zNCwyLjUzYy0wLjI1LDAuMDQtMC41LDAuMDUtMC43NiwwLjA1ICAgICAgIGMtNS4zOSwwLTEwLjc4LDAtMTYuMTcsMGMtMC4zMiwwLTAuMzIsMC0wLjMyLDAuMzJjMCwwLjM3LDAuMDEsMC43NSwwLDEuMTJjLTAuMDIsMC4yMywwLjA3LDAuMjksMC4yOCwwLjI5ICAgICAgIGMyLjk4LTAuMDEsNS45Ni0wLjAxLDguOTQtMC4wMWMwLjY5LDAsMS4zOSwwLjAxLDIuMDksMGMwLjE5LDAsMC4yNSwwLjA1LDAuMjUsMC4yNWMtMC4wMSwxLjgzLDAuMDEsMy42Ny0wLjAxLDUuNSAgICAgICBjLTAuMDEsMC44Mi0wLjM5LDEuNTEtMC45MywyLjExYy0wLjc0LDAuODMtMS42OCwxLjM2LTIuNywxLjc1Yy0xLjI2LDAuNDgtMi41NywwLjcyLTMuOSwwLjg5Yy0xLjgyLDAuMjMtMy42NSwwLjI1LTUuNDgsMC4xNyAgICAgICBjLTEuOTctMC4wOS0zLjkyLTAuMzUtNS43OC0xLjA3Yy0xLjI2LTAuNDktMi40LTEuMTYtMy4yNC0yLjI3Yy0wLjY4LTAuOS0xLTEuOTItMC45NC0zLjA3YzAuMDUtMC45MywwLjAxLTEuODcsMC4wMS0yLjgxICAgICAgIGMwLTEuNzMtMC4wMS0zLjQ2LTAuMDEtNS4xOWMwLTEuMDItMC4wMi0yLjA0LDAuMDQtMy4wNmMwLjE0LTIuNCwxLjI5LTQuMTEsMy41Mi01LjA0YzEtMC40MywyLjA2LTAuNjEsMy4xNC0wLjYxICAgICAgIGMzLjgyLDAsNy42NCwwLjAxLDExLjQ2LDBjMS4yMywwLDIuNC0wLjI3LDMuNDYtMC45MWMxLjQtMC44NSwyLjItMi4xNSwyLjY0LTMuN2MwLjIyLTAuNzcsMC4zMi0xLjU3LDAuMzItMi4zNyAgICAgICBjMC4wMS0xLjczLDAtMy40NiwwLTUuMmMwLTAuMzQsMC0wLjM0LDAuMzUtMC4zNGMxLjI0LDAsMi40OS0wLjA0LDMuNzMtMC4wMWMxLjI3LDAuMDQsMi4zNywwLjU0LDMuMzMsMS4zNyAgICAgICBjMS4xMSwwLjk2LDEuODEsMi4xOSwyLjMxLDMuNTZjMC40NSwxLjI1LDAuNzIsMi41NCwwLjg0LDMuODZjMC4wNywwLjg0LDAuMTEsMS42OCwwLjE2LDIuNTFjMCwwLjEsMC4wMywwLjE5LDAuMDUsMC4yOCAgICAgICBDMzUuNDEsMzkuMzIsMzUuNDEsMzkuNDksMzUuNDEsMzkuNjZ6Ii8+JiN4YTsJCQkJPC9nPiYjeGE7CQkJCTxnIGlkPSJzaGFwZTExODUtMTMiIHRyYW5zZm9ybT0idHJhbnNsYXRlKDE1Ljk4MTMsLTMuOTEyKSI+JiN4YTsJCQkJCTx0aXRsZSBpZD0idGl0bGUxOTY5MzYiPlNoZWV0LjExODU8L3RpdGxlPiYjeGE7CQkJCQk8cGF0aCBpZD0icGF0aDE5NjkzOCIgaW5rc2NhcGU6Y29ubmVjdG9yLWN1cnZhdHVyZT0iMCIgZD0iTTQuMjIsNjEuMTZjMC0xLjE5LTAuOTQtMi4xNS0yLjExLTIuMTVDMC45Niw1OS4wMiwwLDU5Ljk4LDAsNjEuMTQgICAgICAgYzAsMS4xOSwwLjk1LDIuMTYsMi4xMiwyLjE1UzQuMjIsNjIuMzQsNC4yMiw2MS4xNnoiLz4mI3hhOwkJCQk8L2c+JiN4YTsJCQkJPGcgaWQ9InNoYXBlMTE4Ni0xNSIgdHJhbnNmb3JtPSJ0cmFuc2xhdGUoMTUuOTgwNywtMy45MTIpIj4mI3hhOwkJCQkJPHRpdGxlIGlkPSJ0aXRsZTE5Njk0MSI+U2hlZXQuMTE4NjwvdGl0bGU+JiN4YTsJCQkJCTxwYXRoIGlkPSJwYXRoMTk2OTQzIiBpbmtzY2FwZTpjb25uZWN0b3ItY3VydmF0dXJlPSIwIiBzdHlsZT0iZmlsbDojRkZGRkZGOyIgZD0iTTQuMjIsNjEuMTZjMCwxLjE4LTAuOTMsMi4xMi0yLjEsMi4xMyAgICAgICBDMC45NSw2My4zLDAsNjIuMzMsMCw2MS4xNGMwLTEuMTYsMC45Ni0yLjEyLDIuMTEtMi4xM0MzLjI4LDU5LjAxLDQuMjIsNTkuOTcsNC4yMiw2MS4xNnoiLz4mI3hhOwkJCQk8L2c+JiN4YTsJCQk8L2c+JiN4YTsJCTwvZz4mI3hhOwk8L2c+JiN4YTs8L2c+JiN4YTs8L3N2Zz4=;" vertex="1" parent="1">
          <mxGeometry x="703" y="442.5" width="64" height="64" as="geometry" />
        </mxCell>
        <mxCell id="VOohrECMqtA-v3Q6aIey-13" value="&lt;font data-font-src=&quot;https://fonts.googleapis.com/css?family=Architects+Daughter&quot; face=&quot;Architects Daughter&quot; style=&quot;font-size: 13px;&quot;&gt;Twitter API&lt;/font&gt;" style="text;strokeColor=none;align=center;fillColor=none;html=1;verticalAlign=middle;whiteSpace=wrap;rounded=1;fontStyle=1;fontSize=13;" vertex="1" parent="1">
          <mxGeometry x="90" y="412.5" width="60" height="30" as="geometry" />
        </mxCell>
        <mxCell id="VOohrECMqtA-v3Q6aIey-14" value="&lt;font data-font-src=&quot;https://fonts.googleapis.com/css?family=Architects+Daughter&quot; face=&quot;Architects Daughter&quot; style=&quot;font-size: 14px;&quot;&gt;GitHub Action Workflow&lt;/font&gt;" style="text;strokeColor=none;align=center;fillColor=none;html=1;verticalAlign=middle;whiteSpace=wrap;rounded=1;fontStyle=1;fontSize=14;" vertex="1" parent="1">
          <mxGeometry x="280" y="244.5" width="90" height="30" as="geometry" />
        </mxCell>
        <mxCell id="VOohrECMqtA-v3Q6aIey-15" value="&lt;font data-font-src=&quot;https://fonts.googleapis.com/css?family=Architects+Daughter&quot; face=&quot;Architects Daughter&quot; style=&quot;font-size: 14px;&quot;&gt;AWS RDS Instance (Postgres)&lt;/font&gt;" style="text;strokeColor=none;align=center;fillColor=none;html=1;verticalAlign=middle;whiteSpace=wrap;rounded=1;fontStyle=1;fontSize=14;" vertex="1" parent="1">
          <mxGeometry x="450" y="244.5" width="130" height="30" as="geometry" />
        </mxCell>
        <mxCell id="VOohrECMqtA-v3Q6aIey-17" value="&lt;font data-font-src=&quot;https://fonts.googleapis.com/css?family=Architects+Daughter&quot; face=&quot;Architects Daughter&quot; style=&quot;font-size: 14px;&quot;&gt;API &lt;br style=&quot;font-size: 14px;&quot;&gt;(FastAPI Framework)&lt;/font&gt;" style="text;strokeColor=none;align=center;fillColor=none;html=1;verticalAlign=middle;whiteSpace=wrap;rounded=1;fontStyle=1;fontSize=14;" vertex="1" parent="1">
          <mxGeometry x="670" y="194.5" width="150" height="30" as="geometry" />
        </mxCell>
        <mxCell id="VOohrECMqtA-v3Q6aIey-18" value="&lt;font data-font-src=&quot;https://fonts.googleapis.com/css?family=Architects+Daughter&quot; face=&quot;Architects Daughter&quot;&gt;Python-based Third Party Libarary&lt;/font&gt;" style="text;strokeColor=none;align=center;fillColor=none;html=1;verticalAlign=middle;whiteSpace=wrap;rounded=1;fontStyle=1" vertex="1" parent="1">
          <mxGeometry x="670" y="395.5" width="130" height="30" as="geometry" />
        </mxCell>
        <mxCell id="VOohrECMqtA-v3Q6aIey-19" value="&lt;font face=&quot;Architects Daughter&quot; style=&quot;font-size: 14px;&quot;&gt;Heroku Platform&lt;/font&gt;" style="text;strokeColor=none;align=center;fillColor=none;html=1;verticalAlign=middle;whiteSpace=wrap;rounded=1;fontStyle=1;fontSize=14;" vertex="1" parent="1">
          <mxGeometry x="914.5" y="180" width="130" height="30" as="geometry" />
        </mxCell>
        <mxCell id="VOohrECMqtA-v3Q6aIey-20" value="&lt;font face=&quot;Architects Daughter&quot; style=&quot;font-size: 14px;&quot;&gt;Pypi Platform&lt;/font&gt;" style="text;strokeColor=none;align=center;fillColor=none;html=1;verticalAlign=middle;whiteSpace=wrap;rounded=1;fontStyle=1;fontSize=14;" vertex="1" parent="1">
          <mxGeometry x="935" y="390.5" width="130" height="30" as="geometry" />
        </mxCell>
        <mxCell id="VOohrECMqtA-v3Q6aIey-22" value="" style="edgeStyle=orthogonalEdgeStyle;rounded=0;orthogonalLoop=1;jettySize=auto;html=1;exitX=1;exitY=0.5;exitDx=0;exitDy=0;" edge="1" parent="1" source="lId9YTHrqZy0qMTVwQLb-6" target="lId9YTHrqZy0qMTVwQLb-7">
          <mxGeometry relative="1" as="geometry">
            <mxPoint x="775" y="269.5" as="sourcePoint" />
            <mxPoint x="920" y="269.5" as="targetPoint" />
          </mxGeometry>
        </mxCell>
        <mxCell id="VOohrECMqtA-v3Q6aIey-21" value="&lt;font face=&quot;Architects Daughter&quot; style=&quot;font-size: 14px;&quot;&gt;Deployment&lt;/font&gt;" style="text;strokeColor=none;align=center;fillColor=none;html=1;verticalAlign=middle;whiteSpace=wrap;rounded=1;fontStyle=1;fontSize=14;" vertex="1" parent="1">
          <mxGeometry x="790" y="240.5" width="110" height="30" as="geometry" />
        </mxCell>
        <mxCell id="VOohrECMqtA-v3Q6aIey-23" value="&lt;font face=&quot;Architects Daughter&quot; style=&quot;font-size: 14px;&quot;&gt;Deployment&lt;/font&gt;" style="text;strokeColor=none;align=center;fillColor=none;html=1;verticalAlign=middle;whiteSpace=wrap;rounded=1;fontStyle=1;fontSize=14;" vertex="1" parent="1">
          <mxGeometry x="810" y="454" width="110" height="30" as="geometry" />
        </mxCell>
        <mxCell id="VOohrECMqtA-v3Q6aIey-24" value="&lt;font data-font-src=&quot;https://fonts.googleapis.com/css?family=Architects+Daughter&quot; face=&quot;Architects Daughter&quot; style=&quot;font-size: 16px;&quot;&gt;ETL&lt;/font&gt;" style="text;strokeColor=none;align=center;fillColor=none;html=1;verticalAlign=middle;whiteSpace=wrap;rounded=1;fontStyle=1;fontSize=16;" vertex="1" parent="1">
          <mxGeometry x="160" y="340.5" width="60" height="30" as="geometry" />
        </mxCell>
      </root>
    </mxGraphModel>
  </diagram>
</mxfile>
